<svg xmlns="http://www.w3.org/2000/svg" width="17.285" height="15.098" viewBox="0 0 17.285 15.098">
  <g id="_001-heart" data-name="001-heart" transform="translate(0.999 -30.928)" fill="#fff">
    <path d="M 7.643616199493408 45.47640991210938 L 7.437386035919189 45.38302993774414 C 5.31454610824585 44.42185974121094 3.544725894927979 43.21817779541016 2.177095890045166 41.8054084777832 C 0.9051960110664368 40.49153900146484 0.04406598210334778 39.04077911376953 -0.3132040202617645 37.60997009277344 C -0.7283040285110474 35.94758987426758 -0.4413440227508545 34.36261749267578 0.4947959780693054 33.14702987670898 C 1.34894597530365 32.03817749023438 2.564015865325928 31.42753791809082 3.916215896606445 31.42753791809082 C 4.969706058502197 31.42753791809082 6.027895927429199 31.81341934204102 6.819466114044189 32.48624801635742 C 7.155292987823486 32.77170181274414 7.431812763214111 33.09622192382813 7.643705368041992 33.44876861572266 C 7.85558557510376 33.09615707397461 8.132045745849609 32.77169036865234 8.467885971069336 32.4862174987793 C 9.259346008300781 31.81344795227051 10.31748580932617 31.42759895324707 11.37100601196289 31.42759895324707 C 12.72311592102051 31.42759895324707 13.93808555603027 32.03822708129883 14.79209613800049 33.14698791503906 C 15.72825622558594 34.36261749267578 16.01521682739258 35.94758987426758 15.60013580322266 37.60997009277344 C 15.24287605285645 39.04076766967773 14.38177585601807 40.49152755737305 13.10992622375488 41.8054084777832 C 11.74234580993652 43.21817016601563 9.97260570526123 44.42185974121094 7.849855899810791 45.38301849365234 L 7.643616199493408 45.47640991210938 Z" stroke="none"/>
    <path d="M 3.916214942932129 31.92753982543945 C 2.830524444580078 31.92753982543945 1.715986251831055 32.38103103637695 0.8909358978271484 33.45209884643555 C -1.460654258728027 36.50568771362305 0.8571462631225586 41.85480880737305 7.643616199493408 44.92753601074219 C 14.42976570129395 41.85480880737305 16.74756622314453 36.50568771362305 14.39597606658936 33.45209884643555 C 13.57118129730225 32.38126754760742 12.45643043518066 31.92774200439453 11.37100696563721 31.92760467529297 C 9.462562561035156 31.9273681640625 7.643755912780762 33.32875061035156 7.643755912780762 35.24077987670898 C 7.643755912780762 33.32893371582031 5.824625968933105 31.92753982543945 3.916214942932129 31.92753982543945 M 3.916215896606445 30.92753982543945 C 5.086505889892578 30.92753982543945 6.262725830078125 31.35680770874023 7.143285751342773 32.10527038574219 C 7.325772285461426 32.26038360595703 7.492770671844482 32.42581939697266 7.643673896789551 32.60026550292969 C 7.794498920440674 32.42588806152344 7.961455821990967 32.26045608520508 8.14383602142334 32.10540008544922 C 9.024236679077148 31.35689926147461 10.20031547546387 30.92760848999023 11.37051582336426 30.92760848999023 C 12.8819465637207 30.92778778076172 14.23754596710205 31.60762786865234 15.18821620941162 32.84188842773438 C 16.21954536437988 34.18108749389648 16.53809547424316 35.91741943359375 16.08523559570313 37.73109817504883 C 15.70670604705811 39.24707794189453 14.80208587646484 40.77620697021484 13.46917629241943 42.15316772460938 C 12.05763626098633 43.6113395690918 10.23641586303711 44.85126876831055 8.056096076965332 45.83850860595703 L 7.64362621307373 46.0252685546875 L 7.231156349182129 45.83850860595703 C 5.050736427307129 44.85128021240234 3.229435920715332 43.61135864257813 1.817846298217773 42.15317916870117 C 0.4848861694335938 40.77621841430664 -0.4197635650634766 39.24708938598633 -0.798314094543457 37.73109817504883 C -1.25118350982666 35.91742706298828 -0.9326333999633789 34.18109893798828 0.09864616394042969 32.84194946289063 C 1.049635887145996 31.60738754272461 2.405385971069336 30.92753982543945 3.916215896606445 30.92753982543945 Z" stroke="none" fill="#585858"/>
  </g>
</svg>
