<svg xmlns="http://www.w3.org/2000/svg" width="24" height="24" viewBox="0 0 24 24">
  <g id="Процент" transform="translate(-37.661 -38.5)">
    <g id="Group_424" data-name="Group 424" transform="translate(39.661 40.5)">
      <g id="Ellipse_49" data-name="Ellipse 49" transform="translate(-2 -2)" fill="none" stroke="#585858" stroke-width="1">
        <circle cx="12" cy="12" r="12" stroke="none"/>
        <circle cx="12" cy="12" r="11.5" fill="none"/>
      </g>
      <g id="percent" transform="translate(-921.861 -777.5)">
        <g id="Group_424-2" data-name="Group 424" transform="translate(-0.712)">
          <path id="Path_93" data-name="Path 93" d="M184.9,158.582l-8.693,8.61a.7.7,0,0,0,0,.994.713.713,0,0,0,.5.2.724.724,0,0,0,.5-.2l8.693-8.615a.7.7,0,0,0,0-.994A.718.718,0,0,0,184.9,158.582Z" transform="translate(751.564 623.912)" fill="#585858"/>
          <path id="Path_94" data-name="Path 94" d="M276.539,249.249a2.5,2.5,0,0,0,0,3.548,2.55,2.55,0,0,0,3.586,0,2.5,2.5,0,0,0,0-3.548,2.55,2.55,0,0,0-3.586,0Zm2.583,2.56a1.106,1.106,0,0,1-.79.322,1.13,1.13,0,0,1-.79-.322,1.1,1.1,0,0,1,.79-1.888,1.131,1.131,0,0,1,.79.322A1.1,1.1,0,0,1,279.122,251.81Z" transform="translate(657.65 539.042)" fill="#585858"/>
          <path id="Path_95" data-name="Path 95" d="M167.461,151.213a2.532,2.532,0,0,0-1.793.736,2.5,2.5,0,0,0,0,3.554,2.55,2.55,0,0,0,3.586,0,2.5,2.5,0,0,0,0-3.554A2.542,2.542,0,0,0,167.461,151.213Zm.79,3.3a1.106,1.106,0,0,1-.79.322,1.131,1.131,0,0,1-.79-.322,1.086,1.086,0,0,1-.324-.783,1.1,1.1,0,0,1,1.115-1.1,1.131,1.131,0,0,1,.79.321,1.108,1.108,0,0,1,0,1.566Z" transform="translate(761.986 630.655)" fill="#585858"/>
        </g>
      </g>
    </g>
  </g>
</svg>
