<svg xmlns="http://www.w3.org/2000/svg" width="13" height="17.952" viewBox="0 0 13 17.952">
  <g id="Cart" transform="translate(-43.598 -41.5)">
    <path id="Cart-2" data-name="Cart" d="M11.917,13.464H1.083V4.488A1.1,1.1,0,0,1,2.167,3.366H3.25V6.732H4.333V3.366H8.667V6.732H9.75V3.366h1.083a1.1,1.1,0,0,1,1.083,1.122v8.976Zm0,2.244a1.1,1.1,0,0,1-1.083,1.122H2.167a1.1,1.1,0,0,1-1.083-1.122V14.586H11.917v1.122ZM6.5,1.122c1.2,0,2.167.347,2.167,1.122H4.333c0-.775.97-1.122,2.167-1.122Zm4.333,1.122H9.75C9.75,1,8.295,0,6.5,0S3.25,1,3.25,2.244H2.167A2.206,2.206,0,0,0,0,4.488v11.22a2.206,2.206,0,0,0,2.167,2.244h8.667A2.206,2.206,0,0,0,13,15.708V4.488a2.206,2.206,0,0,0-2.167-2.244Z" transform="translate(43.597 41.5)" fill="#585858" fill-rule="evenodd"/>
  </g>
</svg>
