<svg xmlns="http://www.w3.org/2000/svg" width="20" height="15.22" viewBox="0 0 20 15.22">
  <g id="envelope" transform="translate(-40 -42.7)">
    <g id="Group_145" data-name="Group 145" transform="translate(40 42.7)">
      <path id="Path_100" data-name="Path 100" d="M17.558,57.75H2.446A2.448,2.448,0,0,0,0,60.2V70.525A2.448,2.448,0,0,0,2.446,72.97H17.554A2.448,2.448,0,0,0,20,70.525V60.2A2.445,2.445,0,0,0,17.558,57.75Zm1.328,12.775a1.33,1.33,0,0,1-1.328,1.328H2.446a1.33,1.33,0,0,1-1.328-1.328V60.2a1.33,1.33,0,0,1,1.328-1.328H17.554A1.33,1.33,0,0,1,18.883,60.2V70.525Z" transform="translate(0 -57.75)" fill="#585858"/>
      <path id="Path_101" data-name="Path 101" d="M64.516,113.236l4.159-3.543a.438.438,0,0,0,.035-.638.5.5,0,0,0-.672-.033l-5.735,4.89-1.119-.949s-.007-.007-.007-.01a.7.7,0,0,0-.077-.064l-4.553-3.871a.492.492,0,0,0-.672.037.435.435,0,0,0,.039.638l4.208,3.573-4.191,3.727a.437.437,0,0,0-.021.638.5.5,0,0,0,.348.144.49.49,0,0,0,.324-.12l4.254-3.78,1.154.979a.492.492,0,0,0,.633,0l1.186-1.009,4.229,3.817a.494.494,0,0,0,.672-.017.437.437,0,0,0-.018-.638Z" transform="translate(-52.292 -105.727)" fill="#585858"/>
    </g>
  </g>
</svg>
