<?xml version="1.0" encoding="utf-8"?>
<!-- Generator: Adobe Illustrator 12.0.0, SVG Export Plug-In  -->
<!DOCTYPE svg PUBLIC "-//W3C//DTD SVG 1.1//EN" "http://www.w3.org/Graphics/SVG/1.1/DTD/svg11.dtd" [
	<!ENTITY ns_flows "http://ns.adobe.com/Flows/1.0/">
	<!ENTITY ns_svg "http://www.w3.org/2000/svg">
	<!ENTITY ns_xlink "http://www.w3.org/1999/xlink">
]>
<svg  version="1.1" xmlns="&ns_svg;" xmlns:xlink="&ns_xlink;" xmlns:a="http://ns.adobe.com/AdobeSVGViewerExtensions/3.0/"
	 width="31" height="31" viewBox="-0.062 -0.478 31 31" enable-background="new -0.062 -0.478 31 31" xml:space="preserve">
<defs>
</defs>
<path fill="#010101" d="M14.999,0C6.72,0,0,6.72,0,15s6.72,15,14.999,15c8.28,0,15-6.72,15-15S23.279,0,14.999,0L14.999,0z
	 M14.999,0.78c7.86,0,14.28,6.36,14.28,14.22s-6.42,14.28-14.28,14.28C7.14,29.281,0.78,22.861,0.78,15S7.14,0.78,14.999,0.78
	L14.999,0.78z M12.6,7.62l-0.48,0.54l7.2,6.6l-7.2,6.36l0.48,0.54l7.859-6.9L12.6,7.62z"/>
</svg>
