<svg xmlns="http://www.w3.org/2000/svg" viewBox="0 0 48 48"><defs><style>.a{opacity:0.2;}</style></defs><g class="a"><path d="M20.674,20.623c0-1.837-1.25-1.837-1.25-1.837H14.28v3.942H19.1C19.939,22.728,20.674,22.462,20.674,20.623Z" transform="translate(-0.475 -0.625)"/><path d="M33.114,22.864a3.158,3.158,0,0,0-3.108,2.72h5.8A2.628,2.628,0,0,0,33.114,22.864Z" transform="translate(-0.998 -0.761)"/><path d="M19.424,25.68H14.283V30.4h4.554c.077,0,.191,0,.328,0,.732-.018,2.123-.227,2.123-2.3C21.288,25.657,19.424,25.68,19.424,25.68Z" transform="translate(-0.475 -0.854)"/><path d="M24,0A24,24,0,1,0,48,24,24.027,24.027,0,0,0,24,0Zm4.247,16.062h7.288v2.176H28.247ZM24.562,27.473c0,5.391-5.613,5.215-5.613,5.215H9.757V15.022h9.192c2.795,0,5,1.544,5,4.705a3.067,3.067,0,0,1-2.7,3.361C24.806,23.087,24.562,27.473,24.562,27.473Zm13.636-.29H29.041a2.875,2.875,0,0,0,3.11,3.076c2.935,0,2.833-1.9,2.833-1.9H38.1c0,5.044-6.046,4.7-6.046,4.7-7.253,0-6.787-6.753-6.787-6.753s-.007-6.788,6.787-6.788C39.2,19.515,38.2,27.183,38.2,27.183Z"/></g></svg>