<svg xmlns="http://www.w3.org/2000/svg" viewBox="0 0 48 48"><defs><style>.a{opacity:0.2;}</style></defs><g class="a"><path d="M24.66,29.465a4.8,4.8,0,1,0-4.8-4.806A4.812,4.812,0,0,0,24.66,29.465Z" transform="translate(-0.661 -0.661)"/><path d="M35.519,18.587V13.96l-.6,0-4.025.013.015,4.628Z" transform="translate(-1.028 -0.464)"/><path d="M24,0A24,24,0,1,0,48,24,24.027,24.027,0,0,0,24,0ZM37.649,21.2V32.375a5.281,5.281,0,0,1-5.275,5.276H15.626a5.28,5.28,0,0,1-5.275-5.276V15.627a5.28,5.28,0,0,1,5.275-5.275H32.373a5.281,5.281,0,0,1,5.276,5.275Z"/><path d="M31.914,24.73a7.466,7.466,0,1,1-14.382-2.8H13.457V33.1a2.616,2.616,0,0,0,2.616,2.614H32.82A2.617,2.617,0,0,0,35.436,33.1V21.929H31.359A7.364,7.364,0,0,1,31.914,24.73Z" transform="translate(-0.448 -0.73)"/></g></svg>