<svg xmlns="http://www.w3.org/2000/svg" viewBox="0 0 48 48"><defs><style>.a{opacity:0.2;}</style></defs><g class="a"><path d="M24,0A24,24,0,1,0,48,24,24,24,0,0,0,24,0ZM36.174,26.6a45.635,45.635,0,0,1,3.306,3.326,9.423,9.423,0,0,1,1.183,1.7c.456.884.044,1.854-.747,1.907H35a3.8,3.8,0,0,1-3.132-1.275c-.68-.692-1.311-1.431-1.966-2.146a4.6,4.6,0,0,0-.885-.788,1.027,1.027,0,0,0-1.637.4,5.151,5.151,0,0,0-.518,2.3c-.054,1.159-.4,1.462-1.566,1.517a12.59,12.59,0,0,1-7.036-1.514,15.531,15.531,0,0,1-4.735-4.432,59.728,59.728,0,0,1-6.232-11.11c-.393-.876-.106-1.344.86-1.362,1.6-.031,3.209-.027,4.814,0a1.415,1.415,0,0,1,1.336,1,29.875,29.875,0,0,0,3.263,6.046A5.17,5.17,0,0,0,18.8,23.516a.749.749,0,0,0,1.272-.374,4.123,4.123,0,0,0,.283-1.269,18.95,18.95,0,0,0-.078-4.444,1.854,1.854,0,0,0-1.579-1.7c-.469-.089-.4-.263-.172-.531a1.768,1.768,0,0,1,1.509-.75h5.555c.876.172,1.072.565,1.191,1.447l0,6.173c-.01.341.171,1.353.784,1.576.491.162.815-.232,1.109-.543a19.2,19.2,0,0,0,3.131-4.809c.375-.762.7-1.55,1.013-2.339a1.2,1.2,0,0,1,1.256-.861l5.349.006a2.782,2.782,0,0,1,.474.028c.9.154,1.149.542.87,1.422a13.329,13.329,0,0,1-2.126,3.687c-.894,1.235-1.847,2.428-2.732,3.669C35.1,25.04,35.164,25.611,36.174,26.6Z"/></g></svg>