<svg xmlns="http://www.w3.org/2000/svg" viewBox="0 0 20 15.714">
  <defs>
    <style>
      .cls-1 {
        fill: #d4d4d4;
      }
    </style>
  </defs>
  <g id="envelope_1_" data-name="envelope (1)" transform="translate(0 -54.82)">
    <g id="Group_182" data-name="Group 182" transform="translate(0 54.82)">
      <path id="Path_110" data-name="Path 110" class="cls-1" d="M1.92,59.664q.379.268,2.288,1.59t2.924,2.037q.112.078.474.34t.6.424q.24.162.58.363a3.367,3.367,0,0,0,.642.3,1.768,1.768,0,0,0,.558.1h.022a1.77,1.77,0,0,0,.558-.1,3.37,3.37,0,0,0,.642-.3q.34-.2.58-.363t.6-.424q.363-.263.474-.34l5.223-3.627a5.3,5.3,0,0,0,1.361-1.373A2.947,2.947,0,0,0,20,56.606a1.8,1.8,0,0,0-1.786-1.786H1.786a1.594,1.594,0,0,0-1.323.58A2.253,2.253,0,0,0,0,56.851a2.607,2.607,0,0,0,.614,1.524A5.54,5.54,0,0,0,1.92,59.664Z" transform="translate(0 -54.82)"/>
      <path id="Path_111" data-name="Path 111" class="cls-1" d="M18.884,185.408q-3.66,2.477-5.558,3.85-.636.469-1.032.731a6.37,6.37,0,0,1-1.055.536,3.211,3.211,0,0,1-1.227.273H9.989a3.212,3.212,0,0,1-1.228-.273,6.373,6.373,0,0,1-1.055-.536q-.4-.262-1.032-.731-1.507-1.1-5.547-3.85A5.912,5.912,0,0,1,0,184.437V193.3a1.719,1.719,0,0,0,.525,1.261,1.719,1.719,0,0,0,1.261.525H18.214A1.791,1.791,0,0,0,20,193.3v-8.861A6.155,6.155,0,0,1,18.884,185.408Z" transform="translate(0 -179.37)"/>
    </g>
  </g>
</svg>
