<?xml version="1.0" encoding="utf-8"?>
<!-- Generator: Adobe Illustrator 12.0.0, SVG Export Plug-In  -->
<!DOCTYPE svg PUBLIC "-//W3C//DTD SVG 1.1//EN" "http://www.w3.org/Graphics/SVG/1.1/DTD/svg11.dtd" [
	<!ENTITY ns_flows "http://ns.adobe.com/Flows/1.0/">
	<!ENTITY ns_svg "http://www.w3.org/2000/svg">
	<!ENTITY ns_xlink "http://www.w3.org/1999/xlink">
]>
<svg  version="1.1" xmlns="&ns_svg;" xmlns:xlink="&ns_xlink;" xmlns:a="http://ns.adobe.com/AdobeSVGViewerExtensions/3.0/"
	 width="31" height="31" viewBox="-0.062 -0.478 31 31" enable-background="new -0.062 -0.478 31 31" xml:space="preserve">
<defs>
</defs>
<path fill="#010101" d="M14.999,30c8.28,0,15-6.72,15-15s-6.72-15-15-15C6.72,0,0,6.72,0,15S6.72,30,14.999,30L14.999,30z
	 M14.999,29.281C7.14,29.281,0.78,22.861,0.78,15S7.14,0.78,14.999,0.78c7.86,0,14.28,6.36,14.28,14.22S22.859,29.281,14.999,29.281
	L14.999,29.281z M17.399,22.38l0.48-0.54l-7.2-6.6l7.2-6.36l-0.48-0.54l-7.86,6.9L17.399,22.38z"/>
</svg>
