<svg xmlns="http://www.w3.org/2000/svg" width="44" height="40" viewBox="0 0 44 40" style="max-width: 100%; max-height: 100%;">
  <g id="percentage" transform="translate(0 -20.113)">
    <g id="Group_139" data-name="Group 139" transform="translate(0 20.113)">
      <path id="Path_92" data-name="Path 92" d="M38.088,25.972a20.3,20.3,0,0,0-28.716.179,1.079,1.079,0,0,0,.018,1.525,1.1,1.1,0,0,0,1.539-.018A17.81,17.81,0,1,1,5.814,40.113v-.224l1.793,1.777a1.1,1.1,0,0,0,.77.314,1.111,1.111,0,0,0,.77-.314,1.071,1.071,0,0,0,0-1.525L5.507,36.524a1.094,1.094,0,0,0-1.539,0L.319,40.14a1.071,1.071,0,0,0,0,1.525,1.094,1.094,0,0,0,1.539,0l1.793-1.777v.224A19.784,19.784,0,0,0,9.562,54.254a20.3,20.3,0,0,0,28.535,0,19.879,19.879,0,0,0-.009-28.282Z" transform="translate(0 -20.113)"/>
    </g>
  </g>
</svg>
