<svg xmlns="http://www.w3.org/2000/svg" viewBox="0 0 53 53">
  <defs>
    <style>
      .cls-1 {
        fill: #d9d9d9;
      }
    </style>
  </defs>
  <path id="user_1_" data-name="user (1)" class="cls-1" d="M53,26.5A26.5,26.5,0,1,0,8.6,46.021l-.025.022.86.725c.056.047.117.086.172.132.457.379.93.738,1.412,1.086.156.113.312.225.471.335q.772.532,1.582,1.01c.118.069.236.137.355.2.591.336,1.194.653,1.812.944l.137.062a26.261,26.261,0,0,0,6.409,2.028l.177.032c.7.12,1.4.217,2.117.281l.261.02c.711.059,1.43.1,2.159.1s1.434-.038,2.141-.094l.269-.02q1.062-.1,2.1-.277l.18-.033a26.26,26.26,0,0,0,6.319-1.98c.073-.034.147-.066.221-.1q.892-.419,1.745-.9.212-.12.423-.244c.518-.305,1.028-.624,1.524-.964.178-.121.353-.25.529-.377.423-.3.838-.619,1.242-.947.09-.072.186-.135.274-.209l.882-.736-.026-.022A26.431,26.431,0,0,0,53,26.5Zm-51.073,0A24.573,24.573,0,1,1,42.8,44.87a7.223,7.223,0,0,0-.861-.517l-8.159-4.079a2.136,2.136,0,0,1-1.187-1.921V35.5c.189-.233.388-.5.595-.787A19.637,19.637,0,0,0,35.7,29.779a3.5,3.5,0,0,0,2.009-3.169V23.194a3.506,3.506,0,0,0-.855-2.283v-4.5a7.771,7.771,0,0,0-1.815-5.651C33.269,8.735,30.394,7.709,26.5,7.709s-6.769,1.026-8.545,3.053a7.773,7.773,0,0,0-1.815,5.651v4.5a3.511,3.511,0,0,0-.855,2.283v3.416a3.505,3.505,0,0,0,1.291,2.718,18.107,18.107,0,0,0,2.981,6.157v2.789a2.15,2.15,0,0,1-1.12,1.887l-7.619,4.156a6.964,6.964,0,0,0-.725.459A24.514,24.514,0,0,1,1.927,26.5Z"/>
</svg>
