<?xml version="1.0" encoding="utf-8"?>
<!-- Generator: Adobe Illustrator 12.0.0, SVG Export Plug-In  -->
<!DOCTYPE svg PUBLIC "-//W3C//DTD SVG 1.1//EN" "http://www.w3.org/Graphics/SVG/1.1/DTD/svg11.dtd" [
	<!ENTITY ns_flows "http://ns.adobe.com/Flows/1.0/">
	<!ENTITY ns_svg "http://www.w3.org/2000/svg">
	<!ENTITY ns_xlink "http://www.w3.org/1999/xlink">
]>
<svg  version="1.1" xmlns="&ns_svg;" xmlns:xlink="&ns_xlink;" xmlns:a="http://ns.adobe.com/AdobeSVGViewerExtensions/3.0/"
	 width="31" height="31" viewBox="-0.062 -0.478 31 31" enable-background="new -0.062 -0.478 31 31" xml:space="preserve">
<defs>
</defs>
<path fill="#010101" d="M14.999,0C6.72,0,0,6.72,0,15s6.72,15,14.999,15c8.28,0,15-6.72,15-15S23.279,0,14.999,0L14.999,0z
	 M14.999,0.78c7.86,0,14.22,6.36,14.22,14.22s-6.359,14.28-14.22,14.28C7.14,29.281,0.72,22.861,0.72,15S7.14,0.78,14.999,0.78
	L14.999,0.78z M14.999,4.92c-0.24,0-0.359,0.12-0.359,0.36v1.5c0,0.18,0.18,0.36,0.359,0.36c0.181,0,0.36-0.18,0.36-0.36v-1.5
	C15.359,5.04,15.18,4.86,14.999,4.92L14.999,4.92z M21.359,7.5c-0.12,0-0.18,0.06-0.3,0.12l0,0L20.039,8.7
	c-0.42,0.36,0.181,0.96,0.54,0.54L21.6,8.16C21.839,7.92,21.72,7.5,21.359,7.5L21.359,7.5z M8.64,7.56c-0.3,0-0.48,0.36-0.24,0.6
	l1.02,1.08c0.36,0.36,0.96-0.18,0.54-0.54L8.88,7.62C8.82,7.56,8.76,7.56,8.64,7.56L8.64,7.56z M14.999,7.86
	c-7.079,0-8.879,9.84-2.22,12.36v3.42c0,0.181,0.12,0.36,0.36,0.36h0.36v0.72c0,0.24,0.18,0.42,0.36,0.42h2.28
	c0.18,0,0.359-0.18,0.359-0.42V24h0.36c0.24,0,0.36-0.18,0.36-0.36v-3.42C23.879,17.701,22.079,7.86,14.999,7.86L14.999,7.86z
	 M14.879,8.64L14.879,8.64L14.879,8.64c6.42-0.18,8.04,8.94,1.86,10.92c-0.119,0.061-0.24,0.24-0.24,0.36v0.72h-3v-0.72
	c0-0.12-0.12-0.3-0.24-0.36C7.26,17.64,8.58,8.76,14.879,8.64L14.879,8.64z M14.999,9.78c-2.459,0-4.5,1.98-4.5,4.5
	c0,0.48,0.78,0.48,0.78,0c0-2.1,1.68-3.78,3.719-3.78C15.479,10.5,15.479,9.78,14.999,9.78L14.999,9.78z M6,13.86
	c-0.48,0-0.48,0.78,0,0.78h1.5c0.54,0,0.54-0.78,0-0.78H6z M22.499,13.86c-0.54,0-0.54,0.78,0,0.78h1.5c0.48,0,0.48-0.78,0-0.78
	H22.499z M9.72,19.14c-0.12,0-0.18,0.061-0.3,0.12l0,0l-1.02,1.08c-0.36,0.36,0.18,0.9,0.48,0.54l1.08-1.08
	C10.2,19.56,10.08,19.14,9.72,19.14L9.72,19.14z M20.279,19.14c-0.36,0.061-0.479,0.42-0.24,0.66l1.021,1.08
	c0.359,0.36,0.899-0.18,0.54-0.54l-1.021-1.08C20.459,19.201,20.339,19.14,20.279,19.14L20.279,19.14z M13.5,21.361h3v1.859H16.14
	c-0.24,0-0.42,0.18-0.42,0.42v0.721h-1.5V23.64c0-0.24-0.12-0.42-0.36-0.42H13.5V21.361z"/>
</svg>
