<svg id="Group_314" data-name="Group 314" xmlns="http://www.w3.org/2000/svg" viewBox="0 0 18 17.664">
  <defs>
    <style>
      .cls-1 {
        fill: #585858;
      }
    </style>
  </defs>
  <path id="Path_114" data-name="Path 114" class="cls-1" d="M23.043,114.3H6.326a.629.629,0,0,0-.626.626.64.64,0,0,0,.626.626H23.058a.629.629,0,0,0,.626-.626A.643.643,0,0,0,23.043,114.3Z" transform="translate(-5.685 -97.889)"/>
  <path id="Path_115" data-name="Path 115" class="cls-1" d="M5.615,17.764,5.6,20.744a.647.647,0,0,0,.183.458.612.612,0,0,0,.443.183l2.964-.015a.612.612,0,0,0,.443-.183L19.872,10.949a.646.646,0,0,0,0-.9L16.938,7.083a.646.646,0,0,0-.9,0L13.989,9.146,5.8,17.321A.681.681,0,0,0,5.615,17.764ZM16.495,8.428l2.063,2.063L17.4,11.652,15.333,9.589l1.161-1.161ZM6.884,18.039l7.548-7.548,2.063,2.063L8.946,20.087,6.868,20.1l.015-2.063Z" transform="translate(-5.6 -6.9)"/>
</svg>
