<svg xmlns="http://www.w3.org/2000/svg" viewBox="0 0 30 22.831"><defs><style>.a{fill:#585858;}</style></defs><g transform="translate(0 -57.75)"><g transform="translate(0 57.75)"><path class="a" d="M26.338,57.75H3.669A3.672,3.672,0,0,0,0,61.419V76.912a3.672,3.672,0,0,0,3.669,3.669H26.331A3.672,3.672,0,0,0,30,76.912V61.425A3.668,3.668,0,0,0,26.338,57.75ZM28.33,76.912A2,2,0,0,1,26.338,78.9H3.669a2,2,0,0,1-1.993-1.993V61.425a2,2,0,0,1,1.993-1.993H26.331a2,2,0,0,1,1.993,1.993V76.912Z" transform="translate(0 -57.75)"/><path class="a" d="M71.212,116.95l7.337-6.58a.839.839,0,1,0-1.124-1.248L67.307,118.2l-1.974-1.763c-.006-.006-.012-.012-.012-.019a1.241,1.241,0,0,0-.137-.118l-8.032-7.188a.84.84,0,1,0-1.117,1.254l7.424,6.636-7.393,6.921a.841.841,0,0,0-.037,1.186.857.857,0,0,0,.615.267.84.84,0,0,0,.571-.223l7.5-7.02,2.036,1.819a.836.836,0,0,0,1.117-.006l2.092-1.875,7.461,7.089a.84.84,0,0,0,1.186-.031.841.841,0,0,0-.031-1.186Z" transform="translate(-52.292 -105.727)"/></g></g></svg>