<svg xmlns="http://www.w3.org/2000/svg" viewBox="0 0 20 15"><defs><style>.a{fill:#41479b;}.b{fill:#f5f5f5;}.c{fill:#e2000d;}.d{fill:#ff4b55;}</style></defs><path class="a" d="M19.655,15H.345A.372.372,0,0,1,0,14.605V.395A.372.372,0,0,1,.345,0h19.31A.372.372,0,0,1,20,.395v14.21A.373.373,0,0,1,19.655,15Z"/><path class="b" d="M20,.395A.372.372,0,0,0,19.655,0H18.112L11.724,4.791V0H8.276V4.791L1.888,0H.345A.372.372,0,0,0,0,.395V1.416L5.481,5.526H0V9.474H5.481L0,13.584v1.021A.372.372,0,0,0,.345,15H1.888l6.388-4.791V15h3.448V10.209L18.112,15h1.543A.372.372,0,0,0,20,14.605V13.584L14.519,9.474H20V5.526H14.519L20,1.416Z"/><path class="c" d="M20,6.316H11.034V0H8.965V6.316H0V8.684H8.965V15h2.069V8.684H20Z"/><path class="d" d="M6.98,0,0,5.187a.36.36,0,0,0,.335.339H.81L8.247,0H6.98Z" transform="translate(0.01 9.474)"/><path class="d" d="M1.267,0H0L7.426,5.518a.374.374,0,0,0,.31-.387V4.807Z" transform="translate(12.264 9.474)"/><path class="d" d="M0,.792l6.319,4.7H7.586L.2,0A.4.4,0,0,0,0,.356Z" transform="translate(0 0.039)"/><path class="d" d="M1.267,5.526l7-5.2A.358.358,0,0,0,7.931,0H7.437L0,5.526Z" transform="translate(11.724)"/></svg>