<svg xmlns="http://www.w3.org/2000/svg" viewBox="0 0 12.482 15.456"><defs><style>.a{opacity:0.3;}.b{fill:#161616;}</style></defs><g class="a" transform="translate(-76)"><g transform="translate(80.161 4.161)"><path class="b" d="M198.08,120a2.08,2.08,0,1,0,2.08,2.08A2.082,2.082,0,0,0,198.08,120Z" transform="translate(-196 -120)"/></g><g transform="translate(76)"><g transform="translate(0)"><path class="b" d="M82.241,0a6.243,6.243,0,0,0-5.31,9.523l4.955,5.687a.52.52,0,0,0,.889-.007L87.6,9.439A6.243,6.243,0,0,0,82.241,0Zm0,9.369a3.128,3.128,0,1,1,3.128-3.128A3.129,3.129,0,0,1,82.241,9.369Z" transform="translate(-76)"/></g></g></g></svg>