<svg xmlns="http://www.w3.org/2000/svg" viewBox="0 0 44 40"><defs><style>.a{fill:#585858;}</style></defs><g transform="translate(0 -20.113)"><g transform="translate(0 20.113)"><path class="a" d="M38.088,25.972a20.3,20.3,0,0,0-28.716.179,1.079,1.079,0,0,0,.018,1.525,1.1,1.1,0,0,0,1.539-.018A17.81,17.81,0,1,1,5.814,40.113v-.224l1.793,1.777a1.1,1.1,0,0,0,.77.314,1.111,1.111,0,0,0,.77-.314,1.071,1.071,0,0,0,0-1.525L5.507,36.524a1.094,1.094,0,0,0-1.539,0L.319,40.14a1.071,1.071,0,0,0,0,1.525,1.094,1.094,0,0,0,1.539,0l1.793-1.777v.224A19.784,19.784,0,0,0,9.562,54.254a20.3,20.3,0,0,0,28.535,0,19.879,19.879,0,0,0-.009-28.282Z" transform="translate(0 -20.113)"/><path class="a" d="M189.663,158.693l-13.344,13.217a1.071,1.071,0,0,0,0,1.525,1.1,1.1,0,0,0,.77.314,1.111,1.111,0,0,0,.77-.314L191.2,160.209a1.071,1.071,0,0,0,0-1.525A1.1,1.1,0,0,0,189.663,158.693Z" transform="translate(-160.067 -145.97)"/><path class="a" d="M276.934,249.644a3.837,3.837,0,0,0,0,5.446,3.915,3.915,0,0,0,5.5,0,3.837,3.837,0,0,0,0-5.446,3.915,3.915,0,0,0-5.5,0Zm3.965,3.93a1.7,1.7,0,0,1-1.213.494,1.735,1.735,0,0,1-1.213-.494,1.7,1.7,0,0,1,1.213-2.9,1.735,1.735,0,0,1,1.213.494A1.69,1.69,0,0,1,280.9,253.574Z" transform="translate(-250.832 -228.02)"/><path class="a" d="M168.818,151.213a3.887,3.887,0,0,0-2.752,1.131,3.832,3.832,0,0,0,0,5.455,3.915,3.915,0,0,0,5.5,0,3.832,3.832,0,0,0,0-5.455A3.9,3.9,0,0,0,168.818,151.213Zm1.213,5.061a1.7,1.7,0,0,1-1.213.494,1.736,1.736,0,0,1-1.213-.494,1.667,1.667,0,0,1-.5-1.2,1.693,1.693,0,0,1,1.711-1.7,1.736,1.736,0,0,1,1.213.493,1.7,1.7,0,0,1,0,2.4Z" transform="translate(-149.994 -139.45)"/></g></g></svg>