<svg xmlns="http://www.w3.org/2000/svg" viewBox="0 0 20 20.001">
  <defs>
    <style>
      .cls-1 {
        fill: #d4d4d4;
      }
    </style>
  </defs>
  <g id="telephone-handle-silhouette" transform="translate(-0.01)">
    <path id="Path_109" data-name="Path 109" class="cls-1" d="M19.967,15.5q-.085-.256-1.08-.753-.269-.157-.767-.426t-.9-.5q-.405-.227-.76-.44-.057-.043-.355-.249a3.993,3.993,0,0,0-.5-.305.93.93,0,0,0-.4-.1,1.179,1.179,0,0,0-.71.4,6.917,6.917,0,0,0-.781.881,8.564,8.564,0,0,1-.753.881,1.083,1.083,0,0,1-.654.4.966.966,0,0,1-.32-.071c-.128-.047-.225-.088-.291-.121s-.179-.1-.341-.2-.251-.154-.27-.163a14.928,14.928,0,0,1-3.338-2.472A14.92,14.92,0,0,1,5.266,8.935q-.014-.028-.163-.27t-.2-.341a3.079,3.079,0,0,1-.121-.291.961.961,0,0,1-.071-.32,1.083,1.083,0,0,1,.4-.653A8.555,8.555,0,0,1,6,6.307a6.913,6.913,0,0,0,.881-.781,1.179,1.179,0,0,0,.4-.71.928.928,0,0,0-.1-.4,3.949,3.949,0,0,0-.305-.5q-.206-.3-.249-.355-.213-.355-.44-.76t-.5-.9q-.27-.5-.426-.767Q4.769.128,4.513.043A.8.8,0,0,0,4.215,0a4.68,4.68,0,0,0-1,.142,5.625,5.625,0,0,0-.973.3A3.808,3.808,0,0,0,.734,2.173,5.507,5.507,0,0,0,.01,4.815a5.486,5.486,0,0,0,.05.746,6.129,6.129,0,0,0,.178.817q.128.455.206.675t.291.788q.213.568.256.7a12.867,12.867,0,0,0,1.179,2.486A21.062,21.062,0,0,0,5.23,14.78a21.072,21.072,0,0,0,3.757,3.061,12.886,12.886,0,0,0,2.486,1.179q.128.042.7.256t.788.291q.22.078.675.206a6.183,6.183,0,0,0,.817.178,5.269,5.269,0,0,0,3.388-.675,3.806,3.806,0,0,0,1.733-1.506,5.594,5.594,0,0,0,.3-.973,4.67,4.67,0,0,0,.142-1A.792.792,0,0,0,19.967,15.5Z"/>
  </g>
</svg>
