<?xml version="1.0" encoding="utf-8"?>
<!-- Generator: Adobe Illustrator 19.2.1, SVG Export Plug-In . SVG Version: 6.00 Build 0)  -->
<svg version="1.1" id="Слой_1" xmlns="http://www.w3.org/2000/svg" xmlns:xlink="http://www.w3.org/1999/xlink" x="0px" y="0px"
	 viewBox="0 0 24 22" style="enable-background:new 0 0 24 22;" xml:space="preserve">
<title>BE60D633-CF1F-4E3B-A28E-DBE8F3E9DA4C</title>
<desc>Created with sketchtool.</desc>
<g id="Final-Design">
	<g id="_x30_.-Style" transform="translate(-822.000000, -1620.000000)">
		<g id="Icon_x2F_Medicine_x2F_i_x5F_cardiology" transform="translate(822.000000, 1619.000000)">
			<path fill="#00b9cd" id="Stroke-1" d="M14.1,4.1c1.9-1.9,4.9-1.9,6.7,0c1.9,1.9,1.9,4.9,0,6.7c-0.3,0.3-0.3,0.8,0,1.1c0.3,0.3,0.8,0.3,1.1,0
				c2.4-2.4,2.4-6.4,0-8.8c-2.4-2.4-6.4-2.4-8.8,0c-0.3,0.3-0.3,0.8,0,1.1C13.4,4.4,13.8,4.4,14.1,4.1z"/>
			<path fill="#00b9cd" id="Stroke-3" d="M10.9,3.1c-2.4-2.4-6.4-2.4-8.8,0c-2.4,2.4-2.4,6.4,0,8.8c0.3,0.3,0.8,0.3,1.1,0s0.3-0.8,0-1.1
				C1.3,9,1.3,6,3.1,4.1C5,2.3,8,2.3,9.9,4.1c0.3,0.3,0.8,0.3,1.1,0C11.2,3.8,11.2,3.4,10.9,3.1z"/>
			<path fill="#00b9cd" id="Stroke-5" d="M10.9,3c-0.3-0.3-0.8-0.2-1.1,0.1C9.6,3.4,9.6,3.9,9.9,4.2l1.6,1.4c0.3,0.2,0.7,0.2,1,0l1.6-1.4
				c0.3-0.3,0.3-0.7,0.1-1.1c-0.3-0.3-0.7-0.3-1.1-0.1L12,4L10.9,3z"/>
			<path fill="#00b9cd" id="Stroke-7" d="M1,13.3c-0.4,0-0.8,0.3-0.8,0.8s0.3,0.8,0.8,0.8h7.3c0.3,0,0.5-0.1,0.7-0.4l2.2-4c0.2-0.4,0.1-0.8-0.3-1
				c-0.4-0.2-0.8-0.1-1,0.3l-2,3.6H1z"/>
			<path fill="#00b9cd" id="Stroke-9" d="M14.9,14.8H23c0.4,0,0.8-0.3,0.8-0.8s-0.3-0.8-0.8-0.8h-8.1c-0.4,0-0.8,0.3-0.8,0.8S14.5,14.8,14.9,14.8z"
				/>
			<path fill="#00b9cd" id="Stroke-11" d="M13.4,15.7l-2.2-6c-0.1-0.4-0.6-0.6-1-0.4c-0.4,0.1-0.6,0.6-0.4,1l2.2,6c0.1,0.4,0.6,0.6,1,0.4
				C13.4,16.6,13.6,16.1,13.4,15.7z"/>
			<path fill="#00b9cd" id="Stroke-13" d="M13.2,16.6l2.2-2c0.3-0.3,0.3-0.8,0.1-1.1c-0.3-0.3-0.8-0.3-1.1-0.1l-2.2,2c-0.3,0.3-0.3,0.8-0.1,1.1
				C12.5,16.8,12.9,16.8,13.2,16.6z"/>
			<path fill="#00b9cd" id="Stroke-15" d="M15.9,17.5l-3.4,3.6c-0.2,0.2-0.7,0.2-0.9,0l-3.4-3.6c-0.3-0.3-0.8-0.3-1.1,0c-0.3,0.3-0.3,0.8,0,1.1
				l3.4,3.6c0.9,0.8,2.2,0.8,3.1,0l3.4-3.6c0.3-0.3,0.3-0.8,0-1.1S16.1,17.2,15.9,17.5z"/>
		</g>
	</g>
</g>
</svg>
