<?xml version="1.0" encoding="utf-8"?>
<!-- Generator: Adobe Illustrator 19.2.1, SVG Export Plug-In . SVG Version: 6.00 Build 0)  -->
<svg version="1.1" id="Слой_1" xmlns="http://www.w3.org/2000/svg" xmlns:xlink="http://www.w3.org/1999/xlink" x="0px" y="0px"
	 viewBox="0 0 14.1 16" style="enable-background:new 0 0 14.1 16;" xml:space="preserve">
<title>6AE068D2-CC5E-47F2-AB9D-94C49B158BDE</title>
<desc>Created with sketchtool.</desc>
<g id="Final-Design">
	<g id="_x30_.-Style" transform="translate(-679.000000, -1335.000000)">
		<g id="Icon_x2F_General_x2F_i_x5F_enter" transform="translate(678.000000, 1335.000000)">
			<path id="Combined-Shape" d="M9.3,8H1.5C1.2,8,1,7.8,1,7.5S1.2,7,1.5,7h7.8L7,5.1C6.7,4.8,6.7,4.4,6.9,4.1C7.2,3.7,7.7,3.7,8,4
				l3.5,3c0.3,0.3,0.3,0.8,0,1.1l-3.5,3c-0.3,0.3-0.8,0.2-1.1-0.1C6.7,10.7,6.7,10.2,7,10L9.3,8z M5,4.4l0-3.1C5,1.1,5.1,1,5.2,1
				L13.7,1C13.9,1,14,1.2,14,1.3l0.1,13.5c0,0.1-0.1,0.2-0.2,0.2L5.3,15c-0.1,0-0.2-0.1-0.2-0.2L5,11.6c0-0.3-0.2-0.5-0.5-0.5
				c-0.3,0-0.5,0.2-0.5,0.5l0.1,3.1c0,0.7,0.6,1.2,1.2,1.2l8.5,0.1c0.7,0,1.2-0.5,1.2-1.2L15,1.3c0-0.7-0.6-1.2-1.2-1.2L5.3,0
				C4.6,0,4,0.5,4,1.2l0,3.1c0,0.3,0.2,0.5,0.5,0.5C4.8,4.9,5,4.6,5,4.4z"/>
		</g>
	</g>
</g>
</svg>
