<?xml version="1.0" encoding="UTF-8"?>
<svg width="38px" height="29px" viewBox="0 0 38 29" version="1.1" xmlns="http://www.w3.org/2000/svg" xmlns:xlink="http://www.w3.org/1999/xlink">
    <!-- Generator: sketchtool 41.2 (35397) - http://www.bohemiancoding.com/sketch -->
    <title>979E5275-55D1-48B5-BC39-1FF58E671A6B</title>
    <desc>Created with sketchtool.</desc>
    <defs></defs>
    <g id="Final-Design" stroke="none" stroke-width="1" fill="none" fill-rule="evenodd">
        <g id="0.-Style" transform="translate(-790.000000, -1553.000000)" fill="#00B9CD">
            <g id="Icon/Service/i_ward" transform="translate(789.000000, 1548.000000)">
                <path d="M35,25 L34.5,25 L35,18 L35,24 L39,24 L39,24.5 L39,25 L35,25 L34.75,25 L2,25 L2,28 L38,28 L38,25 L35,25 L35,24 L34,24 L34,25 L34.5,25 L4.00228533,25 C3.26026647,25 2.61251963,24.6008304 2.26662333,24 L34,24 L34,18 L34.75,25 Z M34,18 L34,5 L39,5 L39,24.5 L39,29 L34.0028974,29 L33.9927968,34.0010099 L32.9927989,33.9989901 L33.0028954,29 L7.00289742,29 L6.99279683,34.0010099 L5.99279887,33.9989901 L6.00289538,29 L1,29 L1,24 L2.26662333,24 C2.09702994,23.7054121 2,23.3623459 2,22.9940809 L2,20.0059191 C2,18.8980806 2.89978493,18 4.00228533,18 L34,18 Z M35,24 L38,24 L38,6 L35,6 L35,24 Z M6.00289538,29 L6.00390727,28.4989901 L7.00390523,28.5010099 L7.00289742,29 L6.00289538,29 Z M33.0028954,29 L33.0039073,28.4989901 L34.0039052,28.5010099 L34.0028974,29 L33.0028954,29 Z M39,24 L38,25 L38,24 L39,24 Z M34,19 L4.00228533,19 C3.45106799,19 3,19.4513679 3,20.0059191 L3,22.9940809 C3,23.5566948 3.44426538,24 4.00228533,24 L34,24 L34,19 Z" id="Combined-Shape"></path>
            </g>
        </g>
    </g>
</svg>