<?xml version="1.0" encoding="utf-8"?>
<!-- Generator: Adobe Illustrator 19.2.1, SVG Export Plug-In . SVG Version: 6.00 Build 0)  -->
<svg version="1.1" id="Слой_1" xmlns="http://www.w3.org/2000/svg" xmlns:xlink="http://www.w3.org/1999/xlink" x="0px" y="0px"
	 viewBox="0 0 24 23" style="enable-background:new 0 0 24 23;" xml:space="preserve">
<title>2E22CB5F-A009-4A51-A708-F1546046A72D</title>
<desc>Created with sketchtool.</desc>
<g id="Final-Design">
	<g id="_x30_.-Style" transform="translate(-862.000000, -1619.000000)">
		<g id="Icon_x2F_Medicine_x2F_i_x5F_oncology" transform="translate(862.000000, 1619.000000)">
			<path fill="#00b9cd" id="Path-24" d="M11.6,3.3c0.1,0.7,0.1,0.7,0.1,1c0.3,1.7,0.8,2.8,2.2,3.1c0.7,0.2,1.4,0.1,2.2-0.3c0.6-0.3,1.3-0.7,2.1-1.3
				c0.2-0.1,0.8-0.6,0.9-0.7c0,0,0.1-0.1,0.1-0.1c0,0-0.1,0.1-0.1,0.1C19,5.4,18.6,6,18.5,6.1c-0.5,0.7-0.9,1.2-1.1,1.7
				c-0.4,0.8-0.6,1.6-0.4,2.3c0.2,1.2,1.2,1.9,2.8,2.6c0.2,0.1,1,0.4,1.1,0.4c0.3,0.1,0.5,0.2,0.7,0.3c-0.2,0-0.7,0.1-1.6,0.2
				c-0.3,0-0.4,0-0.6,0c-1.8,0.1-2.8,0.4-3.4,1.3c-0.5,0.9-0.2,1.8,0.6,2.9c0.1,0.1,0.2,0.3,0.4,0.5c0.6,0.7,0.8,0.9,0.9,1.2
				c0.1,0.2,0.1,0.2-0.1,0.3C17.6,20,17.6,20,17.6,20c-0.2,0,0.2,0.3-1.7-1.4c-1.4-1.3-2.7-1.9-4.3-1.7c-1.6,0.2-2.9,0.9-4.5,2.3
				c-1.1,1-1.7,1.5-1.9,1.8c0.1-0.3,0.1-0.2,0.9-1.7c0.2-0.4,0.4-0.7,0.5-1.1C7.1,17,7.3,16.1,7,15.2C6.7,14,5.8,13.5,4.1,13
				C4,13,3.9,13,3.6,12.9c-1.2-0.4-1.5-0.5-1.5-0.8c0-0.2,0.1-0.2,1.2-0.1c0.1,0,0.1,0,0.2,0c1.7,0.2,2.7-0.1,3-1.5
				c0.3-1.2-0.2-2.1-1.6-3.7c-1.2-1.4-1.4-1.8-1.2-2c0,0,0,0,0.2,0.1c0.3,0.2,0.4,0.3,1.5,1.2c0.6,0.6,1,0.9,1.5,1.2
				c0.8,0.5,1.6,0.7,2.3,0.5c1.2-0.4,1.7-1.4,2.1-3.3c0-0.2,0.1-0.3,0.1-0.5c0-0.1,0.1-0.4,0.1-0.5c0-0.2,0.1-0.3,0.1-0.5
				C11.6,3.2,11.6,3.3,11.6,3.3z M5,10.2c-0.1,0.4-0.3,0.5-1.3,0.3c-0.1,0-0.1,0-0.2,0c-1.8-0.2-2.6,0-2.8,1.4
				c-0.2,1.4,0.6,1.9,2.6,2.5c0.2,0.1,0.4,0.1,0.5,0.1c1.2,0.4,1.8,0.7,1.9,1.1c0.1,0.4,0,1.1-0.4,2c-0.1,0.3-0.3,0.6-0.5,1
				c-0.1,0.1-0.1,0.2-0.3,0.5c-0.1,0.2-0.2,0.3-0.3,0.5c-0.2,0.4-0.3,0.7-0.4,0.9c-0.3,0.9-0.3,1.6,0.4,2c0.7,0.4,1.3,0.2,2.1-0.5
				c0.3-0.3,1.6-1.5,1.8-1.7c1.3-1.2,2.4-1.8,3.6-1.9c1.2-0.1,2.1,0.3,3.2,1.4c0,0,0.9,0.9,1.2,1.1c0.5,0.4,0.9,0.7,1.4,0.7
				c0.4,0,0.8-0.1,1.2-0.4c0.7-0.6,0.8-1.3,0.5-2.1c-0.2-0.5-0.4-0.8-1.1-1.6c-0.2-0.2-0.3-0.3-0.4-0.5c-0.5-0.7-0.6-1-0.5-1.2
				c0.2-0.3,0.9-0.5,2.2-0.6c0.2,0,0.2,0,0.6,0c2.2-0.1,2.9-0.3,3.1-1.4c0.2-1-0.4-1.5-1.7-2c-0.2-0.1-0.9-0.4-1.1-0.4
				c-1.2-0.5-1.8-0.9-1.9-1.5c-0.1-0.3,0-0.8,0.3-1.3c0.2-0.4,0.5-0.9,1-1.5c0.1-0.2,0.6-0.7,0.6-0.9c0.2-0.3,0.4-0.6,0.6-0.8
				c0.5-0.8,0.6-1.4,0-2c-0.6-0.5-1.2-0.4-2,0.1c-0.2,0.1-0.5,0.3-0.8,0.6c-0.1,0.1-0.7,0.5-0.9,0.7c-0.7,0.5-1.3,0.9-1.8,1.1
				C15,6,14.6,6.1,14.3,6c-0.6-0.1-0.9-0.7-1.1-1.9c0-0.3,0-0.3-0.1-1c-0.2-1.7-0.4-2.3-1.5-2.3c-1,0.1-1.2,0.7-1.6,2.4
				c0,0.1-0.1,0.4-0.1,0.5c0,0.2-0.1,0.3-0.1,0.5c-0.3,1.3-0.6,2-1.1,2.2c-0.2,0.1-0.6,0-1.1-0.3C7.3,5.9,7,5.6,6.4,5.1
				C5.2,4,5.1,4,4.7,3.7C3.9,3.2,3.1,3.2,2.5,3.9C1.6,5,2,5.7,3.8,7.8C4.8,9,5.1,9.6,5,10.2z"/>
			<polygon fill="#00b9cd" id="Path-25" points="8.4,11.5 10.6,14.2 11.8,13.3 9.6,10.5 			"/>
			<polygon fill="#00b9cd" id="Path-25-Copy" points="11.4,9.5 13.6,12.2 14.8,11.3 12.6,8.5 			"/>
		</g>
	</g>
</g>
</svg>
