<?xml version="1.0" encoding="utf-8"?>
<!-- Generator: Adobe Illustrator 19.2.1, SVG Export Plug-In . SVG Version: 6.00 Build 0)  -->
<svg version="1.1" id="Слой_1" xmlns="http://www.w3.org/2000/svg" xmlns:xlink="http://www.w3.org/1999/xlink" x="0px" y="0px"
	 viewBox="0 0 24 26" style="enable-background:new 0 0 24 26;" xml:space="preserve">
<title>BE6641BB-E157-4FF1-9813-6606EAFD2BDB</title>
<desc>Created with sketchtool.</desc>
<g id="Final-Design">
	<g id="_x30_.-Style" transform="translate(-861.000000, -1661.000000)">
		<g id="Icon_x2F_Medicine_x2F_i_x5F_hip" transform="translate(861.000000, 1662.000000)">
			<path fill="#00b9cd" id="Path-37" d="M10.1,13.1c1.2,0.3,1.9,0.9,2.1,2c0.2,1.3-0.3,2.2-1.3,2.8c-0.3,0.2-0.7,0.3-1,0.5
				c-0.2,0.1-0.4,0.1-0.4,0.1l-0.3,0.1L9,18.8c-0.1,0.2-0.3,0.4-0.5,0.8c-0.3,0.6-0.5,1.2-0.5,1.8c0,1.2,0.8,2.1,2.2,2.6l0.4-1.4
				c-0.9-0.3-1.2-0.6-1.2-1.2c0-0.3,0.1-0.7,0.3-1.2C9.9,20.1,10,20,10,19.9c0.5-0.1,1-0.3,1.6-0.7c1.5-0.9,2.3-2.4,2-4.3
				c-0.3-1.8-1.5-2.8-3.3-3.2c-0.9-0.2-1.8-0.2-2.7-0.1c-0.2,0-0.3,0-0.4,0l-0.5,0.1l-0.1,0.5c0,0.2-0.1,0.4-0.4,0.7
				c-0.5,0.5-1.3,0.9-2.6,0.9c-1.9,0-3.3,0.9-3.7,2.1c-0.4,1.4,0.6,2.6,2.4,2.7c0.8,0.1,1.6,1,2.2,2.5c0.2,0.6,0.4,1.3,0.6,2
				c0.1,0.4,0.1,0.7,0.2,0.9l1.5-0.2c0-0.1,0-0.2,0-0.3c0-0.2-0.1-0.5-0.1-0.7c-0.2-0.7-0.4-1.5-0.6-2.2c-0.8-2-1.9-3.4-3.4-3.5
				c-0.9-0.1-1.1-0.4-1-0.8c0.2-0.6,1-1.1,2.2-1.1c1.7,0,2.9-0.5,3.7-1.4c0.3-0.3,0.5-0.7,0.6-1C8.7,13,9.4,13,10.1,13.1z"/>
			<path fill="#00b9cd" id="Path-39" d="M6.4,0.6L4.9,0.9l2,9l0.5,0.1c0.1,0,0.2,0,0.3,0c0.3,0,0.6,0.1,0.9,0.1c1,0.2,1.9,0.4,2.8,0.6
				c2.3,0.6,3.7,1.4,3.7,2.1c0,2.7-0.6,5.3-1.3,5.8c-0.9,0.7-1.1,2.1-0.4,3.1c0.8,1.2,2.5,1.8,5,1.5c2-0.2,3.1-0.6,3.9-1.2
				c0.1-0.1,0.3-0.2,0.4-0.4c0.1-0.1,0.2-0.3,0.2-0.3c0.2-0.3,0.4-0.3,1-0.3v-1.5c-1,0-1.6,0.2-2.1,0.8c-0.4,0.5-0.3,0.4-0.4,0.5
				c-0.5,0.4-1.4,0.7-3.1,0.9c-2,0.2-3.2-0.1-3.6-0.8c-0.3-0.4-0.2-1,0.1-1.2c1.2-0.9,1.9-3.9,1.9-7c0-1.7-1.8-2.8-4.8-3.6
				C11,9,10,8.8,9,8.6c-0.3,0-0.6-0.1-0.8-0.1L6.4,0.6z"/>
			<path fill="#00b9cd" id="Path-41" d="M16.3,0c0,0.4,0,0.9,0.1,1.6c0.1,1,0.4,2.1,0.7,3c1.2,3,3.4,4.8,6.9,4.8V7.9c-2.8,0-4.5-1.4-5.5-3.9
				c-0.3-0.8-0.5-1.7-0.7-2.7c-0.1-0.6-0.1-1.1-0.1-1.4L16.3,0z"/>
			<path fill="#00b9cd" id="Oval-13" d="M19.2,17.4c-0.2-0.5,0.2-1.3,1-1.7c0.8-0.4,1.7-0.2,2,0.3c0.2,0.5-0.2,1.3-1,1.7
				C20.3,18.1,19.4,17.9,19.2,17.4z M23.5,15.4c-0.6-1.4-2.4-1.8-3.9-1.1C18,15,17.2,16.7,17.8,18c0.6,1.4,2.4,1.8,3.9,1.1
				C23.3,18.4,24.1,16.7,23.5,15.4z"/>
		</g>
	</g>
</g>
</svg>
