<?xml version="1.0" encoding="utf-8"?>
<!-- Generator: Adobe Illustrator 19.2.1, SVG Export Plug-In . SVG Version: 6.00 Build 0)  -->
<svg version="1.1" id="Слой_1" xmlns="http://www.w3.org/2000/svg" xmlns:xlink="http://www.w3.org/1999/xlink" x="0px" y="0px"
	 viewBox="0 0 24 22" style="enable-background:new 0 0 24 22;" xml:space="preserve">
<title>E32BEB5F-5DFB-441C-A978-21EFCA5E8F2A</title>
<desc>Created with sketchtool.</desc>
<g id="Final-Design">
	<g id="_x30_.-Style" transform="translate(-1020.000000, -1621.000000)">
		<g id="Icon_x2F_Medicine_x2F_i_x5F_neurosurgery" transform="translate(1020.000000, 1619.000000)">
			<path fill="#00b9cd" id="Stroke-1" d="M18.2,7.4c0-0.7-0.3-1.6-1-2.5c-1-1.4-2.6-2.3-4.8-2.5c-2.3,0-3.3,0.5-4.4,1.9c0,0.1,0,0.1-0.1,0.1
				C7.9,4.6,7.8,4.7,7.7,4.8l1.1,1C9,5.7,9.1,5.5,9.3,5.3c0-0.1,0-0.1,0.1-0.1c0.8-1,1.3-1.3,3.1-1.3c1.7,0.1,2.9,0.8,3.6,1.8
				c0.3,0.4,0.5,0.8,0.6,1.3c0.1,0.3,0.1,0.4,0.1,0.5L18.2,7.4z"/>
			<path fill="#00b9cd" id="Stroke-3" d="M4.9,15.5C4.4,15.4,4,15.2,3.6,15c-1.1-0.6-1.7-1.3-1.7-2.3c0-1.1,0.4-1.9,1.2-2.6C3.4,9.9,3.7,9.7,4,9.6
				c0.2-0.1,0.3-0.1,0.4-0.2L5,9.2L4.9,8.5c0,0,0,0,0-0.1C4.8,8,4.8,7.4,5.1,6.9C5.3,6.6,5.5,6.3,5.8,6C6,5.9,6.4,5.8,7.1,5.8
				c0.4,0,0.9,0,1.4,0.1c0.3,0,0.4,0.1,0.5,0.1l0.3-1.5c-0.1,0-0.4-0.1-0.6-0.1C8.1,4.3,7.6,4.3,7,4.3c-0.9,0-1.7,0.2-2.2,0.6
				C4.4,5.2,4,5.7,3.8,6.2c-0.3,0.7-0.5,1.4-0.5,2C3,8.4,2.6,8.6,2.2,9c-1.1,0.9-1.8,2.1-1.8,3.7c0,1.7,1,2.9,2.5,3.7
				c0.5,0.3,1,0.5,1.6,0.6c0.3,0.1,0.6,0.1,0.7,0.2l0.1,0h12.5c3.8,0,7.5-3.9,5.1-7.9C22.1,8,21.2,7.2,20,6.9
				c-1.2-0.3-2.5-0.1-3.7,0.4c-0.5,0.2-0.8,0.4-1,0.5L16.1,9c0.1-0.1,0.4-0.2,0.8-0.4c0.9-0.4,1.9-0.5,2.7-0.3
				c0.8,0.2,1.5,0.7,2,1.7c1.7,2.8-1,5.6-3.8,5.6H5.4C5.3,15.6,5.1,15.6,4.9,15.5z"/>
			<path fill="#00b9cd" id="Stroke-5" d="M15.8,22.2c0-0.1,0.1-0.2,0.1-0.3c0.2-0.7,0.1-1.4-0.4-2.1c-0.2-0.3-0.5-0.5-0.9-0.8
				c-0.4-0.2-0.6-0.6-0.8-1.1c-0.1-0.3-0.2-0.7-0.3-1.1c0-0.2,0-0.4,0-0.5H12c0,0.5,0.1,1.3,0.4,2.1c0.3,0.8,0.8,1.5,1.4,1.9
				c0.2,0.1,0.4,0.3,0.5,0.4c0.2,0.3,0.2,0.5,0.2,0.7c0,0,0,0,0,0L15.8,22.2z"/>
			<path fill="#00b9cd" id="Stroke-7" d="M14.2,16.4c0,0.4,0.1,0.9,0.4,1.5c0.4,0.9,1,1.5,1.9,1.6c0.1,0,0.2,0.4,0.1,1.2c0,0.3-0.1,0.7-0.2,1.1
				c-0.1,0.3-0.2,0.6-0.2,0.8l1.4,0.5c0-0.1,0-0.1,0.1-0.3c0.1-0.2,0.1-0.4,0.2-0.6c0.1-0.4,0.2-0.9,0.2-1.3
				c0.1-1.5-0.2-2.6-1.3-2.8c-0.3-0.1-0.6-0.3-0.8-0.8c-0.1-0.2-0.2-0.5-0.2-0.7c0-0.1,0-0.3,0-0.3L14.2,16.4z"/>
			<path fill="#00b9cd" id="Stroke-9" d="M20.5,15.6c0,0,0.1,0.1,0.2,0.3c0.3,0.7,0.3,1.3-0.4,2c-0.2,0.2-0.5,0.4-0.8,0.6c0,0-0.5,0-1.1-0.1
				c-0.2,0-0.4-0.1-0.7-0.1c-0.2,0-0.5-0.1-0.7-0.1c-0.1,0-0.2,0-0.3-0.1l-0.3,1.5c0.1,0,0.2,0,0.3,0.1c0.2,0,0.5,0.1,0.7,0.1
				c0.3,0,0.5,0.1,0.7,0.1c1,0.1,1.6,0.1,2-0.1c0.5-0.3,0.8-0.6,1.1-0.9c1.2-1.2,1.3-2.5,0.7-3.7c-0.1-0.3-0.3-0.5-0.3-0.6
				L20.5,15.6z"/>
			<path fill="#00b9cd" id="Stroke-11" d="M11,5.7c0,0,0.1,0.1,0.3,0.3c0.2,0.3,0.3,0.7,0.4,1.3L13.2,7c-0.1-0.8-0.4-1.4-0.7-1.8
				c-0.3-0.5-0.7-0.8-1-0.9L11,5.7z"/>
			<path fill="#00b9cd" id="Stroke-13" d="M10.4,8.8c0.1-0.1,0.3-0.3,0.6-0.6c1-0.7,2-0.8,3.1,0.1L15,7.2c-1.7-1.4-3.5-1.2-4.9-0.1
				C9.6,7.4,9.3,7.7,9.2,7.9L10.4,8.8z"/>
			<path fill="#00b9cd" id="Stroke-15" d="M3.4,8.9c0.1,0.3,0.2,0.6,0.4,1c0.3,0.5,0.7,0.9,1.2,1l0.5-1.4C5.4,9.5,5.2,9.3,5.1,9.1
				C5,8.9,4.9,8.6,4.9,8.5L3.4,8.9z"/>
			<path fill="#00b9cd" id="Stroke-17" d="M3.5,12.5c0.2,0,0.5,0.1,0.8,0.2c0.3,0.1,0.5,0.3,0.6,0.6l1.4-0.7c-0.3-0.6-0.7-1-1.3-1.3
				C4.5,11.1,3.9,11,3.5,11V12.5z"/>
			<path fill="#00b9cd" id="Stroke-19" d="M5.2,12.4c0-0.1,0.1-0.2,0.3-0.4c0.2-0.3,0.4-0.7,0.7-1c0.4-0.5,0.7-0.9,1.1-1.1c0,0,0.1-0.1,0.1-0.1
				L6.7,8.4c-0.1,0-0.2,0.1-0.3,0.2C5.9,8.9,5.5,9.4,5,10c-0.3,0.4-0.5,0.7-0.8,1.1c-0.1,0.2-0.2,0.4-0.3,0.5L5.2,12.4z"/>
			<path fill="#00b9cd" id="Stroke-21" d="M19.5,9.6c-0.1,0-0.2,0.1-0.3,0.2c-0.2,0.2-0.5,0.3-0.7,0.5c-0.2,0.2-0.4,0.3-0.5,0.4
				c-0.3,0.2-0.4,0.5-0.6,0.7l1.4,0.7c0,0,0.1-0.2,0.2-0.3c0.1-0.1,0.2-0.2,0.4-0.3c0.2-0.1,0.4-0.3,0.6-0.4
				c0.1-0.1,0.2-0.1,0.3-0.2L19.5,9.6z"/>
			<path fill="#00b9cd" id="Stroke-23" d="M16.3,12.5c0,0,0.1-0.1,0.3-0.1c0.4-0.1,0.9-0.1,1.3,0c0.6,0.2,1,0.6,1.3,1.5l1.4-0.4
				c-0.4-1.4-1.2-2.2-2.3-2.5c-0.7-0.2-1.4-0.1-2.1,0C16,11,15.8,11,15.7,11.1L16.3,12.5z"/>
			<path fill="#00b9cd" id="Stroke-1_1_" d="M9,11.8c0.2,0,0.5,0.1,0.8,0.2c0.4,0.2,0.6,0.5,0.7,1.1l1.5-0.2c-0.2-1-0.7-1.7-1.5-2.1
				c-0.6-0.3-1.1-0.4-1.5-0.4V11.8z"/>
			<path fill="#00b9cd" id="Stroke-3_1_" d="M10.7,14.4c0.1-0.2,0.2-0.5,0.5-0.9c0.5-0.7,1.2-1,2.1-0.6l0.5-1.4c-1.6-0.6-2.9-0.1-3.8,1.1
				c-0.4,0.5-0.6,0.9-0.7,1.3L10.7,14.4z"/>
		</g>
	</g>
</g>
</svg>
