<?xml version="1.0" encoding="utf-8"?>
<!-- Generator: Adobe Illustrator 19.2.1, SVG Export Plug-In . SVG Version: 6.00 Build 0)  -->
<svg version="1.1" id="Слой_1" xmlns="http://www.w3.org/2000/svg" xmlns:xlink="http://www.w3.org/1999/xlink" x="0px" y="0px"
	 viewBox="0 0 24 24" style="enable-background:new 0 0 24 24;" xml:space="preserve">
<title>1B4B8477-47C9-467E-BF71-B5217EB42941</title>
<desc>Created with sketchtool.</desc>
<g id="Final-Design">
	<g id="_x30_.-Style" transform="translate(-661.000000, -1659.000000)">
		<g id="Icon_x2F_Medicine_x2F_i_x5F_stem_x5F_cells" transform="translate(661.000000, 1659.000000)">
			<path fill="#00b9cd" id="Oval-11-Copy" d="M4.5,7.5c1.7,0,3-1.3,3-3s-1.3-3-3-3s-3,1.3-3,3S2.8,7.5,4.5,7.5z M4.5,9C2,9,0,7,0,4.5S2,0,4.5,0
				S9,2,9,4.5S7,9,4.5,9z"/>
			<path fill="#00b9cd" id="Oval-11-Copy-2" d="M19.5,7.5c1.7,0,3-1.3,3-3s-1.3-3-3-3s-3,1.3-3,3S17.8,7.5,19.5,7.5z M19.5,9C17,9,15,7,15,4.5
				S17,0,19.5,0S24,2,24,4.5S22,9,19.5,9z"/>
			<path fill="#00b9cd" id="Oval-11" d="M12,22.5c2.5,0,4.5-2,4.5-4.5s-2-4.5-4.5-4.5s-4.5,2-4.5,4.5S9.5,22.5,12,22.5z M12,24c-3.3,0-6-2.7-6-6
				s2.7-6,6-6s6,2.7,6,6S15.3,24,12,24z"/>
			<polygon fill="#00b9cd" id="Path-28" points="3.9,8.7 7.2,14.4 8.5,13.7 5.2,7.9 			"/>
			<polygon fill="#00b9cd" id="Path-28-Copy" points="6.3,7.4 9.7,13.6 11,12.9 7.7,6.6 			"/>
			<polygon fill="#00b9cd" id="Path-28_1_" points="18.8,7.9 15.5,13.7 16.8,14.4 20.1,8.7 			"/>
			<polygon fill="#00b9cd" id="Path-28-Copy_1_" points="16.3,6.6 13,12.9 14.3,13.6 17.7,7.4 			"/>
		</g>
	</g>
</g>
</svg>
