<?xml version="1.0" encoding="utf-8"?>
<!-- Generator: Adobe Illustrator 19.2.1, SVG Export Plug-In . SVG Version: 6.00 Build 0)  -->
<svg version="1.1" id="Слой_1" xmlns="http://www.w3.org/2000/svg" xmlns:xlink="http://www.w3.org/1999/xlink" x="0px" y="0px"
	 viewBox="0 0 46 46" style="enable-background:new 0 0 46 46;" xml:space="preserve">
<title>A6C13AB3-C8B3-4898-AC07-73B0B1ED1D9E</title>
<desc>Created with sketchtool.</desc>
<g id="Final-Design">
	<g id="_x30_.-Style" transform="translate(-622.000000, -1486.000000)">
		<g id="Icon_x2F_General_x2F_i_x5F_badge" transform="translate(622.000000, 1486.000000)">
			<path id="Combined-Shape" d="M23,3.2L29.2,0l3.8,5.8l6.9,0.3l0.3,6.9l5.8,3.8L42.8,23l3.2,6.2l-5.8,3.8l-0.3,6.9l-6.9,0.3
				L29.2,46L23,42.8L16.8,46l-3.8-5.8l-6.9-0.3l-0.3-6.9L0,29.2L3.2,23L0,16.8l5.8-3.8l0.3-6.9l6.9-0.3L16.8,0L23,3.2z M17,19
				c0,1.7-1,3-2,3c-1,0-2-1.3-2-3s1-3,2-3C16,16,17,17.3,17,19z M19,19c0-2.7-1.7-5-4-5c-2.3,0-4,2.3-4,5s1.7,5,4,5
				C17.3,24,19,21.7,19,19z M33,27c0,1.7-1,3-2,3c-1,0-2-1.3-2-3s1-3,2-3C32,24,33,25.3,33,27z M35,27c0-2.7-1.7-5-4-5
				c-2.3,0-4,2.3-4,5s1.7,5,4,5C33.3,32,35,29.7,35,27z M20.9,32.3l6-18c0.2-0.5-0.1-1.1-0.6-1.3c-0.5-0.2-1.1,0.1-1.3,0.6l-6,18
				c-0.2,0.5,0.1,1.1,0.6,1.3C20.2,33.1,20.8,32.8,20.9,32.3z"/>
		</g>
	</g>
</g>
</svg>
