<?xml version="1.0" encoding="utf-8"?>
<!-- Generator: Adobe Illustrator 19.2.1, SVG Export Plug-In . SVG Version: 6.00 Build 0)  -->
<svg version="1.1" id="Слой_1" xmlns="http://www.w3.org/2000/svg" xmlns:xlink="http://www.w3.org/1999/xlink" x="0px" y="0px"
	 viewBox="0 0 24 18" style="enable-background:new 0 0 24 18;" xml:space="preserve">
<title>57373DF9-3DA0-4745-93B0-0CD149DA5697</title>
<desc>Created with sketchtool.</desc>
<g id="Final-Design">
	<g id="_x30_.-Style" transform="translate(-781.000000, -1662.000000)">
		<g id="Icon_x2F_Medicine_x2F_i_x5F_ophthalmology" transform="translate(781.000000, 1659.000000)">
			<path fill="#00b9cd" id="Combined-Shape" d="M1.8,12c0-0.9,1-2.7,2.5-4.2c2-1.9,4.6-3.1,7.7-3.1c3.1,0,5.8,1.1,7.8,3.1c1.5,1.5,2.5,3.3,2.5,4.2
				c0,0.9-1,2.7-2.5,4.2c-2,1.9-4.6,3.1-7.8,3.1c-3.1,0-5.8-1.1-7.7-3.1C2.7,14.7,1.8,12.9,1.8,12z M0.3,12c0,1.4,1.2,3.6,3,5.3
				c2.3,2.2,5.3,3.5,8.8,3.5c3.5,0,6.5-1.3,8.8-3.5c1.8-1.7,3-3.9,3-5.3c0-1.4-1.2-3.6-3-5.3c-2.3-2.2-5.3-3.5-8.8-3.5
				c-3.5,0-6.5,1.3-8.8,3.5C1.4,8.4,0.3,10.6,0.3,12z M0.3,12c0,0.4,0.3,0.8,0.8,0.8s0.8-0.3,0.8-0.8S1.4,11.3,1,11.3
				S0.3,11.6,0.3,12z M16.8,12c0-2.6-2.1-4.8-4.8-4.8S7.3,9.4,7.3,12s2.1,4.8,4.8,4.8S16.8,14.6,16.8,12z M15.3,12
				c0,1.8-1.5,3.3-3.3,3.3S8.8,13.8,8.8,12s1.5-3.3,3.3-3.3S15.3,10.2,15.3,12z"/>
		</g>
	</g>
</g>
</svg>
