<?xml version="1.0" encoding="UTF-8"?>
<svg width="32px" height="32px" viewBox="0 0 32 32" version="1.1" xmlns="http://www.w3.org/2000/svg" xmlns:xlink="http://www.w3.org/1999/xlink">
    <!-- Generator: sketchtool 41.2 (35397) - http://www.bohemiancoding.com/sketch -->
    <title>E9A5B0A1-C34B-45F5-BB8D-BE2FEBA45C94</title>
    <desc>Created with sketchtool.</desc>
    <defs>
        <circle id="path-1" cx="16" cy="16" r="16"></circle>
        <mask id="mask-2" maskContentUnits="userSpaceOnUse" maskUnits="objectBoundingBox" x="0" y="0" width="32" height="32" fill="white">
            <use xlink:href="#path-1"></use>
        </mask>
    </defs>
    <g id="Final-Design" stroke="none" stroke-width="1" fill="none" fill-rule="evenodd">
        <g id="2.-Clinic" transform="translate(-1456.000000, -5335.000000)">
            <g id="Icon/Social/i_facebook" transform="translate(1456.000000, 5335.000000)">
                <g>
                    <path d="M12.2231779,16.3696032 L13.7399398,16.3696032 L13.7399398,22.6138539 C13.7399398,22.7371374 13.8398342,22.8370318 13.9631177,22.8370318 L16.5348417,22.8370318 C16.6581252,22.8370318 16.7580196,22.7371374 16.7580196,22.6138539 L16.7580196,16.399018 L18.5016642,16.399018 C18.6150386,16.399018 18.7104248,16.3139426 18.7233691,16.201327 L18.9881921,13.902505 C18.9954677,13.8392564 18.9754263,13.7759185 18.9331118,13.7284709 C18.8907526,13.6809786 18.8301375,13.6537955 18.7665317,13.6537955 L16.7581089,13.6537955 L16.7581089,12.2127802 C16.7581089,11.7783867 16.9919994,11.5581101 17.4533528,11.5581101 L18.7665317,11.5581101 C18.8898152,11.5581101 18.9897097,11.458171 18.9897097,11.3349322 L18.9897097,9.22482945 C18.9897097,9.10154596 18.8898152,9.00165152 18.7665317,9.00165152 L16.9567819,9.00165152 C16.9440161,9.00102662 16.9156725,9 16.8738936,9 C16.5598823,9 15.4684083,9.06164175 14.6062273,9.85481612 C13.6509364,10.7337801 13.7837273,11.7861979 13.8154632,11.9686682 L13.8154632,13.6537509 L12.2231779,13.6537509 C12.0998944,13.6537509 12,13.7536453 12,13.8769288 L12,16.1463806 C12,16.2696641 12.0998944,16.3696032 12.2231779,16.3696032 Z" id="XMLID_835_" fill="#FFFFFF"></path>
                    <use id="Oval-4" stroke="#FFFFFF" mask="url(#mask-2)" stroke-width="3" xlink:href="#path-1"></use>
                </g>
            </g>
        </g>
    </g>
</svg>