<?xml version="1.0" encoding="utf-8"?>
<!-- Generator: Adobe Illustrator 19.2.1, SVG Export Plug-In . SVG Version: 6.00 Build 0)  -->
<svg version="1.1" id="Слой_1" xmlns="http://www.w3.org/2000/svg" xmlns:xlink="http://www.w3.org/1999/xlink" x="0px" y="0px"
	 viewBox="0 0 24 26" style="enable-background:new 0 0 24 26;" xml:space="preserve">
<title>906DFD3D-A150-4BFF-BCD8-F2928CB00FDB</title>
<desc>Created with sketchtool.</desc>
<g id="Final-Design">
	<g id="_x30_.-Style" transform="translate(-1060.000000, -1619.000000)">
		<g id="Icon_x2F_Medicine_x2F_i_x5F_plastic_x5F_surgery" transform="translate(1060.000000, 1620.000000)">
			<path fill="#00b9cd" id="Path-36" d="M5.4,0.4c0,0.1,0.1,0.2,0.2,0.4C5.8,1.1,6,1.5,6.2,1.9c0.4,1,0.7,2,0.8,2.9C7,5.7,6.8,6.4,6.4,7
				c-2.5,3.4-2.3,13.6,1,17.5l1.1-1c-2.9-3.4-3.1-12.8-1-15.7c0.7-0.9,0.9-2,0.9-3.2C8.4,3.6,8,2.4,7.5,1.3C7.3,0.9,7.1,0.4,6.9,0.1
				C6.8-0.1,6.7-0.3,6.6-0.4L5.4,0.4z"/>
			<path fill="#00b9cd" id="Path-36-Copy" d="M18.6-0.6c-0.3,0.3-0.8,0.7-1.2,1.3c-1.3,1.6-1.7,3.4-0.7,5.1c0.1,0.1,0.1,0.2,0.2,0.3
				c2.1,2.8,2.3,13.3,0,17.5l1.3,0.7c2.7-4.7,2.4-15.8,0-19.1C18.1,5.1,18,5.1,18,5c-0.6-1-0.3-2.2,0.6-3.4c0.2-0.3,0.4-0.5,0.7-0.7
				c0.1-0.1,0.2-0.2,0.3-0.3L18.6-0.6z"/>
			<path fill="#00b9cd" id="Path-38" d="M8.5,11.5c0.1,0.1,0.3,0.3,0.6,0.7c0.5,0.6,0.9,1.3,1.4,2.1c1.5,2.8,2.3,6,1.9,9.7l1.5,0.1
				c0.4-4-0.5-7.6-2.1-10.6c-0.5-0.9-1-1.7-1.5-2.3c-0.3-0.4-0.6-0.7-0.7-0.8L8.5,11.5z"/>
			<path fill="#00b9cd" id="Path-38_1_" d="M15.4,11.4c-0.5,0.4-1.2,1.2-1.9,2.3c-0.7,1.1-1.2,2.4-1.5,3.8l1.5,0.3c0.3-1.2,0.7-2.3,1.3-3.3
				c0.4-0.6,0.7-1.1,1.1-1.5c0.2-0.2,0.4-0.4,0.5-0.5L15.4,11.4z"/>
			<path fill="#00b9cd" id="Path-40" d="M3.3,7.3C3.2,7.3,3.1,7.4,2.9,7.6C2.6,7.8,2.2,8,1.9,8.3c-1.2,1.1-1.7,2.3-1.3,3.4c0.5,1.2,2,2.2,4.9,2.9
				c8,1.9,15.4,0.4,17.5-2.5c0.9-1.3,0.5-2.5-0.6-3.3c-0.4-0.3-0.7-0.5-1-0.6l-0.4,0.9c0.2,0.1,0.5,0.2,0.8,0.4
				c0.7,0.6,0.9,1.1,0.4,1.9c-1.7,2.5-8.8,4-16.4,2.1c-2.6-0.6-3.9-1.4-4.2-2.3C1.3,10.7,1.7,9.9,2.6,9c0.3-0.2,0.5-0.5,0.8-0.7
				c0.2-0.1,0.3-0.2,0.4-0.2L3.3,7.3z"/>
		</g>
	</g>
</g>
</svg>
