<?xml version="1.0" encoding="utf-8"?>
<!-- Generator: Adobe Illustrator 19.2.1, SVG Export Plug-In . SVG Version: 6.00 Build 0)  -->
<svg version="1.1" id="Слой_1" xmlns="http://www.w3.org/2000/svg" xmlns:xlink="http://www.w3.org/1999/xlink" x="0px" y="0px"
	 viewBox="0 0 32 32" style="enable-background:new 0 0 32 32;" xml:space="preserve">
<style type="text/css">
	.st0{fill:#020202;}
</style>
<title>F5E13B70-92B8-4A54-BF03-3F07325569B0</title>
<desc>Created with sketchtool.</desc>
<g id="Final-Design">
	<g id="_x30_.-Style" transform="translate(-622.000000, -1439.000000)">
		<g id="Icon_x2F_General_x2F_i_x5F_video" transform="translate(622.000000, 1439.000000)">
			<path id="Combined-Shape" class="st0" d="M1.5,1.8c0-0.1,0.1-0.3,0.3-0.3h27.9c0.2,0,0.3,0.1,0.3,0.3v28c0,0.1-0.1,0.3-0.3,0.3
				H1.8c-0.2,0-0.3-0.1-0.3-0.3V1.8z M0,1.8v28c0,1,0.8,1.8,1.8,1.8h27.9c1,0,1.8-0.8,1.8-1.8v-28c0-1-0.8-1.8-1.8-1.8H1.8
				C0.8,0,0,0.8,0,1.8z M20.8,6.5h1c0.4,0,0.8-0.3,0.8-0.8v-2c0-0.4-0.3-0.8-0.8-0.8h-1C20.3,3,20,3.3,20,3.8v2
				C20,6.2,20.3,6.5,20.8,6.5z M20.8,5l0.8,0.8v-2l-0.8,0.8h1L21,3.8v2L21.8,5H20.8z M25.8,6.5h1c0.4,0,0.8-0.3,0.8-0.8v-2
				c0-0.4-0.3-0.8-0.8-0.8h-1C25.3,3,25,3.3,25,3.8v2C25,6.2,25.3,6.5,25.8,6.5z M15.8,6.5h1c0.4,0,0.8-0.3,0.8-0.8v-2
				c0-0.4-0.3-0.8-0.8-0.8h-1C15.3,3,15,3.3,15,3.8v2C15,6.2,15.3,6.5,15.8,6.5z M9.8,6.5h1c0.4,0,0.8-0.3,0.8-0.8v-2
				c0-0.4-0.3-0.8-0.8-0.8h-1C9.3,3,9,3.3,9,3.8v2C9,6.2,9.3,6.5,9.8,6.5z M4.8,6.5h1c0.4,0,0.8-0.3,0.8-0.8v-2C6.5,3.3,6.2,3,5.8,3
				h-1C4.3,3,4,3.3,4,3.8v2C4,6.2,4.3,6.5,4.8,6.5z M20.8,28.5h1c0.4,0,0.8-0.3,0.8-0.8v-2c0-0.4-0.3-0.8-0.8-0.8h-1
				c-0.4,0-0.8,0.3-0.8,0.8v2C20,28.2,20.3,28.5,20.8,28.5z M20.8,27l0.8,0.8v-2l-0.8,0.8h1L21,25.8v2l0.8-0.8H20.8z M25.8,28.5h1
				c0.4,0,0.8-0.3,0.8-0.8v-2c0-0.4-0.3-0.8-0.8-0.8h-1c-0.4,0-0.8,0.3-0.8,0.8v2C25,28.2,25.3,28.5,25.8,28.5z M15.8,28.5h1
				c0.4,0,0.8-0.3,0.8-0.8v-2c0-0.4-0.3-0.8-0.8-0.8h-1c-0.4,0-0.8,0.3-0.8,0.8v2C15,28.2,15.3,28.5,15.8,28.5z M9.8,28.5h1
				c0.4,0,0.8-0.3,0.8-0.8v-2c0-0.4-0.3-0.8-0.8-0.8h-1C9.3,25,9,25.3,9,25.8v2C9,28.2,9.3,28.5,9.8,28.5z M4.8,28.5h1
				c0.4,0,0.8-0.3,0.8-0.8v-2c0-0.4-0.3-0.8-0.8-0.8h-1C4.3,25,4,25.3,4,25.8v2C4,28.2,4.3,28.5,4.8,28.5z M11,11.8v8
				c0,0.6,0.6,0.9,1.1,0.7l8-3.9c0.6-0.3,0.6-1.1,0-1.3l-8-4.1C11.6,10.8,11,11.2,11,11.8z M18.1,15.8l-5.6,2.7V13L18.1,15.8z"/>
		</g>
	</g>
</g>
</svg>
