<?xml version="1.0" encoding="UTF-8"?>
<svg width="24px" height="18px" viewBox="0 0 24 18" version="1.1" xmlns="http://www.w3.org/2000/svg" xmlns:xlink="http://www.w3.org/1999/xlink">
    <!-- Generator: sketchtool 41.2 (35397) - http://www.bohemiancoding.com/sketch -->
    <title>EC7CA2BF-A8E6-4C9A-A46D-D2909B27BB85</title>
    <desc>Created with sketchtool.</desc>
    <defs></defs>
    <g id="Final-Design" stroke="none" stroke-width="1" fill="none" fill-rule="evenodd">
        <g id="0.-Style" transform="translate(-621.000000, -1787.000000)">
            <g id="Icon/Flag/CN" transform="translate(621.000000, 1787.000000)">
                <polygon id="Fill-1" fill="#DE2910" points="0 18 24 18 24 0 0 0"></polygon>
                <polygon id="Fill-2" fill="#FFDE00" points="5.48082 4.818696 7.06782 3.665676 5.10618 3.665676 4.5 1.799976 3.89382 3.665676 1.93212 3.665676 3.51918 4.818696 2.913 6.684336 4.5 5.531316 6.087 6.684336"></polygon>
                <polygon id="Fill-3" fill="#FFDE00" points="8.865468 2.116356 9.201888 2.677056 9.259308 2.025696 9.896508 1.878996 9.294768 1.623156 9.352188 0.971796 8.922888 1.464996 8.321148 1.209156 8.657568 1.769796 8.228268 2.263056"></polygon>
                <polygon id="Fill-4" fill="#FFDE00" points="10.553244 3.83937 10.645704 4.48665 10.951404 3.90867 11.595624 4.02075 11.140284 3.55137 11.445984 2.97333 10.858884 3.26133 10.403604 2.79201 10.496064 3.43929 9.909024 3.72729"></polygon>
                <polygon id="Fill-5" fill="#FFDE00" points="11.130534 6.39444 11.645394 5.99136 10.991934 6.01482 10.767714 5.4006 10.588074 6.02934 9.934614 6.05274 10.477074 6.4179 10.297434 7.04664 10.812294 6.64356 11.354754 7.00866"></polygon>
                <polygon id="Fill-6" fill="#FFDE00" points="9.287184 7.911066 9.317544 7.257906 8.909064 7.768506 8.297184 7.537806 8.656584 8.084046 8.248104 8.594646 8.878704 8.421666 9.238104 8.967966 9.268404 8.314746 9.899004 8.141766"></polygon>
            </g>
        </g>
    </g>
</svg>