<?xml version="1.0" encoding="utf-8"?>
<!-- Generator: Adobe Illustrator 19.2.1, SVG Export Plug-In . SVG Version: 6.00 Build 0)  -->
<svg version="1.1" id="Слой_1" xmlns="http://www.w3.org/2000/svg" xmlns:xlink="http://www.w3.org/1999/xlink" x="0px" y="0px"
	 viewBox="0 0 24 18" style="enable-background:new 0 0 24 18;" xml:space="preserve">
<style type="text/css">
	.st0{filter:url(#Adobe_OpacityMaskFilter);}
	.st1{fill:#FFFFFF;}
	.st2{mask:url(#mask-2);}
	.st3{fill:#E0E6E7;}
	.st4{fill:#0A0A08;}
	.st5{fill:#B32534;}
	.st6{fill:#26335F;}
</style>
<title>602243B6-F715-4684-8DE4-CC852B834128</title>
<desc>Created with sketchtool.</desc>
<g id="Final-Design">
	<g id="_x30_.-Style" transform="translate(-861.000000, -1787.000000)">
		<g id="Icon_x2F_Flag_x2F_SK" transform="translate(861.000000, 1787.000000)">
			<defs>
				<filter id="Adobe_OpacityMaskFilter" filterUnits="userSpaceOnUse" x="-1" y="-1" width="26" height="20">
					<feColorMatrix  type="matrix" values="1 0 0 0 0  0 1 0 0 0  0 0 1 0 0  0 0 0 1 0"/>
				</filter>
			</defs>
			<mask maskUnits="userSpaceOnUse" x="-1" y="-1" width="26" height="20" id="mask-2">
				<g class="st0">
					<polygon id="path-1" class="st1" points="0,18 24,18 24,0 0,0 					"/>
				</g>
			</mask>
			<g id="south-korea-flag-square" class="st2">
				<g id="Fill-1">
					<g>
						<polygon id="path-1_2_" class="st1" points="0,18 24,18 24,0 0,0 						"/>
						<path class="st3" d="M25,19H-1V-1h26V19z M1,17h22V1H1V17z"/>
					</g>
				</g>
				<polyline id="Fill-3" class="st4" points="5.8,6.6 7.4,4.1 9.1,5.3 7.4,7.8 5.8,6.6 				"/>
				<polyline id="Fill-4" class="st1" points="6,7.1 8,4.2 8.2,4.4 6.2,7.3 6,7.1 				"/>
				<polyline id="Fill-5" class="st1" points="6.7,7.5 8.6,4.6 8.8,4.8 6.9,7.7 6.7,7.5 				"/>
				<polyline id="Fill-6" class="st4" points="14.9,12.7 16.6,10.2 18.2,11.4 16.6,13.9 14.9,12.7 				"/>
				<polyline id="Fill-7" class="st1" points="15.2,13.2 17.1,10.3 17.3,10.5 15.4,13.4 15.2,13.2 				"/>
				<polyline id="Fill-8" class="st1" points="15.8,13.6 17.8,10.7 18,10.9 16,13.8 15.8,13.6 				"/>
				<polyline id="Fill-9" class="st1" points="15.5,11.5 15.6,11.3 17.7,12.6 17.5,12.8 15.5,11.5 				"/>
				<path id="Fill-10" class="st5" d="M9.5,7.3c0.9-1.4,2.8-1.8,4.2-0.8c1.4,0.9,1.8,2.8,0.8,4.2c-0.9,1.4-2.8,1.8-4.2,0.8
					C9,10.6,8.6,8.7,9.5,7.3"/>
				<path id="Fill-11" class="st6" d="M9.5,7.3C9,8,9.2,9,9.9,9.4C10.6,9.9,11.5,9.7,12,9s1.4-0.9,2.1-0.4C14.8,9,15,10,14.5,10.7
					c-0.9,1.4-2.8,1.8-4.2,0.8C9,10.6,8.6,8.7,9.5,7.3"/>
				<polyline id="Fill-12" class="st4" points="7.4,13.9 5.8,11.4 7.4,10.2 9.1,12.7 7.4,13.9 				"/>
				<polyline id="Fill-13" class="st1" points="8,13.8 6,10.9 6.2,10.7 8.2,13.6 8,13.8 				"/>
				<polyline id="Fill-14" class="st1" points="8.6,13.4 6.7,10.5 6.9,10.3 8.8,13.2 8.6,13.4 				"/>
				<polyline id="Fill-15" class="st4" points="16.6,7.8 14.9,5.3 16.6,4.1 18.2,6.6 16.6,7.8 				"/>
				<polyline id="Fill-16" class="st1" points="17.1,7.7 15.2,4.8 15.4,4.6 17.3,7.5 17.1,7.7 				"/>
				<polyline id="Fill-17" class="st1" points="17.8,7.3 15.8,4.4 16,4.2 18,7.1 17.8,7.3 				"/>
				<polyline id="Fill-18" class="st1" points="15.6,6.7 15.5,6.5 17.5,5.2 17.7,5.4 15.6,6.7 				"/>
				<polyline id="Fill-19" class="st4" points="16.5,6.3 16.2,5.9 16.6,5.6 16.9,6 16.5,6.3 				"/>
				<polyline id="Fill-20" class="st1" points="7.1,12.4 6.9,12.2 7.8,11.7 7.9,11.9 7.1,12.4 				"/>
			</g>
		</g>
	</g>
</g>
</svg>
