<?xml version="1.0" encoding="UTF-8"?>
<svg width="24px" height="18px" viewBox="0 0 24 18" version="1.1" xmlns="http://www.w3.org/2000/svg" xmlns:xlink="http://www.w3.org/1999/xlink">
    <!-- Generator: sketchtool 41.2 (35397) - http://www.bohemiancoding.com/sketch -->
    <title>0A8DB81D-DE24-4A52-A9D8-403F97FBF32A</title>
    <desc>Created with sketchtool.</desc>
    <defs></defs>
    <g id="Final-Design" stroke="none" stroke-width="1" fill="none" fill-rule="evenodd">
        <g id="0.-Style" transform="translate(-781.000000, -1787.000000)">
            <g id="Icon/Flag/IN" transform="translate(781.000000, 1787.000000)">
                <g id="india">
                    <g id="Group-5">
                        <polygon id="Fill-1" fill="#EC9141" points="0 17.9964 24 17.9964 24 0 0 0"></polygon>
                        <polygon id="Fill-3" fill="#FFFFFF" points="0 12 24 12 24 6 0 6"></polygon>
                        <polygon id="Fill-4" fill="#1E8040" points="0 17.9964 24 17.9964 24 12 0 12"></polygon>
                    </g>
                    <path d="M12,6.6 C13.32546,6.6 14.4,7.67454 14.4,9 C14.4,10.32546 13.32546,11.4 12,11.4 C10.67454,11.4 9.6,10.32546 9.6,9 C9.6,7.67454 10.67454,6.6 12,6.6" id="Fill-6" fill="#282862"></path>
                    <path d="M12,6.9 C13.1598,6.9 14.1,7.8402 14.1,9 C14.1,10.1598 13.1598,11.1 12,11.1 C10.8402,11.1 9.9,10.1598 9.9,9 C9.9,7.8402 10.8402,6.9 12,6.9" id="Fill-7" fill="#FFFFFF"></path>
                    <path d="M12,8.58 C12.23196,8.58 12.42,8.76804 12.42,9 C12.42,9.23196 12.23196,9.42 12,9.42 C11.76804,9.42 11.58,9.23196 11.58,9 C11.58,8.76804 11.76804,8.58 12,8.58" id="Fill-8" fill="#282862"></path>
                    <path d="M14.2596235,9.17131166 C14.3964316,9.1893092 14.4928256,9.31486346 14.4748321,9.45170189 C14.4566957,9.58854032 14.3311693,9.68495571 14.1943612,9.66695817 C14.0575531,9.64881779 13.9611591,9.52340637 13.9791526,9.3864251 C13.9971462,9.24958667 14.1228154,9.15317129 14.2596235,9.17131166" id="Fill-9" fill="#282862"></path>
                    <polyline id="Fill-10" fill="#282862" points="12.178 11.1 12.428 9.84 12.178 9.24 11.928 9.84 12.178 11.1"></polyline>
                    <path d="M14.1807442,9.71766155 C14.3082974,9.77050237 14.3688601,9.91674291 14.3160106,10.0442749 C14.2633038,10.171807 14.117039,10.2323597 13.9894858,10.1795189 C13.8619326,10.1266781 13.8013698,9.98043752 13.8542194,9.85290548 C13.907069,9.72537345 14.053191,9.66496354 14.1807442,9.71766155" id="Fill-11" fill="#282862"></path>
                    <polyline id="Fill-12" fill="#282862" points="11.45646 11.02848 11.8673523 9.83004 11.95646 9.23184 11.7229106 9.79278 11.45646 11.02848"></polyline>
                    <path d="M13.9632639,10.2250089 C14.0726795,10.3091435 14.0933914,10.4659852 14.0094013,10.5755459 C13.9252684,10.6851066 13.7684299,10.7058188 13.6588715,10.6216842 C13.549313,10.5376925 13.5286012,10.3807079 13.6127341,10.2712901 C13.6967241,10.1617294 13.8537055,10.1410172 13.9632639,10.2250089" id="Fill-13" fill="#282862"></path>
                    <polyline id="Fill-14" fill="#282862" points="10.95 10.81866 11.64234 9.7635 11.88 9.20784 11.51766 9.69144 10.95 10.81866"></polyline>
                    <path d="M13.621722,10.6588231 C13.705715,10.7683948 13.6851453,10.9252525 13.5755829,11.0093956 C13.4660206,11.0933959 13.3091765,11.0728244 13.2250406,10.9632526 C13.1410476,10.8536808 13.1616173,10.6966803 13.2711796,10.6126801 C13.380742,10.5286798 13.5375861,10.5493941 13.621722,10.6588231" id="Fill-15" fill="#282862"></path>
                    <polyline id="Fill-16" fill="#282862" points="10.51506 10.48494 11.45694 9.64488 11.83032 9.16968 11.35512 9.54306 10.51506 10.48494"></polyline>
                    <path d="M13.179433,10.9894477 C13.2324191,11.1169694 13.1717207,11.2631982 13.0441828,11.3160347 C12.9167877,11.3688713 12.7705404,11.3081806 12.7176971,11.1808017 C12.6648539,11.05328 12.7254094,10.9070513 12.8529473,10.8542147 C12.9804852,10.8013782 13.1267325,10.861926 13.179433,10.9894477" id="Fill-17" fill="#282862"></path>
                    <polyline id="Fill-18" fill="#282862" points="10.18134 10.05 11.30856 9.48234 11.79216 9.12 11.2365 9.35766 10.18134 10.05"></polyline>
                    <path d="M12.6669088,11.1943408 C12.6849074,11.3313301 12.5886292,11.4568918 12.4517828,11.4748904 C12.3149363,11.492889 12.1892318,11.3964679 12.1712332,11.2596215 C12.1532346,11.122775 12.2496557,10.9972134 12.3865021,10.9792148 C12.5233486,10.9612162 12.6489102,11.0574944 12.6669088,11.1943408" id="Fill-19" fill="#282862"></path>
                    <polyline id="Fill-20" fill="#282862" points="9.97152 9.5621 11.20722 9.29564935 11.76816 9.0621 11.16996 9.15120768 9.97152 9.5621"></polyline>
                    <path d="M12.1186596,11.2596215 C12.1006621,11.3964679 11.9751078,11.492889 11.8382694,11.4748904 C11.701431,11.4568918 11.6050156,11.3313301 11.6230131,11.1943408 C11.6411535,11.0574944 11.7665649,10.9612162 11.9035462,10.9792148 C12.0403846,10.9972134 12.1368,11.122775 12.1186596,11.2596215" id="Fill-21" fill="#282862"></path>
                    <polyline id="Fill-22" fill="#282862" points="9.9 9.178 11.16 9.428 11.76 9.178 11.16 8.928 9.9 9.178"></polyline>
                    <path d="M11.5722736,11.1808017 C11.5194328,11.3081806 11.3731922,11.3688713 11.2456602,11.3160347 C11.1181282,11.2631982 11.0575754,11.1169694 11.1104163,10.9894477 C11.1632571,10.861926 11.3094976,10.8013782 11.4370296,10.8542147 C11.5645617,10.9070513 11.6249716,11.05328 11.5722736,11.1808017" id="Fill-23" fill="#282862"></path>
                    <polyline id="Fill-24" fill="#282862" points="9.97152 8.45646 11.16996 8.86741464 11.76816 8.95646 11.20722 8.72291065 9.97152 8.45646"></polyline>
                    <path d="M11.0649704,10.9632526 C10.9808358,11.0728244 10.8239941,11.0933959 10.7144334,11.0093956 C10.6048728,10.9252525 10.5841605,10.7683948 10.6682951,10.6588231 C10.7522869,10.5493941 10.9092714,10.5286798 11.0186893,10.6126801 C11.1282499,10.6966803 11.1489622,10.8536808 11.0649704,10.9632526" id="Fill-25" fill="#282862"></path>
                    <polyline id="Fill-26" fill="#282862" points="10.18134 7.95 11.2365 8.64234 11.79216 8.88 11.30856 8.51766 10.18134 7.95"></polyline>
                    <path d="M10.6311776,10.6216842 C10.5216058,10.7058188 10.3646053,10.6851066 10.2806051,10.5755459 C10.1966048,10.4659852 10.2171763,10.3091435 10.3267481,10.2250089 C10.4363198,10.1410172 10.5933203,10.1617294 10.6773206,10.2712901 C10.7613209,10.3807079 10.7406065,10.5376925 10.6311776,10.6216842" id="Fill-27" fill="#282862"></path>
                    <polyline id="Fill-28" fill="#282862" points="10.51506 7.51506 11.35512 8.45694 11.83032 8.83032 11.45694 8.35512 10.51506 7.51506"></polyline>
                    <path d="M10.3004704,10.1795189 C10.1729487,10.2323597 10.02672,10.171807 9.97388344,10.0442749 C9.92104689,9.91674291 9.98173752,9.77050237 10.1091164,9.71766155 C10.2366382,9.66496354 10.3828669,9.72537345 10.4357034,9.85290548 C10.48854,9.98043752 10.4279922,10.1266781 10.3004704,10.1795189" id="Fill-29" fill="#282862"></path>
                    <polyline id="Fill-30" fill="#282862" points="10.95 7.18134 11.51766 8.30856 11.88 8.79216 11.64234 8.23656 10.95 7.18134"></polyline>
                    <path d="M10.0956428,9.66695817 C9.95865346,9.68495571 9.83309183,9.58854032 9.81509324,9.45170189 C9.79709464,9.31486346 9.89351569,9.1893092 10.0303621,9.17131166 C10.1672086,9.15317129 10.2927702,9.24958667 10.3107688,9.3864251 C10.3287674,9.52340637 10.2324892,9.64881779 10.0956428,9.66695817" id="Fill-31" fill="#282862"></path>
                    <polyline id="Fill-32" fill="#282862" points="11.45646 6.97158 11.7229106 8.20728 11.95646 8.76816 11.8673523 8.17002 11.45646 6.97158"></polyline>
                    <path d="M10.0303621,9.11875037 C9.89351569,9.10075177 9.79709464,8.9750473 9.81509324,8.83820084 C9.83309183,8.70135438 9.95865346,8.60507618 10.0956428,8.62307477 C10.2324892,8.64107337 10.3287674,8.766635 10.3107688,8.90348146 C10.2927702,9.04032792 10.1672086,9.13674896 10.0303621,9.11875037" id="Fill-33" fill="#282862"></path>
                    <polyline id="Fill-34" fill="#282862" points="12.178 6.9 11.928 8.16 12.178 8.76 12.428 8.16 12.178 6.9"></polyline>
                    <path d="M10.1091164,8.57222424 C9.98173752,8.51938747 9.92104689,8.37315814 9.97388344,8.24577868 C10.02672,8.11825641 10.1729487,8.05756553 10.3004704,8.1104023 C10.4279922,8.16323907 10.48854,8.30946841 10.4357034,8.43699067 C10.3828669,8.56451293 10.2366382,8.62506101 10.1091164,8.57222424" id="Fill-35" fill="#282862"></path>
                    <polyline id="Fill-36" fill="#282862" points="12.5621 6.97158 12.1511454 8.17002 12.0621 8.76816 12.2956494 8.20728 12.5621 6.97158"></polyline>
                    <path d="M10.3267481,8.06498061 C10.2171763,7.98083749 10.1966048,7.82397984 10.2806051,7.71440806 C10.3647482,7.60483628 10.5216058,7.58426478 10.6311776,7.66826505 C10.7406065,7.75240818 10.7613209,7.90926583 10.6773206,8.01883761 C10.5933203,8.12826653 10.4363198,8.14898088 10.3267481,8.06498061" id="Fill-37" fill="#282862"></path>
                    <polyline id="Fill-38" fill="#282862" points="13.05 7.18134 12.35766 8.23656 12.12 8.79216 12.48234 8.30856 13.05 7.18134"></polyline>
                    <path d="M10.6682951,7.63115262 C10.5841605,7.52158084 10.6048728,7.36472319 10.7144334,7.28058006 C10.8239941,7.19657979 10.9808358,7.21729414 11.0649704,7.32672307 C11.1489622,7.43629485 11.1282499,7.59329535 11.0186893,7.67729562 C10.9092714,7.76129589 10.7522869,7.7407244 10.6682951,7.63115262" id="Fill-39" fill="#282862"></path>
                    <polyline id="Fill-40" fill="#282862" points="13.48494 7.51506 12.54306 8.35512 12.16968 8.83032 12.64488 8.45694 13.48494 7.51506"></polyline>
                    <path d="M11.1104163,7.30048394 C11.0575754,7.17293129 11.1181282,7.0266671 11.2456602,6.97396057 C11.3731922,6.9211112 11.5194328,6.98167372 11.5722736,7.10908354 C11.6249716,7.23677903 11.5645617,7.38290039 11.4370296,7.43574975 C11.3094976,7.48859912 11.1632571,7.4280366 11.1104163,7.30048394" id="Fill-41" fill="#282862"></path>
                    <polyline id="Fill-42" fill="#282862" points="13.81866 7.95 12.69144 8.51766 12.20784 8.88 12.76344 8.64234 13.81866 7.95"></polyline>
                    <path d="M11.6230131,7.09556352 C11.6050156,6.95875542 11.701431,6.83322899 11.8382694,6.81509263 C11.9751078,6.79709908 12.1006621,6.8934931 12.1186596,7.0303012 C12.1368,7.1671093 12.0403846,7.29277854 11.9035462,7.31077209 C11.7665649,7.32876564 11.6411535,7.23237162 11.6230131,7.09556352" id="Fill-43" fill="#282862"></path>
                    <polyline id="Fill-44" fill="#282862" points="14.02842 8.45646 12.79272 8.72291065 12.23184 8.95646 12.82998 8.86741464 14.02842 8.45646"></polyline>
                    <path d="M12.1712332,7.0303012 C12.1892318,6.8934931 12.3149363,6.79709908 12.4517828,6.81509263 C12.5886292,6.83322899 12.6849074,6.95875542 12.6669088,7.09556352 C12.6489102,7.23237162 12.5233486,7.32876564 12.3865021,7.31077209 C12.2496557,7.29277854 12.1532346,7.1671093 12.1712332,7.0303012" id="Fill-45" fill="#282862"></path>
                    <polyline id="Fill-46" fill="#282862" points="14.1 9.178 12.84 8.928 12.24 9.178 12.84 9.428 14.1 9.178"></polyline>
                    <path d="M12.7176971,7.10908354 C12.7705404,6.98167372 12.9167877,6.9211112 13.0441828,6.97396057 C13.1717207,7.0266671 13.2324191,7.17293129 13.179433,7.30048394 C13.1267325,7.4280366 12.9804852,7.48859912 12.8529473,7.43574975 C12.7254094,7.38290039 12.6648539,7.23677903 12.7176971,7.10908354" id="Fill-47" fill="#282862"></path>
                    <polyline id="Fill-48" fill="#282862" points="14.02842 9.5621 12.82998 9.15120768 12.23184 9.0621 12.79272 9.29564935 14.02842 9.5621"></polyline>
                    <path d="M13.2250406,7.32672307 C13.3091765,7.21729414 13.4660206,7.19657979 13.5755829,7.28058006 C13.6851453,7.36472319 13.705715,7.52158084 13.621722,7.63115262 C13.5375861,7.7407244 13.380742,7.76129589 13.2711796,7.67729562 C13.1616173,7.59329535 13.1410476,7.43629485 13.2250406,7.32672307" id="Fill-49" fill="#282862"></path>
                    <polyline id="Fill-50" fill="#282862" points="13.81866 10.05 12.76344 9.35766 12.20784 9.12 12.69144 9.48234 13.81866 10.05"></polyline>
                    <path d="M13.6588715,7.66826505 C13.7684299,7.58426478 13.9252684,7.60483628 14.0094013,7.71440806 C14.0933914,7.82397984 14.0726795,7.98083749 13.9632639,8.06498061 C13.8537055,8.14898088 13.6967241,8.12826653 13.6127341,8.01883761 C13.5286012,7.90926583 13.549313,7.75240818 13.6588715,7.66826505" id="Fill-51" fill="#282862"></path>
                    <polyline id="Fill-52" fill="#282862" points="13.48494 10.48494 12.64488 9.54306 12.16968 9.16968 12.54306 9.64488 13.48494 10.48494"></polyline>
                    <path d="M13.9894858,8.1104023 C14.117039,8.05756553 14.2633038,8.11825641 14.3160106,8.24577868 C14.3688601,8.37315814 14.3082974,8.51938747 14.1807442,8.57222424 C14.053191,8.62506101 13.907069,8.56451293 13.8542194,8.43699067 C13.8013698,8.30946841 13.8619326,8.16323907 13.9894858,8.1104023" id="Fill-53" fill="#282862"></path>
                    <polyline id="Fill-54" fill="#282862" points="13.05 10.81866 12.48234 9.69144 12.12 9.20784 12.35766 9.7635 13.05 10.81866"></polyline>
                    <path d="M14.1943612,8.62307477 C14.3311693,8.60507618 14.4566957,8.70135438 14.4748321,8.83820084 C14.4928256,8.9750473 14.3964316,9.10075177 14.2596235,9.11875037 C14.1228154,9.13674896 13.9971462,9.04032792 13.9791526,8.90348146 C13.9611591,8.766635 14.0575531,8.64107337 14.1943612,8.62307477" id="Fill-55" fill="#282862"></path>
                    <polyline id="Fill-56" fill="#282862" points="12.5621 11.02848 12.2956494 9.79278 12.0621 9.23184 12.1511454 9.83004 12.5621 11.02848"></polyline>
                </g>
            </g>
        </g>
    </g>
</svg>