<svg width="24" height="18" viewBox="0 0 24 18" xmlns="http://www.w3.org/2000/svg"><title>361003C9-99B5-4904-8C88-5294CE5D820C</title><g fill="none" fill-rule="evenodd"><path fill="#FFF" d="M0 17.996h24V0H0z"/><path fill="#A02635" d="M0 1.385h24V0H0zM0 4.154h24V2.769H0zM0 6.923h24V5.538H0zM0 9.692h24V8.308H0zM0 12.462h24v-1.385H0zM0 15.23h24v-1.384H0zM0 17.996h24v-1.38H0z"/><path fill="#36355B" d="M0 9.692h14V0H0z"/><path fill="#FFF" d="M.678-.17l.344.25-.131.405.344-.25.344.25L1.448.08l.344-.25h-.426l-.131-.404-.131.405H.678M3.072-.17l.344.25-.131.405.344-.25.344.25L3.842.08l.344-.25H3.76L3.63-.573l-.131.405h-.426M5.466-.17l.344.25-.131.405.344-.25.344.25L6.236.08l.344-.25h-.426l-.131-.404-.131.405h-.426M7.86-.17l.344.25-.131.405.344-.25.344.25L8.63.08l.344-.25h-.426l-.131-.404-.131.405H7.86M10.254-.17l.344.25-.131.405.344-.25.344.25-.131-.405.344-.25h-.426l-.131-.404-.131.405h-.426M12.648-.17l.344.25-.131.405.344-.25.344.25-.131-.405.344-.25h-.426l-.131-.404-.131.405h-.426M1.875.857l.344.25-.131.404.344-.25.344.25-.131-.405.344-.25h-.426L2.432.453 2.3.857h-.426M4.27.857l.343.25-.131.404.344-.25.344.25-.131-.405.344-.25h-.426L4.826.453l-.131.405h-.426M6.663.857l.344.25-.131.404.344-.25.344.25-.131-.405.344-.25H7.35L7.22.453l-.131.405h-.426M9.057.857l.344.25-.131.404.344-.25.344.25-.131-.405.344-.25h-.426L9.614.453l-.131.405h-.426M11.451.857l.344.25-.131.404.344-.25.344.25-.131-.405.344-.25h-.426l-.131-.404-.131.405h-.426M.678 1.883l.344.25-.131.404.344-.25.344.25-.131-.405.344-.25h-.426l-.131-.404-.131.405H.678M3.072 1.883l.344.25-.131.404.344-.25.344.25-.131-.405.344-.25H3.76l-.131-.404-.131.405h-.426M5.466 1.883l.344.25-.131.404.344-.25.344.25-.131-.405.344-.25h-.426l-.131-.404-.131.405h-.426M7.86 1.883l.344.25-.131.404.344-.25.344.25-.131-.405.344-.25h-.426l-.131-.404-.131.405H7.86M10.254 1.883l.344.25-.131.404.344-.25.344.25-.131-.405.344-.25h-.426l-.131-.404-.131.405h-.426M12.648 1.883l.344.25-.131.404.344-.25.344.25-.131-.405.344-.25h-.426l-.131-.404-.131.405h-.426M1.905 2.912l.344.25-.131.404.344-.25.343.25-.13-.404.343-.25h-.425l-.131-.404-.132.404h-.425M4.299 2.912l.344.25-.131.404.344-.25.343.25-.13-.404.343-.25h-.425l-.131-.404-.132.404H4.3M6.693 2.912l.344.25-.131.404.344-.25.343.25-.13-.404.343-.25h-.425l-.131-.404-.132.404h-.425M9.087 2.912l.344.25-.131.404.344-.25.343.25-.13-.404.343-.25h-.425l-.131-.404-.132.404h-.425M11.48 2.912l.345.25-.132.404.345-.25.343.25-.13-.404.343-.25h-.425l-.131-.404-.132.404h-.425M.715 3.93l.344.25-.132.404.344-.25.344.25-.131-.405.344-.25h-.425l-.132-.404-.131.404H.715M3.109 3.93l.344.25-.132.404.344-.25.344.25-.131-.405.344-.25h-.425l-.132-.404-.131.404h-.425M5.503 3.93l.344.25-.132.404.344-.25.344.25-.131-.405.344-.25H6.19l-.132-.404-.131.404h-.425M7.897 3.93l.344.25-.132.404.344-.25.344.25-.131-.405.344-.25h-.425l-.132-.404-.131.404h-.425M10.29 3.93l.345.25-.132.404.344-.25.344.25-.131-.405.344-.25h-.425l-.132-.404-.131.404h-.425M12.685 3.93l.344.25-.132.404.344-.25.344.25-.131-.405.344-.25h-.425l-.132-.404-.131.404h-.425M.737 5.949l.344.25-.131.404.344-.25.344.25-.132-.404.344-.25h-.425l-.131-.404-.132.404H.737M3.131 5.949l.344.25-.131.404.344-.25.344.25L3.9 6.2l.344-.25H3.82l-.131-.404-.132.404h-.425M5.525 5.949l.344.25-.131.404.344-.25.344.25-.132-.404.344-.25h-.425l-.131-.404-.132.404h-.425M7.92 5.949l.343.25-.131.404.344-.25.344.25-.132-.404.344-.25h-.425l-.131-.404-.132.404H7.92M10.313 5.949l.344.25-.131.404.344-.25.344.25-.132-.404.344-.25h-.425l-.131-.404-.132.404h-.425M12.707 5.949l.344.25-.131.404.344-.25.344.25-.132-.404.344-.25h-.425l-.131-.404-.132.404h-.425M.708 7.992l.344.25-.131.404.344-.25.343.25-.13-.404.343-.25h-.425l-.131-.404-.132.404H.708M3.102 7.992l.344.25-.132.404.345-.25.343.25-.13-.404.343-.25H3.79l-.131-.404-.132.404h-.425M5.496 7.992l.344.25-.132.404.345-.25.343.25-.13-.404.343-.25h-.425l-.131-.404-.132.404h-.425M7.89 7.992l.344.25-.131.404.344-.25.343.25-.13-.404.343-.25h-.425l-.131-.404-.132.404H7.89M10.284 7.992l.344.25-.132.404.345-.25.343.25-.13-.404.343-.25h-.425l-.131-.404-.132.404h-.425M12.678 7.992l.344.25-.132.404.344-.25.344.25-.13-.404.343-.25h-.425l-.132-.404-.13.404h-.426M1.912 4.929l.344.25-.131.404.344-.25.344.25-.132-.404.344-.25H2.6l-.131-.404-.132.404h-.425M4.306 4.929l.344.25-.131.404.344-.25.344.25-.132-.404.344-.25h-.425l-.131-.404-.132.404h-.425M6.7 4.929l.344.25-.131.404.344-.25.344.25-.132-.404.344-.25h-.425l-.131-.404-.132.404H6.7M9.094 4.929l.344.25-.131.404.344-.25.344.25-.132-.404.344-.25h-.425l-.131-.404-.132.404h-.425M11.488 4.929l.344.25-.131.404.344-.25.344.25-.132-.404.344-.25h-.425l-.131-.404-.132.404h-.425M1.905 6.97l.344.249-.131.404.344-.25.343.25-.13-.404.343-.25h-.425l-.131-.404-.132.404h-.425M4.299 6.97l.344.249-.131.404.344-.25.343.25-.13-.404.343-.25h-.425l-.131-.404-.132.404H4.3M6.693 6.97l.344.249-.131.404.344-.25.344.25-.132-.404.344-.25h-.425l-.131-.404-.132.404h-.425M9.087 6.97l.344.249-.131.404.344-.25.343.25-.13-.404.343-.25h-.425l-.131-.404-.132.404h-.425M11.48 6.97l.345.249-.131.404.344-.25.343.25-.13-.404.343-.25h-.425l-.131-.404-.132.404h-.425"/></g></svg>