<?xml version="1.0" encoding="utf-8"?>
<!-- Generator: Adobe Illustrator 19.2.1, SVG Export Plug-In . SVG Version: 6.00 Build 0)  -->
<svg version="1.1" id="Слой_1" xmlns="http://www.w3.org/2000/svg" xmlns:xlink="http://www.w3.org/1999/xlink" x="0px" y="0px"
	 viewBox="0 0 24 18" style="enable-background:new 0 0 24 18;" xml:space="preserve">
<style type="text/css">
	.st0{filter:url(#Adobe_OpacityMaskFilter);}
	.st1{fill:#FFFFFF;}
	.st2{mask:url(#mask-2);}
	.st3{opacity:0.15;}
	.st4{fill:#0035A9;}
	.st5{fill:#D7290F;}
</style>
<title>59C7FC24-3C33-43DA-8B67-A5E6CB289910</title>
<desc>Created with sketchtool.</desc>
<g id="Final-Design">
	<g id="_x30_.-Style" transform="translate(-821.000000, -1787.000000)">
		<g id="Icon_x2F_Flag_x2F_RU" transform="translate(821.000000, 1787.000000)">
			<defs>
				<filter id="Adobe_OpacityMaskFilter" filterUnits="userSpaceOnUse" x="-1" y="-1" width="26" height="20">
					<feColorMatrix  type="matrix" values="1 0 0 0 0  0 1 0 0 0  0 0 1 0 0  0 0 0 1 0"/>
				</filter>
			</defs>
			<mask maskUnits="userSpaceOnUse" x="-1" y="-1" width="26" height="20" id="mask-2">
				<g class="st0">
					<polygon id="path-1" class="st1" points="0,18 24,18 24,0 0,0 					"/>
				</g>
			</mask>
			<g class="st2">
				<polygon id="Fill-1" class="st1" points="0,6 24,6 24,0 0,0 				"/>
				<g id="Fill-1_1_">
					<g>
						<polygon id="path-1_2_" class="st1" points="0,18 24,18 24,0 0,0 						"/>
						<path class="st3" d="M25,19H-1V-1h26V19z M1,17h22V1H1V17z"/>
					</g>
				</g>
				<polygon id="Fill-1-Copy" class="st4" points="0,12 24,12 24,6 0,6 				"/>
				<polygon id="Fill-3" class="st5" points="0,18 24,18 24,12 0,12 				"/>
			</g>
		</g>
	</g>
</g>
</svg>
