<?xml version="1.0" encoding="utf-8"?>
<!-- Generator: Adobe Illustrator 19.2.1, SVG Export Plug-In . SVG Version: 6.00 Build 0)  -->
<svg version="1.1" id="Слой_1" xmlns="http://www.w3.org/2000/svg" xmlns:xlink="http://www.w3.org/1999/xlink" x="0px" y="0px"
	 viewBox="0 0 22 22" style="enable-background:new 0 0 22 22;" xml:space="preserve">
<title>9CE2F662-9754-4AA8-8D83-31BDD0D33646</title>
<desc>Created with sketchtool.</desc>
<g id="Final-Design">
	<g id="_x30_.-Style" transform="translate(-822.000000, -1660.000000)">
		<g id="Icon_x2F_Medicine_x2F_i_x5F_pediatrics" transform="translate(821.000000, 1659.000000)">
			<path fill="#00b9cd" id="Stroke-1" d="M22.8,12c0-5.9-4.8-10.8-10.8-10.8C6.1,1.3,1.3,6.1,1.3,12c0,5.9,4.8,10.8,10.8,10.8
				C17.9,22.8,22.8,17.9,22.8,12z M21.3,12c0,5.1-4.1,9.3-9.3,9.3c-5.1,0-9.3-4.1-9.3-9.3c0-5.1,4.1-9.3,9.3-9.3
				C17.1,2.8,21.3,6.9,21.3,12z"/>
			<path fill="#00b9cd" id="Stroke-7" d="M10.7,8.1c2.1,1.2,5.5,1.9,10.4,1.9c0.4,0,0.8-0.3,0.8-0.8c0-0.4-0.3-0.8-0.8-0.8c-4.7,0-7.8-0.7-9.6-1.7
				c-1-0.6-1.4-1.1-1.5-1.3C9.8,4.6,8.5,4.8,8.5,5.6c0,2.5-3.3,4.7-5.6,4.7c-0.4,0-0.8,0.3-0.8,0.8c0,0.4,0.3,0.8,0.8,0.8
				c2.6,0,5.7-1.8,6.8-4.4C10,7.6,10.3,7.9,10.7,8.1z"/>
		</g>
	</g>
</g>
</svg>
