<?xml version="1.0" encoding="utf-8"?>
<!-- Generator: Adobe Illustrator 19.2.1, SVG Export Plug-In . SVG Version: 6.00 Build 0)  -->
<svg version="1.1" id="Слой_1" xmlns="http://www.w3.org/2000/svg" xmlns:xlink="http://www.w3.org/1999/xlink" x="0px" y="0px"
	 viewBox="0 0 21 25" style="enable-background:new 0 0 21 25;" xml:space="preserve">
<title>17D67A22-660B-4D61-8D04-E1F10E857E2E</title>
<desc>Created with sketchtool.</desc>
<g id="Final-Design">
	<g id="_x30_.-Style" transform="translate(-622.000000, -1659.000000)">
		<g id="Icon_x2F_Medicine_x2F_i_x5F_otolaryngologist" transform="translate(621.000000, 1659.000000)">
			<path fill="#00b9cd" id="Path-33" d="M1.4,14.9c0,0.1,0,0.1,0,0.2l0.1,0.6h1.9c0,0.6,0,1.2,0,1.7c0.1,1,0.3,1.7,0.7,2.3c0.5,0.6,1.2,0.9,2.2,1.1
				c0.4,0.1,0.9,0.1,1.3,0.1v2.9h1.5v-4.5l-0.8,0.1c0,0-0.1,0-0.2,0c-0.5,0-1,0-1.5-0.1c-0.6-0.1-1-0.3-1.2-0.5
				c-0.2-0.3-0.4-0.8-0.4-1.5c-0.1-0.6-0.1-1.3,0-1.9c0-0.2,0-0.3,0-0.3L5,14.2H2.9c0.1-0.7,0.7-1.6,1.9-2.6L5,11.4V11
				c0-0.5,0-1.1,0-1.6c0-0.3,0-0.5,0-0.7c0-0.2,0-0.6,0.1-1.1C5.2,6.9,5.5,6,5.9,5.2C7,3,8.9,1.7,12,1.7c6.2-0.1,8.3,2.8,8.4,8.8
				c-3.1,6.8-4,11-3.6,13.1c0,0.2,0.1,0.3,0.1,0.4l1.4-0.5c0,0,0,0,0-0.1c-0.1-0.6-0.1-1.7,0.3-3.3c0.5-2.3,1.6-5.4,3.3-9.2l0.1-0.1
				l0-0.2c0-6.8-2.7-10.6-9.9-10.5c-3.7,0-6.1,1.7-7.4,4.4C4.1,5.5,3.8,6.5,3.6,7.5C3.5,8.1,3.5,8.5,3.5,8.8c0,0.1,0,0.4,0,0.7
				c0,0.4,0,0.8,0,1.2C1.8,12.2,1.2,13.7,1.4,14.9z"/>
			<path fill="#00b9cd" id="Path-32" d="M13.9,24.1c0-0.1,0-0.1,0-0.3c0.1-1.1,0-2.5-0.7-3.7c-1.3-2.5-4.1-3.9-8.8-3.9v1c4.3,0,6.8,1.3,7.9,3.4
				c0.6,1.1,0.7,2.2,0.6,3.2c0,0.1,0,0.2,0,0.2L13.9,24.1z"/>
			<path fill="#00b9cd" id="Path-34" d="M14.7,23.7c0,0-0.1-0.1-0.1-0.3c-0.1-0.2-0.2-0.5-0.3-0.8c-0.3-0.8-0.5-1.6-0.8-2.4
				c-0.1-0.3-0.2-0.6-0.3-0.9c-0.6-2.1-0.9-3.7-0.8-3.9c0.1-0.1,0.1-0.3,0.2-0.4c0-0.1,0-0.1,0.1-0.2c0-0.1,0.1-0.2,0.1-0.2
				c0.1-0.2,0.1-0.3,0.2-0.5c0.5-0.9,1.7-1.5,4.1-1.6l0-1c-2.7,0.1-4.2,0.8-4.9,2.1c-0.2,0.3-0.2,0.3-0.4,1.1c0,0.1-0.1,0.2-0.1,0.3
				c-0.3,0.6,0,2.1,0.8,4.6c0.1,0.3,0.2,0.6,0.3,0.9c0.2,0.8,0.5,1.6,0.8,2.4c0.1,0.3,0.2,0.5,0.3,0.8c0,0.1,0.1,0.2,0.1,0.3
				L14.7,23.7z"/>
			<path fill="#00b9cd" id="Path-35" d="M6.9,14.3C6.9,14.3,6.9,14.3,6.9,14.3c0.4,0,0.8,0,1.2,0.1c0.7,0.1,1.4,0.4,2.1,0.9
				c1.7,1.1,2.2,2.3,2.8,6.9l1-0.1c-0.7-4.9-1.2-6.2-3.2-7.6c-1.4-1-2.8-1.2-3.9-1.2c-0.1,0-0.1,0-0.1,0L6.9,14.3z"/>
		</g>
	</g>
</g>
</svg>
