<?xml version="1.0" encoding="utf-8"?>
<!-- Generator: Adobe Illustrator 19.2.1, SVG Export Plug-In . SVG Version: 6.00 Build 0)  -->
<svg version="1.1" id="Слой_1" xmlns="http://www.w3.org/2000/svg" xmlns:xlink="http://www.w3.org/1999/xlink" x="0px" y="0px"
	 viewBox="0 0 19 24" style="enable-background:new 0 0 19 24;" xml:space="preserve">
<title>83888DD1-6887-4B94-8243-C359E9E137C0</title>
<desc>Created with sketchtool.</desc>
<g id="Final-Design">
	<g id="_x30_.-Style" transform="translate(-944.000000, -1619.000000)">
		<g id="Icon_x2F_Medicine_x2F_i_x5F_heart_x5F_surgery" transform="translate(940.000000, 1619.000000)">
			<path fill="#00b9cd" id="Stroke-1" d="M9.9,4.3C9.1,4.4,8.1,4.7,7,5.5C4.8,7.1,3.7,10,4.5,14.3c0.8,4.5,4,9.2,7.8,9.2c4,0,5.4-1.9,7.8-9.1
				c0.5-1.5,0.6-2.9,0.4-4.2l-1.5,0.2c0.2,1,0,2.2-0.4,3.5c-2.2,6.6-3.2,8.1-6.3,8.1c-2.8,0-5.6-4.2-6.3-8C5.3,10.3,6.1,8,7.9,6.7
				c0.5-0.3,1-0.6,1.5-0.7C9.7,5.9,9.9,5.8,10,5.8L9.9,4.3z"/>
			<path fill="#00b9cd" id="Stroke-5" d="M18.4,6.1l-1.9,0V4.3l-2.3,0V7l-2,0V4.6c0-1.5,1.2-2.8,2.7-2.8h0.8c1.2,0,2.3,0.9,2.6,2.1V6.1z M19.9,7.6
				V3.8l0-0.2c-0.4-2-2.1-3.4-4.1-3.4H15c-2.3,0-4.2,1.9-4.2,4.3v3.9l5,0V7.6L19.9,7.6z M15.7,5.1L15,5.8l0.8,0L15,5v2.6l0.7,0V5.1z
				"/>
			<path fill="#00b9cd" id="Stroke-7" d="M18.1,9.5c-1,0-1.4,0.8-1.7,1.9c0,0.2-0.1,0.5-0.1,0.7h-1.5v-1.6c0-1.5,1.2-2.8,2.7-2.8h2.9l0,1.8H18.1z
				 M21.9,7.3c0,0,0-0.1,0-0.1l0.2-0.9h-4.7c-2.3,0-4.2,1.9-4.2,4.3v3.1h4.5l0-0.7c0-0.1,0-0.2,0-0.4c0-0.3,0.1-0.6,0.1-0.8
				c0.1-0.5,0.2-0.7,0.2-0.7h3c0.4,0,0.9-0.2,0.9-0.8L21.9,7.3z"/>
			<path fill="#00b9cd" id="Stroke-3" d="M10.9,5.7l-0.1-3.5c0-1-0.8-1.8-1.8-1.8h-1c-1,0-1.8,0.8-1.8,1.8v4.2h1.5V2.2c0-0.2,0.1-0.3,0.3-0.3h1
				c0.1,0,0.3,0.1,0.3,0.3l0.1,3.5L10.9,5.7z"/>
		</g>
	</g>
</g>
</svg>
