<?xml version="1.0" encoding="UTF-8"?>
<svg width="32px" height="33px" viewBox="0 0 32 33" version="1.1" xmlns="http://www.w3.org/2000/svg" xmlns:xlink="http://www.w3.org/1999/xlink">
    <!-- Generator: sketchtool 41.2 (35397) - http://www.bohemiancoding.com/sketch -->
    <title>1AC768DD-FA34-4F51-8D64-6CB4D4C0571E</title>
    <desc>Created with sketchtool.</desc>
    <defs></defs>
    <g id="Final-Design" stroke="none" stroke-width="1" fill="none" fill-rule="evenodd">
        <g id="0.-Style" transform="translate(-904.000000, -1551.000000)" fill="#00B9CD">
            <g id="Icon/Service/i_extended" transform="translate(900.000000, 1548.000000)">
                <path d="M8.00000169,17.55965 L8.0415056,33.5181461 C8.04150391,34.3429881 8.71536153,35.0168457 9.54150391,35.0168457 L30.4998942,35.0417477 C31.3266307,35.041748 32.0004883,34.3678904 32.0004883,33.541748 L32.1166859,17.6276737 C32.1187019,17.3515387 31.8964845,17.1260527 31.6203495,17.1240368 C31.3442145,17.1220208 31.1187285,17.3442382 31.1167125,17.6203732 L31.0005016,33.5380978 C31.0004883,33.8156057 30.7743459,34.041748 30.5004883,34.041748 L9.54209798,34.0168461 C9.26764628,34.0168457 9.04150391,33.7907033 9.04150391,33.5168457 L8.99999831,17.5570492 C8.99928014,17.2809078 8.77484108,17.0576331 8.49869963,17.0583513 C8.22255819,17.0590695 7.99928352,17.2835085 8.00000169,17.55965 Z" id="Stroke-1"></path>
                <path d="M19.5001,23.0838 L20.5001,23.0838 C20.5001,21.6541331 21.623151,20.4998 23.0001,20.4998 C24.3776771,20.4998 25.5001,21.6537531 25.5001,23.0838 C25.5001,23.7531605 25.1774518,24.4850152 24.6861304,24.9917471 C24.4939061,25.1900006 24.4987937,25.5065454 24.6970471,25.6987696 C24.8953006,25.8909939 25.2118454,25.8861063 25.4040696,25.6878529 C26.0693465,25.0017094 26.5001,24.024642 26.5001,23.0838 C26.5001,21.1075734 24.9362568,19.4998 23.0001,19.4998 C21.7257009,19.4998 20.6121263,20.1969873 20.0001,21.2372964 C19.68262,21.7769421 19.5001,22.4089174 19.5001,23.0838 C19.5001,23.7504667 20.5001,23.7504667 20.5001,23.0838 C20.5001,22.4089174 20.31758,21.7769421 20.0001,21.2372964 C19.3880737,20.1969873 18.2744991,19.4998 17.0001,19.4998 C15.0639432,19.4998 13.5001,21.1075734 13.5001,23.0838 C13.5001,24.024642 13.9308535,25.0017094 14.5961304,25.6878529 C14.7883546,25.8861063 15.1048994,25.8909939 15.3031529,25.6987696 C15.5014063,25.5065454 15.5062939,25.1900006 15.3140696,24.9917471 C14.8227482,24.4850152 14.5001,23.7531605 14.5001,23.0838 C14.5001,21.6537531 15.6225229,20.4998 17.0001,20.4998 C18.377049,20.4998 19.5001,21.6541331 19.5001,23.0838 Z" id="Stroke-5"></path>
                <path d="M15.294361,24.9725099 C15.0915123,24.7851413 14.7751786,24.7976903 14.5878099,25.000539 C14.4004413,25.2033877 14.4129903,25.5197214 14.615839,25.7070901 L19.660839,30.3670901 C19.8524046,30.5440366 20.1477954,30.5440366 20.339361,30.3670901 L25.384361,25.7070901 C25.5872097,25.5197214 25.5997587,25.2033877 25.4123901,25.000539 C25.2250214,24.7976903 24.9086877,24.7851413 24.705839,24.9725099 L20.0001,29.319139 L15.294361,24.9725099 Z" id="Stroke-7"></path>
                <polygon id="Path-14" points="34.6250811 21.3308108 35.3749189 20.6691892 20 3.24428106 4.62508107 20.6691892 5.37491893 21.3308108 20 4.75571894"></polygon>
            </g>
        </g>
    </g>
</svg>