<svg width="24" height="24" viewBox="0 0 24 24" xmlns="http://www.w3.org/2000/svg"><title>9CEB66A0-F5ED-454A-BFB5-8F2C2252D17D</title><g fill="#7F9DAA" fill-rule="evenodd"><path d="M4.376 8.306l-.171-1.23a2.534 2.534 0 0 1 2.852-2.86l1.231.168a1 1 0 0 0 .932-.387l.75-.991A2.534 2.534 0 0 1 14.008 3l.752.99a1 1 0 0 0 .933.385l1.23-.17a2.534 2.534 0 0 1 2.861 2.852l-.168 1.231a1 1 0 0 0 .388.933l.99.75A2.533 2.533 0 0 1 21 14.007l-.99.754a1 1 0 0 0-.385.933l.17 1.231a2.534 2.534 0 0 1-2.851 2.859l-1.232-.168a1 1 0 0 0-.932.387l-.75.991A2.533 2.533 0 0 1 9.993 21l-.753-.99a1 1 0 0 0-.933-.385l-1.232.171a2.533 2.533 0 0 1-2.858-2.852l.168-1.231a1 1 0 0 0-.388-.933l-.992-.75A2.533 2.533 0 0 1 3 9.993l.99-.754a1 1 0 0 0 .386-.933zM1.79 8.4c-2.39 1.816-2.386 5.414.01 7.224l.524.397-.089.651c-.406 2.976 2.14 5.516 5.114 5.104l.653-.09.4.524c1.816 2.39 5.411 2.385 7.223-.01l.397-.525.652.09c2.976.404 5.516-2.142 5.103-5.116l-.09-.652.523-.399c2.39-1.816 2.386-5.413-.009-7.223l-.524-.397.089-.652c.404-2.976-2.142-5.516-5.116-5.103l-.651.09-.399-.524C13.783-.6 10.185-.596 8.375 1.8l-.396.524-.653-.09C4.351 1.83 1.812 4.377 2.224 7.352l.09.65-.524.4z"/><path d="M8.707 11.293a1 1 0 1 0-1.414 1.414l3 3a1 1 0 0 0 1.476-.067l5-6a1 1 0 1 0-1.537-1.28l-4.299 5.159-2.226-2.226z"/></g></svg>