<?xml version="1.0" encoding="UTF-8"?>
<svg width="32px" height="30px" viewBox="0 0 32 30" version="1.1" xmlns="http://www.w3.org/2000/svg" xmlns:xlink="http://www.w3.org/1999/xlink">
    <!-- Generator: sketchtool 41.2 (35397) - http://www.bohemiancoding.com/sketch -->
    <title>85C1239D-1A21-42D6-B633-B2CBA5BAC30C</title>
    <desc>Created with sketchtool.</desc>
    <defs></defs>
    <g id="Final-Design" stroke="none" stroke-width="1" fill="none" fill-rule="evenodd">
        <g id="2.-Clinic" transform="translate(-426.000000, -4199.000000)" fill="#00B9CD">
            <g id="Icon/Service/i_language" transform="translate(422.000000, 4194.000000)">
                <path d="M14.602,25.498 L17.002,25.498 L17.002,24.498 L17,25.498 C23.882542,25.4969171 29.5,21.0502591 29.5,15.5 C29.5,9.9487226 23.8807141,5.5 17,5.5 C10.1192859,5.5 4.5,9.9487226 4.5,15.5 C4.5,18.6134491 6.37357519,21.3948709 9.50921379,23.3030604 C9.39678836,24.4857813 9.06792037,25.507714 8.5891202,26.3740769 C8.38094348,26.7507613 8.15899003,27.0705645 7.93876058,27.3337675 C7.81105386,27.4863938 7.7161896,27.5831186 7.67000928,27.6241255 C7.3385567,27.9184466 7.52562146,28.4665608 7.96785372,28.4968327 C7.98612897,28.4980444 7.98612897,28.4980444 8.04483472,28.500546 C8.46949733,28.5158317 9.03384954,28.486016 9.68925232,28.3750816 C10.6821009,28.2070306 11.6646823,27.884225 12.5862532,27.3685123 C13.4335478,26.8943647 14.1929179,26.2754841 14.8407132,25.498 C14.8930441,25.4351925 14.9446469,25.3713499 14.995509,25.306465 C15.1658695,25.0891359 15.127794,24.7748515 14.910465,24.604491 C14.8202718,24.5337901 14.7133799,24.4989884 14.6070067,24.498 C14.4570634,24.4966067 14.3081506,24.5623991 14.208491,24.689535 C13.6096015,25.4525021 12.8997458,26.0471519 12.0979144,26.4958581 C11.2832718,26.9517336 10.4085227,27.2391133 9.5223646,27.3891057 C9.37737164,27.4136474 9.23769644,27.4337141 9.10411805,27.4498155 C9.22260127,27.2732761 9.34375866,27.0759877 9.4643529,26.857779 C10.053113,25.7924495 10.4396536,24.5273383 10.5310292,23.0631428 C10.542836,22.8739507 10.4466398,22.6943509 10.2826095,22.5993398 C7.26916113,20.8538616 5.5,18.3092086 5.5,15.5 C5.5,10.5590184 10.6270413,6.5 17,6.5 C23.3729587,6.5 28.5,10.5590184 28.5,15.5 C28.5,20.4400443 23.3745353,24.4971511 17.002,24.4979999 C16.3333333,24.498 16.3333333,25.498 17,25.498 C17.6686666,25.4974865 17.6684955,24.498 17.002,24.498 L14.602,24.498 C14.4405216,24.498 14.296922,24.5745481 14.205509,24.6933366 C14.1405976,24.7776869 14.102,24.883336 14.102,24.998 C14.102,25.2741424 14.3258576,25.498 14.602,25.498 Z M30.4753613,33.3813985 C29.5892112,33.231294 28.7145619,32.9434084 27.8999609,32.4865446 C27.0988782,32.0372624 26.3894361,31.4417999 25.7935169,30.6815451 C25.6987387,30.56063 25.5536339,30.49 25.4,30.49 L23,30.49 C20.7223518,30.49 18.4029687,29.7845281 16.246131,28.5647765 C16.0057637,28.4288421 15.7007109,28.5135017 15.5647765,28.753869 C15.4288421,28.9942363 15.5135017,29.2992891 15.753869,29.4352235 C18.0514111,30.7345474 20.535116,31.49 23,31.49 L25.161269,31.49 C25.8081276,32.2664979 26.565781,32.8848146 27.4107975,33.3587367 C28.3325019,33.8756689 29.3152392,34.1991309 30.3083509,34.3673536 C30.9645062,34.4784994 31.5299413,34.5082266 31.9561321,34.4926435 C32.0160488,34.4900503 32.0160488,34.4900503 32.0346645,34.4887969 C32.4785535,34.4579483 32.6640541,33.9062071 32.3289618,33.6134577 C32.2887633,33.5783387 32.2043065,33.4941169 32.0891373,33.3605766 C31.8899164,33.1295773 31.6865754,32.848539 31.4923728,32.5171808 C30.9751609,31.6236058 30.6164505,30.553428 30.4945084,29.2992776 C33.6269255,27.3888663 35.5,24.6087941 35.5,21.5 C35.5,19.4231446 34.7118932,17.2698427 33.3614056,15.6766893 C33.182846,15.4660448 32.8673338,15.4400349 32.6566893,15.6185944 C32.4460448,15.797154 32.4200349,16.1126662 32.5985944,16.3233107 C33.7957802,17.7356158 34.5,19.6597177 34.5,21.5 C34.5,24.3046735 32.7308658,26.8486475 29.7199672,28.5965852 C29.5557383,28.6919262 29.4596934,28.8720711 29.4720616,29.0615654 C29.5728495,30.605747 29.9937189,31.9242063 30.6282631,33.0204771 C30.7173325,33.1724551 30.8060816,33.3129544 30.8932013,33.4420817 C30.7572881,33.4256381 30.6189163,33.4057152 30.4753613,33.3813985 Z" id="Combined-Shape"></path>
            </g>
        </g>
    </g>
</svg>