<svg width="24" height="25" viewBox="0 0 24 25" xmlns="http://www.w3.org/2000/svg"><title>0A3E9FBD-4111-4C7A-B427-2C0DFE5F62EC</title><path d="M11 17.559H4.006a1 1 0 0 1-.656-.24L.354 14.786a1 1 0 0 1 0-1.528l2.996-2.532a1 1 0 0 1 .656-.24H11V9.44H5.01c-.79-.233-.79-.233-1.01-1.01V3.378c.22-.777.22-.777 1.01-1.01H11v-1.03a1 1 0 0 1 2 0v1.03h6.994a1 1 0 0 1 .656.24l2.996 2.533a1 1 0 0 1 0 1.527L20.65 9.201a1 1 0 0 1-.656.24H13v1.044h5.99c.79.234.79.234 1.01 1.01v5.054c-.22.777-.22.777-1.01 1.01H13v6.103a1 1 0 1 1-2 0v-6.103zm-6.634-2H18v-3.074H4.366L2.55 14.022l1.817 1.537zM19.634 4.368H6V7.44h13.634l1.817-1.537-1.817-1.536z" fill="#7F9DAA" fill-rule="evenodd"/></svg>
