<svg width="24" height="24" viewBox="0 0 24 24" xmlns="http://www.w3.org/2000/svg"><title>C33719EC-88E9-4BC9-9752-C37ED69A83B3</title><g fill="#7F9DAA" fill-rule="evenodd"><path d="M22 10a1 1 0 0 0 2 0V4c0-.961-1.224-1.37-1.8-.6l-3 4A1 1 0 0 0 20 9h2v1zm0-1h1a1 1 0 0 0 0-2h-1v2zM17.023 8.195a1 1 0 0 0 .145-.125A3 3 0 1 0 12 6a1 1 0 0 0 2 0 1 1 0 1 1 1.769.637l-3.374 2.567c-.762.58-.352 1.796.605 1.796h4a1 1 0 0 0 0-2h-1.034l1.058-.805z"/><path d="M14.197 15.782l-5.98-5.98 1.677-3.355a1 1 0 0 0-.139-1.102l-4.334-5a1 1 0 0 0-1.42-.093l-3.264 2.9-.08.08c-2.088 2.086 1.06 7.795 6.631 13.366 5.599 5.603 11.398 8.839 13.5 6.736l.053-.056 2.91-3.309a1 1 0 0 0-.099-1.418l-5-4.309a1 1 0 0 0-1.1-.137l-3.355 1.677zM7.807 6.15L6.104 9.553a1 1 0 0 0 .187 1.154l7 6.998a1 1 0 0 0 1.154.188l3.405-1.701 3.73 3.215-2.23 2.538c-.247.245-1.555-.014-3.443-1.068-2.17-1.21-4.754-3.24-7.205-5.693-2.448-2.448-4.448-5.003-5.628-7.144-1.024-1.856-1.263-3.135-.986-3.413L4.572 2.42 7.806 6.15z"/></g></svg>