<?xml version="1.0" encoding="utf-8"?>
<!-- Generator: Adobe Illustrator 19.2.1, SVG Export Plug-In . SVG Version: 6.00 Build 0)  -->
<svg version="1.1" id="Слой_1" xmlns="http://www.w3.org/2000/svg" xmlns:xlink="http://www.w3.org/1999/xlink" x="0px" y="0px"
	 viewBox="0 0 35 35" style="enable-background:new 0 0 35 35;" xml:space="preserve">
<style type="text/css">
	.st0{filter:url(#Adobe_OpacityMaskFilter);}
	.st1{fill:#FFFFFF;}
	.st2{mask:url(#mask-2);}
</style>
<title>7C92EDD8-82E4-47E3-97D9-1DAA9EED0582</title>
<desc>Created with sketchtool.</desc>
<g id="Final-Design">
	<g id="_x30_.-Style" transform="translate(-669.000000, -1821.000000)">
		<g id="Icon_x2F_Social_x2F_i_x5F_twitter" transform="translate(669.000000, 1821.000000)">
			<defs>
				<filter id="Adobe_OpacityMaskFilter" filterUnits="userSpaceOnUse" x="0" y="0" width="35" height="35">
					<feColorMatrix  type="matrix" values="1 0 0 0 0  0 1 0 0 0  0 0 1 0 0  0 0 0 1 0"/>
				</filter>
			</defs>
			<mask maskUnits="userSpaceOnUse" x="0" y="0" width="35" height="35" id="mask-2">
				<g class="st0">
					<circle id="path-1" class="st1" cx="17.5" cy="17.5" r="16"/>
				</g>
			</mask>
			<g class="st2">
				<g id="Oval-4-Copy-2">
					<path d="M17.5,35C7.9,35,0,27.1,0,17.5S7.9,0,17.5,0S35,7.9,35,17.5S27.1,35,17.5,35z M17.5,3C9.5,3,3,9.5,3,17.5
						S9.5,32,17.5,32S32,25.5,32,17.5S25.5,3,17.5,3z"/>
				</g>
				<path id="XMLID_827_" d="M25.1,13.8c-0.2,0.1-0.4,0.2-0.7,0.2c0.3-0.3,0.5-0.7,0.6-1.1c0-0.1,0-0.2-0.1-0.2
					c-0.1-0.1-0.2-0.1-0.3,0c-0.5,0.3-1,0.5-1.6,0.6c-0.6-0.5-1.3-0.8-2.1-0.8c-1.6,0-3,1.3-3,3c0,0.1,0,0.3,0,0.4
					c-2-0.2-3.9-1.2-5.2-2.8c0-0.1-0.1-0.1-0.2-0.1c-0.1,0-0.1,0-0.2,0.1c-0.3,0.5-0.4,1-0.4,1.5c0,0.7,0.3,1.4,0.7,1.9
					c-0.1,0-0.3-0.1-0.4-0.2c-0.1,0-0.2,0-0.2,0c-0.1,0-0.1,0.1-0.1,0.2c0,0,0,0,0,0c0,1.1,0.6,2,1.5,2.6c-0.1,0-0.2,0-0.2,0
					c-0.1,0-0.2,0-0.2,0.1c-0.1,0.1-0.1,0.1,0,0.2c0.3,1,1.2,1.8,2.2,2c-0.8,0.5-1.8,0.8-2.8,0.8c-0.2,0-0.4,0-0.6,0
					c-0.1,0-0.2,0-0.2,0.1c0,0.1,0,0.2,0.1,0.3c1.3,0.8,2.8,1.3,4.3,1.3c3,0,4.9-1.4,6-2.6c1.3-1.5,2.1-3.5,2.1-5.4
					c0-0.1,0-0.2,0-0.2c0.5-0.4,1-0.9,1.3-1.4c0.1-0.1,0-0.2,0-0.3C25.3,13.8,25.2,13.8,25.1,13.8z"/>
			</g>
		</g>
	</g>
</g>
</svg>
