<?xml version="1.0" encoding="UTF-8"?>
<svg width="14px" height="16px" viewBox="0 0 14 16" version="1.1" xmlns="http://www.w3.org/2000/svg" xmlns:xlink="http://www.w3.org/1999/xlink">
    <!-- Generator: sketchtool 41.2 (35397) - http://www.bohemiancoding.com/sketch -->
    <title>110AE793-18D1-4D18-A321-3AFCCED4C05F</title>
    <desc>Created with sketchtool.</desc>
    <defs></defs>
    <g id="Final-Design" stroke="none" stroke-width="1" fill="none" fill-rule="evenodd">
        <g id="0.-Style" transform="translate(-623.000000, -1335.000000)" fill="#FFFFFF">
            <g id="Icon/General/i_location" transform="translate(622.000000, 1335.000000)">
                <path d="M1.5,5.97595722 C1.5,8.22630793 2.66962532,10.5615222 4.60809388,12.8642985 C5.27852692,13.6607299 5.99579852,14.3968035 6.71330357,15.0557587 C6.9647626,15.2866982 7.1985875,15.4917465 7.40894802,15.6687412 C7.53648281,15.7760473 7.62880317,15.8508806 7.68007275,15.891057 C7.86543766,16.0363143 8.13456234,16.0363143 8.31992725,15.891057 C8.37119683,15.8508806 8.46351719,15.7760473 8.59105198,15.6687412 C8.8014125,15.4917465 9.0352374,15.2866982 9.28669643,15.0557587 C10.0042015,14.3968035 10.7214731,13.6607299 11.3919061,12.8642985 C13.3303747,10.5615222 14.5,8.22630793 14.5,5.97595722 C14.5,2.67243136 11.58715,0 8,0 C4.41385068,0 1.5,2.67288787 1.5,5.97595722 Z M7.41169643,14.382145 C6.72295148,13.7496029 6.03397308,13.0425642 5.39190612,12.2798299 C3.58037468,10.1278468 2.5,7.97082576 2.5,5.97595722 C2.5,3.19817379 4.96046728,0.941176471 8,0.941176471 C11.0404959,0.941176471 13.5,3.19767989 13.5,5.97595722 C13.5,7.97082576 12.4196253,10.1278468 10.6080939,12.2798299 C9.96602692,13.0425642 9.27704852,13.7496029 8.58830357,14.382145 C8.37743883,14.5758028 8.18001843,14.7500115 8,14.903237 C7.81998157,14.7500115 7.62256117,14.5758028 7.41169643,14.382145 Z M10,6 C10,4.89549076 9.10492153,4 8,4 C6.89628475,4 6,4.89628475 6,6 C6,7.10492153 6.89549076,8 8,8 C9.10571525,8 10,7.10571525 10,6 Z M11,6 C11,7.658 9.658,9 8,9 C6.344,9 5,7.658 5,6 C5,4.344 6.344,3 8,3 C9.658,3 11,4.344 11,6 Z" id="Combined-Shape"></path>
            </g>
        </g>
    </g>
</svg>