<?xml version="1.0" encoding="UTF-8"?>
<svg width="18px" height="24px" viewBox="0 0 18 24" version="1.1" xmlns="http://www.w3.org/2000/svg" xmlns:xlink="http://www.w3.org/1999/xlink">
    <!-- Generator: sketchtool 41.2 (35397) - http://www.bohemiancoding.com/sketch -->
    <title>86BE39DE-1837-4ACE-B24D-62B6BE70085C</title>
    <desc>Created with sketchtool.</desc>
    <defs>
        <polygon id="path-1" points="0 2 3.99719238 2 14.0186768 2 18 2 18 24 0 24"></polygon>
        <mask id="mask-2" maskContentUnits="userSpaceOnUse" maskUnits="objectBoundingBox" x="0" y="0" width="18" height="22" fill="white">
            <use xlink:href="#path-1"></use>
        </mask>
        <rect id="path-3" x="4" y="0" width="10" height="5" rx="2.5"></rect>
        <mask id="mask-4" maskContentUnits="userSpaceOnUse" maskUnits="objectBoundingBox" x="0" y="0" width="10" height="5" fill="white">
            <use xlink:href="#path-3"></use>
        </mask>
    </defs>
    <g id="Final-Design" stroke="none" stroke-width="1" fill="none" fill-rule="evenodd">
        <g id="Menu-960px-" transform="translate(-924.000000, -30.000000)">
            <g id="icon" transform="translate(924.000000, 30.000000)">
                <g id="Page-1" transform="translate(2.000000, 7.000000)">
                    <path d="M11.999,1 L5.999,1" id="Stroke-7" stroke="#FFFFFF" stroke-width="2" stroke-linecap="round" stroke-linejoin="round"></path>
                    <path d="M9.999,9 L9.999,13" id="Stroke-9" stroke="#FFFFFF" stroke-width="2" stroke-linecap="round" stroke-linejoin="round"></path>
                    <path d="M11.999,11 L7.999,11" id="Stroke-11" stroke="#FFFFFF" stroke-width="2" stroke-linecap="round" stroke-linejoin="round"></path>
                    <polygon id="Fill-13" fill="#FFFFFF" points="0.999 2 2.999 2 2.999 0 0.999 0"></polygon>
                    <path d="M11.999,5 L5.999,5" id="Stroke-15" stroke="#FFFFFF" stroke-width="2" stroke-linecap="round" stroke-linejoin="round"></path>
                    <polygon id="Fill-16" fill="#FFFFFF" points="0.999 6 2.999 6 2.999 4 0.999 4"></polygon>
                </g>
                <use id="Rectangle-8" stroke="#FFFFFF" mask="url(#mask-2)" stroke-width="4" xlink:href="#path-1"></use>
                <use id="Rectangle-19" stroke="#FFFFFF" mask="url(#mask-4)" stroke-width="4" fill="#F5634C" xlink:href="#path-3"></use>
            </g>
        </g>
    </g>
</svg>