<svg xmlns="http://www.w3.org/2000/svg" xmlns:xlink="http://www.w3.org/1999/xlink" preserveAspectRatio="xMidYMid" width="38" height="53" viewBox="0 0 38 53">
  <defs>
    <style>
      .cls-1 {
        fill: #00b9cd;
        fill-rule: evenodd;
      }
    </style>
  </defs>
  <path d="M37.140,53.000 L0.860,53.000 C0.385,53.000 -0.000,52.617 -0.000,52.145 L-0.000,6.597 C-0.000,6.125 0.385,5.742 0.860,5.742 L5.563,5.742 C6.038,5.742 6.424,6.125 6.424,6.597 C6.424,7.069 6.038,7.452 5.563,7.452 L1.721,7.452 L1.721,51.290 L36.279,51.290 L36.279,7.452 L32.437,7.452 C31.962,7.452 31.576,7.069 31.576,6.597 C31.576,6.125 31.962,5.742 32.437,5.742 L37.140,5.742 C37.615,5.742 38.000,6.125 38.000,6.597 L38.000,52.145 C38.000,52.617 37.615,53.000 37.140,53.000 ZM28.995,45.646 L9.152,45.646 C8.677,45.646 8.291,45.264 8.291,44.792 C8.291,44.319 8.677,43.937 9.152,43.937 L28.995,43.937 C29.471,43.937 29.856,44.319 29.856,44.792 C29.856,45.264 29.471,45.646 28.995,45.646 ZM28.995,36.241 L9.152,36.241 C8.677,36.241 8.291,35.859 8.291,35.386 C8.291,34.914 8.677,34.532 9.152,34.532 L28.995,34.532 C29.471,34.532 29.856,34.914 29.856,35.386 C29.856,35.859 29.471,36.241 28.995,36.241 ZM28.995,26.836 L9.152,26.836 C8.677,26.836 8.291,26.453 8.291,25.981 C8.291,25.509 8.677,25.126 9.152,25.126 L28.995,25.126 C29.471,25.126 29.856,25.509 29.856,25.981 C29.856,26.453 29.471,26.836 28.995,26.836 ZM28.995,17.431 L9.152,17.431 C8.677,17.431 8.291,17.048 8.291,16.576 C8.291,16.104 8.677,15.721 9.152,15.721 L28.995,15.721 C29.471,15.721 29.856,16.104 29.856,16.576 C29.856,17.048 29.471,17.431 28.995,17.431 ZM28.995,10.077 L26.772,10.077 C26.768,10.077 26.765,10.075 26.762,10.075 C26.758,10.075 26.755,10.077 26.751,10.077 L9.005,10.077 C8.529,10.077 8.144,9.695 8.144,9.223 L8.144,5.474 C8.144,4.175 9.208,3.118 10.516,3.118 L15.095,3.118 C15.489,1.337 17.090,-0.000 19.000,-0.000 C20.910,-0.000 22.511,1.337 22.905,3.118 L27.484,3.118 C28.792,3.118 29.856,4.175 29.856,5.474 L29.856,9.223 C29.856,9.695 29.471,10.077 28.995,10.077 ZM28.135,5.474 C28.135,5.117 27.843,4.827 27.484,4.827 L22.138,4.827 C21.663,4.827 21.278,4.445 21.278,3.973 C21.278,2.725 20.256,1.710 19.000,1.710 C17.744,1.710 16.722,2.725 16.722,3.973 C16.722,4.445 16.337,4.827 15.862,4.827 L10.516,4.827 C10.157,4.827 9.865,5.117 9.865,5.474 L9.865,8.368 L26.751,8.368 C26.755,8.368 26.758,8.370 26.762,8.370 C26.765,8.370 26.768,8.368 26.772,8.368 L28.135,8.368 L28.135,5.474 Z" class="cls-1"/>
</svg>
