<?xml version="1.0" encoding="UTF-8"?>
<svg width="22px" height="22px" viewBox="0 0 22 22" version="1.1" xmlns="http://www.w3.org/2000/svg" xmlns:xlink="http://www.w3.org/1999/xlink">
    <!-- Generator: sketchtool 41.2 (35397) - http://www.bohemiancoding.com/sketch -->
    <title>8C206A30-E716-435A-A46E-9FF7B93DC5B0</title>
    <desc>Created with sketchtool.</desc>
    <defs></defs>
    <g id="Final-Design" stroke="none" stroke-width="1" fill="none" fill-rule="evenodd">
        <g id="0.-Style" transform="translate(-942.000000, -1663.000000)" fill="#7F9DAA">
            <g id="Icon/Medicine/i_transplantation" transform="translate(941.000000, 1662.000000)">
                <path d="M12,22.75 C17.9370611,22.75 22.75,17.9370611 22.75,12 C22.75,6.06293894 17.9370611,1.25 12,1.25 C6.06293894,1.25 1.25,6.06293894 1.25,12 C1.25,17.9370611 6.06293894,22.75 12,22.75 Z M12,21.25 C6.89136606,21.25 2.75,17.1086339 2.75,12 C2.75,6.89136606 6.89136606,2.75 12,2.75 C17.1086339,2.75 21.25,6.89136606 21.25,12 C21.25,17.1086339 17.1086339,21.25 12,21.25 Z" id="Oval-12"></path>
                <polygon id="Path-9-Copy-4" points="12.4725505 14.5655597 21.0345622 7.6185382 20.0894612 6.45372742 11.5274495 13.4007489"></polygon>
                <polygon id="Path-9-Copy-5" points="12.4769361 9.56197373 18.4896314 4.60762803 17.5357592 3.44998916 11.5230639 8.40433486"></polygon>
                <polygon id="Path-9-Copy-6" points="12.4950884 19.5465258 22.1354693 11.074602 21.1452925 9.94785894 11.5049116 18.4197828"></polygon>
                <polygon id="Path-9" points="11 2 11 22.2616161 12.5 22.2616161 12.5 2"></polygon>
            </g>
        </g>
    </g>
</svg>