<?xml version="1.0" encoding="utf-8"?>
<!-- Generator: Adobe Illustrator 19.2.1, SVG Export Plug-In . SVG Version: 6.00 Build 0)  -->
<svg version="1.1" id="Слой_1" xmlns="http://www.w3.org/2000/svg" xmlns:xlink="http://www.w3.org/1999/xlink" x="0px" y="0px"
	 viewBox="0 0 16 16" style="enable-background:new 0 0 16 16;" xml:space="preserve">
<title>1E8ED9C8-BD78-4FE1-8D5D-6DDD62061D32</title>
<desc>Created with sketchtool.</desc>
<g id="Final-Design">
	<g id="_x30_.-Style" transform="translate(-948.000000, -1335.000000)">
		<g id="Icon_x2F_General_x2F_i_x5F_question" transform="translate(948.000000, 1335.000000)">
			<path id="Combined-Shape" d="M8,16c4.4,0,8-3.6,8-8s-3.6-8-8-8S0,3.6,0,8S3.6,16,8,16z M7.2,10.6V9.7c0-0.3,0-0.5,0.1-0.7
				c0-0.2,0.1-0.3,0.2-0.5c0.1-0.1,0.2-0.3,0.3-0.4s0.3-0.3,0.5-0.5c0.2-0.2,0.3-0.3,0.5-0.5c0.2-0.2,0.3-0.3,0.4-0.5
				c0.1-0.2,0.2-0.3,0.3-0.5s0.1-0.4,0.1-0.6c0-0.2,0-0.4-0.1-0.6C9.4,4.6,9.3,4.4,9.2,4.3C9,4.2,8.9,4,8.7,4C8.5,3.9,8.3,3.8,8,3.8
				C7.5,3.8,7.1,4,6.8,4.3C6.5,4.6,6.3,5,6.3,5.5L4.7,5.4c0.1-0.9,0.5-1.6,1.1-2.1s1.4-0.8,2.2-0.8c0.4,0,0.8,0.1,1.2,0.2
				c0.4,0.1,0.7,0.3,1,0.5c0.3,0.2,0.5,0.5,0.6,0.9s0.2,0.7,0.2,1.2c0,0.4-0.1,0.7-0.2,1c-0.1,0.3-0.3,0.6-0.5,0.8L9.6,8.1L9.4,8.3
				C9.2,8.4,9.1,8.6,9,8.7C8.9,8.8,8.9,8.9,8.8,9S8.7,9.2,8.7,9.4c0,0.1,0,0.3,0,0.5v0.7H7.2z M6.9,12.7c0-0.3,0.1-0.5,0.3-0.7
				c0.2-0.2,0.4-0.3,0.7-0.3c0.3,0,0.5,0.1,0.7,0.3c0.2,0.2,0.3,0.4,0.3,0.7s-0.1,0.5-0.3,0.7c-0.2,0.2-0.4,0.3-0.7,0.3
				c-0.3,0-0.5-0.1-0.7-0.3C7,13.2,6.9,13,6.9,12.7z"/>
		</g>
	</g>
</g>
</svg>
