<?xml version="1.0" encoding="utf-8"?>
<!-- Generator: Adobe Illustrator 19.2.1, SVG Export Plug-In . SVG Version: 6.00 Build 0)  -->
<svg version="1.1" id="Слой_1" xmlns="http://www.w3.org/2000/svg" xmlns:xlink="http://www.w3.org/1999/xlink" x="0px" y="0px"
	 viewBox="0 0 24 24" style="enable-background:new 0 0 24 24;" xml:space="preserve">
<title>510EF3FC-0B55-4194-8605-8867994564DA</title>
<desc>Created with sketchtool.</desc>
<g id="Final-Design">
	<g id="_x30_.-Style" transform="translate(-782.000000, -1619.000000)">
		<g id="Icon_x2F_Medicine_x2F_i_x5F_diagnostic" transform="translate(782.000000, 1619.000000)">
			<path fill="#00b9cd" id="Stroke-1" d="M22.3,13c0,1.2-1,2.3-2.3,2.3c-1.2,0-2.3-1-2.3-2.3s1-2.3,2.3-2.3C21.2,10.8,22.3,11.8,22.3,13z M23.8,13
				c0-2.1-1.7-3.8-3.8-3.8c-2.1,0-3.8,1.7-3.8,3.8s1.7,3.8,3.8,3.8C22.1,16.8,23.8,15.1,23.8,13z"/>
			<path fill="#00b9cd" id="Stroke-3" d="M20.8,18v-2c0-0.4-0.3-0.7-0.8-0.7s-0.8,0.3-0.8,0.7v2c0,0.4,0.3,0.8,0.8,0.8S20.8,18.4,20.8,18z"/>
			<path fill="#00b9cd" id="Stroke-5" d="M4,0.3c-0.1,0-0.3,0-0.5,0.1C3,0.4,2.7,0.4,2.3,0.5c-1.2,0.4-2,1-2,2.1c0,1.2,0.8,4.5,1.8,7
				c1.5,3.8,3.5,6.1,6,6.1c0.4,0,0.8-0.3,0.8-0.8S8.4,14.3,8,14.3c-1.7,0-3.3-1.9-4.6-5.2C2.5,6.7,1.8,3.6,1.8,2.6
				c0-0.2,0.3-0.5,1-0.6C3,1.9,3.3,1.8,3.6,1.8c0.2,0,0.3,0,0.4,0c0.4,0,0.7-0.4,0.7-0.8S4.4,0.2,4,0.3z"/>
			<path fill="#00b9cd" id="Stroke-7" d="M12,1.7c0.1,0,0.2,0,0.4,0c0.3,0,0.6,0.1,0.9,0.2c0.7,0.2,1,0.4,1,0.6c0,1-0.7,4.1-1.7,6.5
				c-1.3,3.3-2.9,5.2-4.6,5.2c-0.4,0-0.8,0.3-0.8,0.8s0.3,0.8,0.8,0.8c2.5,0,4.5-2.3,6-6.1c1-2.5,1.8-5.8,1.8-7c0-1.1-0.8-1.7-2-2.1
				c-0.4-0.1-0.8-0.2-1.1-0.2c-0.2,0-0.4,0-0.5-0.1c-0.4,0-0.8,0.3-0.8,0.7S11.5,1.7,12,1.7z"/>
			<path fill="#00b9cd" id="Stroke-9" d="M19.3,18.1c0,2.8-2.1,4.2-5.6,4.2c-2.9,0-4.9-2.3-4.9-5.6c0-0.4-0.3-0.8-0.8-0.8c-0.4,0-0.8,0.3-0.8,0.8
				c0,4.1,2.6,7.1,6.4,7.1c4.3,0,7.1-2,7.1-5.7c0-0.4-0.3-0.8-0.8-0.8S19.3,17.7,19.3,18.1z"/>
			<path fill="#00b9cd" id="Stroke-11" d="M7.3,15v1.6c0,0.4,0.3,0.8,0.8,0.8c0.4,0,0.8-0.3,0.8-0.8V15c0-0.4-0.3-0.8-0.8-0.8
				C7.6,14.3,7.3,14.6,7.3,15z"/>
		</g>
	</g>
</g>
</svg>
