<?xml version="1.0" encoding="utf-8"?>
<!-- Generator: Adobe Illustrator 19.2.1, SVG Export Plug-In . SVG Version: 6.00 Build 0)  -->
<svg version="1.1" id="Слой_1" xmlns="http://www.w3.org/2000/svg" xmlns:xlink="http://www.w3.org/1999/xlink" x="0px" y="0px"
	 viewBox="0 0 24 22" style="enable-background:new 0 0 24 22;" xml:space="preserve">
<title>5F1C193D-0041-42B6-BABB-93D4A25DFB1C</title>
<desc>Created with sketchtool.</desc>
<g id="Final-Design">
	<g id="_x30_.-Style" transform="translate(-980.000000, -1620.000000)">
		<g id="Icon_x2F_Medicine_x2F_i_x5F_surgery" transform="translate(980.000000, 1619.000000)">
			<path fill="#00b9cd" id="Stroke-1" d="M7.1,16L19.9,3.2c0.3-0.3,0.3-0.8,0-1.1s-0.8-0.3-1.1,0L5.5,15.5c-0.3,0.3-0.3,0.8,0,1.1l3,3
				c0.3,0.3,0.8,0.3,1.1,0L22.9,6.2c0.3-0.3,0.3-0.8,0-1.1s-0.8-0.3-1.1,0L9,17.9L7.1,16z"/>
			<path fill="#00b9cd" id="Stroke-3" d="M20,3.3c0.4-0.4,1.2-0.4,1.6,0c0.4,0.4,0.4,1.2,0,1.6c-0.4,0.4-0.4,1,0,1.4c0.4,0.4,1,0.4,1.4,0
				c1.2-1.2,1.2-3.2,0-4.5c-1.2-1.2-3.2-1.2-4.5,0c-0.4,0.4-0.4,1,0,1.4S19.6,3.7,20,3.3z"/>
			<path fill="#00b9cd" id="Stroke-5" d="M8.5,19.5l-2,2c-0.3,0.3-0.3,0.8,0,1.1c0.3,0.3,0.8,0.3,1.1,0l2.5-2.5c0.3-0.3,0.3-0.8,0-1.1l-3-3
				c-0.3-0.3-0.8-0.3-1.1,0l-5.5,5.5c-0.3,0.3-0.3,0.8,0,1.1s0.8,0.3,1.1,0l5-5L8.5,19.5z"/>
			<path fill="#00b9cd" id="Stroke-7" d="M1,22.7l5.9,0.1c0.4,0,0.8-0.3,0.8-0.7c0-0.4-0.3-0.8-0.7-0.8L1,21.3c-0.4,0-0.8,0.3-0.8,0.7
				C0.2,22.4,0.6,22.7,1,22.7z"/>
			<path fill="#00b9cd" id="Stroke-7-Copy" d="M12,22.8h2.5c0.4,0,0.8-0.3,0.8-0.8s-0.3-0.8-0.8-0.8H12c-0.4,0-0.8,0.3-0.8,0.8S11.6,22.8,12,22.8z"
				/>
			<path fill="#00b9cd" id="Stroke-7-Copy-2" d="M18,22.8h2.5c0.4,0,0.8-0.3,0.8-0.8s-0.3-0.8-0.8-0.8H18c-0.4,0-0.8,0.3-0.8,0.8S17.6,22.8,18,22.8
				z"/>
			<path fill="#00b9cd" id="Stroke-9" d="M8.5,13.5l3,3c0.3,0.3,0.8,0.3,1.1,0c0.3-0.3,0.3-0.8,0-1.1l-3-3c-0.3-0.3-0.8-0.3-1.1,0
				C8.2,12.8,8.2,13.2,8.5,13.5z"/>
		</g>
	</g>
</g>
</svg>
