<?xml version="1.0" encoding="utf-8"?>
<!-- Generator: Adobe Illustrator 19.2.1, SVG Export Plug-In . SVG Version: 6.00 Build 0)  -->
<svg version="1.1" id="Слой_1" xmlns="http://www.w3.org/2000/svg" xmlns:xlink="http://www.w3.org/1999/xlink" x="0px" y="0px"
	 viewBox="0 0 24 22" style="enable-background:new 0 0 24 22;" xml:space="preserve">
<title>F7A6287C-8330-4C2E-85A9-5D2F2A5AA11D</title>
<desc>Created with sketchtool.</desc>
<g id="Final-Design">
	<g id="_x30_.-Style" transform="translate(-741.000000, -1662.000000)">
		<g id="Icon_x2F_Medicine_x2F_i_x5F_orthopedics" transform="translate(741.000000, 1660.000000)">
			<path fill="#00b9cd" id="Stroke-1" d="M1.8,2.1L1.8,12.6c0,0.1,0,0.2,0,0.4c0,0.3,0,0.6-0.1,1c-0.1,1-0.2,2-0.5,2.9c0,0.1-0.1,0.2-0.1,0.4
				c0-0.1-0.1,0.4-0.2,0.6c-0.2,0.8-0.3,1.5-0.2,2.3c0.4,2.2,2.4,3.4,6.1,3.2c1.4-0.1,2.4-0.2,3.2-0.3c0.3-0.1,0.6-0.1,0.8-0.2
				c0.1,0,0.4-0.1,0.4-0.2c0.4-0.1,1.2-0.1,6.6,0.7c2.8,0.4,5.3-0.5,5.7-2.2c0.5-1.9-1.9-3.6-6.6-4.5c-1.5-0.3-3.1-1.3-4.6-2.6
				c-1.2-1.1-2-2.3-2-2.6l0.1-9.5L9,2.1L9,11.5c0,1.9,4.4,6,7.8,6.7c2.1,0.4,3.7,1,4.6,1.6c0.7,0.4,0.9,0.8,0.8,1.1
				c-0.2,0.7-2,1.3-4.1,1c-5.8-0.8-6.5-0.9-7.3-0.6c-0.1,0-0.3,0.1-0.4,0.2c-0.2,0.1-0.4,0.1-0.7,0.2c-0.6,0.1-1.6,0.2-3,0.3
				c-3.1,0.2-4.3-0.6-4.6-2c-0.1-0.5,0-1.1,0.1-1.6c0.1-0.2,0.2-0.6,0.2-0.6c0-0.1,0.1-0.3,0.1-0.4c0.3-1,0.4-2.1,0.5-3.2
				c0-0.4,0.1-0.7,0.1-1c0-0.2,0-0.3,0-0.4L3.3,2.1L1.8,2.1z"/>
			<path fill="#00b9cd" id="Stroke-3" d="M4.3,15.1L4.4,16c0.2,1.3,1,2.4,2.1,3l0.7,0.4L7.9,18l-0.7-0.4c-0.7-0.4-1.2-1.1-1.3-1.9l-0.1-0.9
				L4.3,15.1z"/>
		</g>
	</g>
</g>
</svg>
