<?xml version="1.0" encoding="UTF-8"?>
<svg width="26px" height="35px" viewBox="0 0 26 35" version="1.1" xmlns="http://www.w3.org/2000/svg" xmlns:xlink="http://www.w3.org/1999/xlink">
    <!-- Generator: sketchtool 41.2 (35397) - http://www.bohemiancoding.com/sketch -->
    <title>EF5D0BFD-6F57-4917-B1CC-D9657A981F69</title>
    <desc>Created with sketchtool.</desc>
    <defs></defs>
    <g id="Final-Design" stroke="none" stroke-width="1" fill="none" fill-rule="evenodd">
        <g id="0.-Style" transform="translate(-684.000000, -1550.000000)">
            <g id="Icon/Service/i_food" transform="translate(677.000000, 1548.000000)">
                <path d="M12,17.9995117 L7,15 L7,3 L22,3 L22,15 L17,17.9995117 L17,34 C17,34 17,37.0739746 14.5,37 C12,36.9260254 12,34 12,34 L12,17.9995117 Z M21,4 L8,4 L8,14.4337622 L13,17.4332739 L13,17.9995117 L13,34 C13,34.0488049 13.007252,34.1661315 13.0303414,34.3262265 C13.0692778,34.5961996 13.1388603,34.864235 13.2424344,35.1036185 C13.4921177,35.6806941 13.8689639,35.9808901 14.5295769,36.0004375 C15.1717055,36.019438 15.5270333,35.7340447 15.7706162,35.127823 C15.8685273,34.884145 15.9343379,34.6111658 15.9711647,34.3362057 C15.9930759,34.1726095 16,34.0519826 16,34 L16,17.4332739 L21,14.4337622 L21,4 Z" id="Combined-Shape" fill="#00B9CD" fill-rule="evenodd"></path>
                <path d="M10.5,3.5 L10.5,10" id="Path-45" stroke="#00B9CD" stroke-width="1"></path>
                <path d="M18.5,3.5 L18.5,10" id="Path-45" stroke="#00B9CD" stroke-width="1"></path>
                <path d="M14.5,3.5 L14.5,10" id="Path-45" stroke="#00B9CD" stroke-width="1"></path>
                <path d="M25.3415625,4.45872205 C26.1196431,4.92297233 26.9009666,5.56800998 27.632877,6.42356572 C29.7484497,8.8965329 31.0256348,12.5821792 31.0256348,17.7433947 C31.0719059,18.2992045 31.0830782,19.4193319 31.0673767,20.9459152 C31.0610342,21.5625675 31.0505697,22.2199668 31.0371315,22.8924895 C31.0293302,23.2829055 31.020991,23.655277 31.0126338,23.9980573 L27.9975504,24.0003883 L28.0467589,34.0615275 C28.0503741,34.1184079 28.0503741,34.1184079 28.0537522,34.1618176 C28.0728949,34.4522549 28.0443516,34.7988934 27.934049,35.1150686 C27.7313473,35.6960998 27.3145815,36.013441 26.5082913,36.0000688 C25.7016315,35.9866903 25.2687462,35.663453 25.050807,35.0995348 C24.9264748,34.7778248 24.8915855,34.4271758 24.9081085,34.1417393 C24.9101131,34.112551 24.997824,4.26471099 24.997824,4.26471099 C25.1037845,4.32093778 25.2187138,4.38542299 25.3415625,4.45872205 Z M24.1180432,35.4600228 C24.4784069,36.3924653 25.2646833,36.9795811 26.4917087,36.9999312 C27.7470383,37.0207508 28.5385987,36.418027 28.8782409,35.4444645 C29.0399086,34.9810543 29.0787934,34.5088276 29.0515871,34.0960501 C29.0460902,34.0247233 29.0022809,24.9996118 29.0022809,24.9996118 L31.9863548,24.9973048 L31.9998084,24.5115226 C32.0021368,24.4274453 32.0062009,24.2726087 32.0114219,24.0598306 C32.020119,23.7053908 32.0288152,23.3186678 32.0369319,22.9124675 C32.0504305,22.2369249 32.060945,21.5763815 32.0673238,20.9562 C32.0833939,19.3937826 32.0720634,18.2577944 32.0237696,17.7002471 C32.0256348,12.3505635 30.6682068,8.43335539 28.3927578,5.77350327 C27.5878106,4.83257225 26.7225009,4.11819802 25.8539483,3.59996666 C25.324335,3.2839671 24.9040224,3.101907 24.6482776,3.02249214 L24.0019296,2.82178568 L23.9130251,34.0368652 C23.8857278,34.4994479 23.9338944,34.9835372 24.1180432,35.4600228 Z" id="Path-44" fill="#00B9CD" fill-rule="evenodd"></path>
            </g>
        </g>
    </g>
</svg>