<?xml version="1.0" encoding="UTF-8"?>
<svg width="40px" height="37px" viewBox="0 0 40 37" version="1.1" xmlns="http://www.w3.org/2000/svg" xmlns:xlink="http://www.w3.org/1999/xlink">
    <!-- Generator: sketchtool 41.2 (35397) - http://www.bohemiancoding.com/sketch -->
    <title>28D6D4F1-01D3-4C6F-880E-65F52C978395</title>
    <desc>Created with sketchtool.</desc>
    <defs></defs>
    <g id="Final-Design" stroke="none" stroke-width="1" fill="none" fill-rule="evenodd">
        <g id="0.-Style" transform="translate(-845.000000, -1550.000000)" fill="#00B9CD">
            <g id="Icon/Service/i_prayer" transform="translate(845.000000, 1548.000000)">
                <path d="M21.4107002,7.99830145 C21.5149838,8.0781457 21.718127,8.26654878 21.9881523,8.57523265 C22.4502095,9.10344073 22.9153212,9.77561198 23.3517295,10.6040053 C24.6129762,12.9981128 25.3735352,16.164571 25.3735352,20.2058893 L26.3735352,20.2058893 C26.3735352,16.0043901 25.5745162,12.6778102 24.2364663,10.1379145 C23.4214473,8.59083946 22.5937624,7.64465822 22.018621,7.20430377 L21.4107002,7.99830145 Z" id="Path-3"></path>
                <path d="M38.2947952,30.4533318 L32.0618538,36.850779 L22,27.2854459 L22,13.1735993 C22.4513409,13.3829345 22.9094172,13.7338737 23.3453321,14.2649495 C24.6583747,15.8646315 25.463623,18.6804291 25.463623,23.0232327 L26.463623,23.0232327 C26.463623,18.4669481 25.5950127,15.429586 24.118291,13.6304934 C23.1886324,12.4978888 22.2249389,12.0557461 21.5394017,12.0015549 L21,11.9589156 L21,27.7145541 L32.088781,38.2561388 L39.7052048,30.438695 L35.8046975,26.5980342 C33.3155569,24.1470851 33.1560366,23.9900124 32.4190391,23.2643228 C32.7022864,17.052274 29.1291478,10.3121724 24.041681,4.23189055 C23.2890494,3.33238344 22.2188903,2.58674458 21.5002512,2.93583922 C20.507168,3.4182511 20.900136,5.33156439 22.647575,9.28958772 L23.5623859,8.88570525 C22.7245646,6.98800457 22.2296272,5.60072726 22.0431037,4.69256717 C21.9160992,4.07419776 21.9527886,3.82775312 21.9371971,3.83532703 C22.0344282,3.78809491 22.8306745,4.3428837 23.274737,4.87360457 C28.2712199,10.8451472 31.7713937,17.4901587 31.4087047,23.4321446 L31.3948427,23.6592471 L35.1030783,27.3105863 C37.496866,29.6676454 37.7360989,29.9032078 38.4064178,30.5632418 L38.2947952,30.4533318 Z" id="Path-2"></path>
                <path d="M17.981379,7.20430377 C17.4062376,7.64465822 16.5785527,8.59083946 15.7635337,10.1379145 C14.4254838,12.6778102 13.6264648,16.0043901 13.6264648,20.2058893 L14.6264648,20.2058893 C14.6264648,16.164571 15.3870238,12.9981128 16.6482705,10.6040053 C17.0846788,9.77561198 17.5497905,9.10344073 18.0118477,8.57523265 C18.281873,8.26654878 18.4850162,8.0781457 18.5892998,7.99830145 L17.981379,7.20430377 Z" id="Path-3"></path>
                <path d="M1.70520483,30.4533318 L1.35812791,30.0970945 L1.35080961,30.8022895 C1.43940841,30.7150501 1.51915273,30.6365293 1.59358221,30.5632418 L1.70520483,30.4533318 Z M4.19530245,26.5980342 L0.294795174,30.438695 L7.911219,38.2561388 L19,27.7145541 L19,11.9589156 L18.4605983,12.0015549 C17.7750611,12.0557461 16.8113676,12.4978888 15.881709,13.6304934 C14.4049873,15.429586 13.536377,18.4669481 13.536377,23.0232327 L14.536377,23.0232327 C14.536377,18.6804291 15.3416253,15.8646315 16.6546679,14.2649495 C17.0905828,13.7338737 17.5486591,13.3829345 18,13.1735993 L18,27.2854459 L7.93814623,36.850779 L1.70520483,30.4533318 C2.26390108,29.9032078 2.50313404,29.6676454 4.89692167,27.3105863 L8.60515726,23.6592471 L8.5912953,23.4321446 C8.22860633,17.4901587 11.7287801,10.8451472 16.725263,4.87360457 C17.1693255,4.3428837 17.9655718,3.78809491 18.0628029,3.83532703 C18.0472114,3.82775312 18.0839008,4.07419776 17.9568963,4.69256717 C17.7703728,5.60072726 17.2754354,6.98800457 16.4376141,8.88570525 L17.352425,9.28958772 C19.099864,5.33156439 19.492832,3.4182511 18.4997488,2.93583922 C17.7811097,2.58674458 16.7109506,3.33238344 15.958319,4.23189055 C10.8708522,10.3121724 7.29771356,17.052274 7.58096087,23.2643228 C6.84396145,23.9900143 6.68442803,24.1470999 4.19530245,26.5980342 Z" id="Path-2"></path>
            </g>
        </g>
    </g>
</svg>