<?xml version="1.0" encoding="utf-8"?>
<!-- Generator: Adobe Illustrator 19.2.1, SVG Export Plug-In . SVG Version: 6.00 Build 0)  -->
<svg version="1.1" id="Слой_1" xmlns="http://www.w3.org/2000/svg" xmlns:xlink="http://www.w3.org/1999/xlink" x="0px" y="0px"
	 viewBox="0 0 24 19" style="enable-background:new 0 0 24 19;" xml:space="preserve">
<title>21CD2367-3832-4994-85F2-7BDB0528548D</title>
<desc>Created with sketchtool.</desc>
<g id="Final-Design">
	<g id="_x30_.-Style" transform="translate(-742.000000, -1622.000000)">
		<g id="Icon_x2F_Medicine_x2F_i_x5F_gynecology" transform="translate(742.000000, 1619.000000)">
			<path fill="#00b9cd" id="Path-5" d="M10.7,16.3c0.2-1.6,0-3.5-0.8-5.2c-0.3-0.6-0.6-1.2-1.1-1.7C8.7,9.2,7.8,8.1,7.5,7.7
				C7.3,7.5,7.2,7.3,7.1,7.1c-0.8-1-1.3-1.8-1.3-2.2c0-0.2,0-0.2,0-0.1c0,0,0.2-0.1,0.6,0C7.3,4.8,9,5.3,12,6.3l0.5-1.4
				c-3.1-1-4.9-1.5-6-1.6C4.9,3.2,4.1,3.8,4.3,5.1C4.4,5.8,4.9,6.7,5.9,8C6,8.2,6.2,8.4,6.3,8.6c0.3,0.4,1.2,1.5,1.3,1.7
				c0.4,0.4,0.6,0.9,0.9,1.4c0.7,1.5,0.8,3,0.7,4.4c0,0.2,0,0.3,0,0.3l0,0.1v5.2h1.5v-5.2C10.7,16.6,10.7,16.4,10.7,16.3z"/>
			<path fill="#00b9cd" id="Path-6" d="M4.7,4.8c0.9,0,1.8,0.1,2.8,0.2c0.3,0.1,0.6,0.1,0.8,0.2c0.1,0,0.2,0.1,0.3,0.1L9,3.8C9,3.8,8.9,3.8,8.7,3.7
				C8.4,3.7,8.1,3.6,7.8,3.6C6.8,3.3,5.7,3.2,4.7,3.3C4,3.3,3.4,3.4,2.9,3.6L2.8,3.6c-3.1,1.6-3.4,3.6-0.6,6l1-1.1
				C1.1,6.8,1.2,6.1,3.4,5C3.8,4.9,4.2,4.8,4.7,4.8z"/>
			<path fill="#00b9cd" id="Oval-2" d="M4,11c-0.4,0.4-1,0.5-1.3,0.2c-0.3-0.3-0.3-0.9,0.2-1.3c0.4-0.4,1-0.5,1.3-0.2C4.5,10,4.4,10.6,4,11z M5,12
				c1-1,1.1-2.5,0.2-3.5S2.7,7.8,1.7,8.7s-1.1,2.5-0.2,3.5C2.5,13.1,4.1,13,5,12z"/>
			<path fill="#00b9cd" id="Path-5_1_" d="M13.3,21.8h1.5v-5.2l0-0.1c0,0,0-0.2,0-0.3c-0.2-1.4,0-2.9,0.7-4.4c0.2-0.5,0.5-1,0.9-1.4
				c0.1-0.1,1-1.3,1.3-1.7C17.8,8.4,18,8.2,18.1,8c1-1.3,1.5-2.2,1.6-2.9c0.2-1.3-0.7-2-2.1-1.8c-1.2,0.1-3,0.6-6,1.6L12,6.3
				c2.9-1,4.7-1.5,5.7-1.5c0.4,0,0.6,0,0.6,0c0,0,0,0,0,0.1c0,0.3-0.5,1.1-1.3,2.2c-0.1,0.2-0.3,0.4-0.5,0.6
				c-0.3,0.4-1.2,1.5-1.3,1.7c-0.4,0.5-0.8,1.1-1.1,1.7c-0.8,1.8-1,3.6-0.8,5.2c0,0.2,0,0.3,0.1,0.4V21.8z"/>
			<path fill="#00b9cd" id="Path-6_1_" d="M20.9,8.5l1,1.1c2.8-2.4,2.5-4.4-0.6-6l-0.1-0.1c-0.5-0.2-1.1-0.2-1.8-0.3c-1,0-2.1,0.1-3.1,0.3
				c-0.3,0.1-0.6,0.1-0.9,0.2c-0.2,0-0.3,0.1-0.3,0.1l0.4,1.4c0,0,0.1,0,0.3-0.1c0.2-0.1,0.5-0.1,0.8-0.2c1-0.2,1.9-0.3,2.8-0.2
				c0.5,0,1,0.1,1.4,0.2C22.8,6.1,22.9,6.8,20.9,8.5z"/>
			<path fill="#00b9cd" id="Oval-2_1_" d="M19,12c1,1,2.5,1.1,3.5,0.2c0.9-0.9,0.8-2.5-0.2-3.5s-2.5-1.1-3.5-0.2S18,11.1,19,12z M20,11
				c-0.4-0.4-0.5-1-0.2-1.3c0.3-0.3,0.9-0.3,1.3,0.2c0.4,0.4,0.5,1,0.2,1.3C21,11.5,20.4,11.4,20,11z"/>
		</g>
	</g>
</g>
</svg>
