<?xml version="1.0" encoding="utf-8"?>
<!-- Generator: Adobe Illustrator 19.2.1, SVG Export Plug-In . SVG Version: 6.00 Build 0)  -->
<svg version="1.1" id="Слой_1" xmlns="http://www.w3.org/2000/svg" xmlns:xlink="http://www.w3.org/1999/xlink" x="0px" y="0px"
	 viewBox="0 0 24 20" style="enable-background:new 0 0 24 20;" xml:space="preserve">
<title>E3C2DCD0-342C-43A8-8D0E-C53511A583E2</title>
<desc>Created with sketchtool.</desc>
<g id="Final-Design">
	<g id="_x30_.-Style" transform="translate(-901.000000, -1665.000000)">
		<g id="Icon_x2F_Medicine_x2F_i_x5F_urology" transform="translate(901.000000, 1662.000000)">
			<path fill="#00b9cd" id="Path-29" d="M8.1,8c0.3-0.6,0.5-1.1,0.5-1.7C8.8,4.8,8,3.6,6.1,3.2c-2-0.3-3.5,0.4-4.3,1.9C1.1,6.2,0.9,7.5,0.9,9
				c0,3.6,0.8,5.8,3.7,5.8c1.6,0,2.5-0.8,2.9-2.1c0.2-0.6,0.2-1.2,0.2-1.7c0-0.1,0-0.1,0-0.2l0-1.9C7.8,8.6,7.9,8.4,8.1,8z M6.3,8.2
				L6.1,8.4l0.1,2.5c0,0.1,0,0.1,0,0.2c0,0.4,0,0.8-0.1,1.2c-0.2,0.7-0.6,1.1-1.5,1.1C3,13.3,2.4,11.8,2.4,9c0-1.2,0.2-2.3,0.6-3.1
				c0.5-1,1.4-1.4,2.8-1.1c1.1,0.2,1.4,0.6,1.3,1.4c0,0.4-0.2,0.8-0.4,1.2C6.6,7.7,6.4,8,6.3,8.2z"/>
			<path fill="#00b9cd" id="Path-30" d="M7.8,10.7c0.8,0,2.1-0.5,3.6-1.6l-0.9-1.2C9.7,8.4,9,8.8,8.4,9C8.1,9.1,7.8,9.2,7.7,9.2L7.8,10.7z"/>
			<path fill="#00b9cd" id="Path-31" d="M7.8,11.7C7.8,11.7,7.8,11.7,7.8,11.7c0.3,0,0.7,0,1.1,0.1c0.6,0.2,0.9,0.6,0.9,1.3v9.1h1.5v-9.1
				c0-1.4-0.7-2.3-1.9-2.7c-0.6-0.2-1.1-0.2-1.6-0.2c-0.1,0-0.1,0-0.1,0L7.8,11.7z"/>
			<path fill="#00b9cd" id="Path-29_1_" d="M17.7,8.2c-0.1-0.1-0.3-0.4-0.4-0.8c-0.2-0.4-0.4-0.9-0.4-1.2c-0.1-0.8,0.2-1.2,1.3-1.4
				c1.4-0.2,2.2,0.2,2.8,1.1c0.4,0.8,0.6,1.9,0.6,3.1c0,2.9-0.6,4.3-2.2,4.3c-0.9,0-1.3-0.4-1.5-1.1c-0.1-0.4-0.1-0.8-0.1-1.2
				c0,0,0-0.1,0-0.1l0.1-2.3l0-0.2L17.7,8.2z M16.3,10.8C16.3,10.8,16.3,10.8,16.3,10.8L16.3,10.8z M16.3,10.8c0,0,0,0,0,0.1
				c0,0.5,0,1.1,0.2,1.7c0.4,1.3,1.4,2.1,2.9,2.1c2.9,0,3.7-2.1,3.7-5.8c0-1.4-0.2-2.8-0.8-3.8c-0.8-1.5-2.3-2.2-4.3-1.9
				c-1.9,0.3-2.7,1.5-2.5,3.1c0.1,0.6,0.3,1.1,0.5,1.7c0.1,0.3,0.3,0.6,0.4,0.8L16.3,10.8z"/>
			<path fill="#00b9cd" id="Path-30_1_" d="M16.3,9.2c-0.1,0-0.3,0-0.7-0.2c-0.6-0.2-1.3-0.6-2.1-1.2l-0.9,1.2c1.5,1.2,2.8,1.6,3.6,1.6L16.3,9.2z"
				/>
			<path fill="#00b9cd" id="Path-31_1_" d="M16.4,10.2C16.3,10.2,16.3,10.2,16.4,10.2c-0.6,0-1.1,0-1.7,0.2c-1.1,0.4-1.9,1.3-1.9,2.7v9.1h1.5v-9.1
				c0-0.7,0.3-1.1,0.9-1.3c0.3-0.1,0.7-0.2,1-0.1c0,0,0,0,0,0L16.4,10.2z"/>
		</g>
	</g>
</g>
</svg>
