<?xml version="1.0" encoding="utf-8"?>
<!-- Generator: Adobe Illustrator 19.2.1, SVG Export Plug-In . SVG Version: 6.00 Build 0)  -->
<svg version="1.1" id="Слой_1" xmlns="http://www.w3.org/2000/svg" xmlns:xlink="http://www.w3.org/1999/xlink" x="0px" y="0px"
	 viewBox="0 0 24 23" style="enable-background:new 0 0 24 23;" xml:space="preserve">
<title>11575DA7-86FB-43C4-874B-B477591B39FF</title>
<desc>Created with sketchtool.</desc>
<g id="Final-Design">
	<g id="_x30_.-Style" transform="translate(-702.000000, -1620.000000)">
		<g id="Icon_x2F_Medicine_x2F_i_x5F_gastroenterology" transform="translate(702.000000, 1619.000000)">
			<path fill="#00b9cd" id="Path-26" d="M3.9,2C4,2.2,4.1,2.6,4.2,3C4.4,3.7,4.7,4.4,5,5c0.8,1.5,1.8,2.6,3.1,3c1.2,0.4,2.6,2,3,3.6
				c0.4,1.8-0.4,3.1-2.9,3.6c-0.8,0.2-1.5,0.3-2.3,0.4c-0.4,0.1-1.7,0.2-1.7,0.2c-2.4,0.3-3.1,0.9-3.6,3.7c-0.1,0.6-0.2,1.2-0.4,2.3
				l1.5,0.2C1.9,21,2,20.3,2.1,19.8c0.4-2.1,0.5-2.2,2.3-2.5c0,0,1.3-0.2,1.7-0.2c0.8-0.1,1.6-0.2,2.4-0.4c3.3-0.7,4.7-2.8,4.1-5.4
				c-0.5-2.1-2.3-4.2-4-4.7C7.7,6.3,7,5.5,6.3,4.3C6.1,3.8,5.8,3.2,5.6,2.5C5.5,2.2,5.4,1.9,5.4,1.7L3.9,2z"/>
			<path fill="#00b9cd" id="Path-27" d="M4.8,23c0,0,0-0.1,0-0.1c0-0.3,0-0.6,0-0.9c0.2-0.9,0.9-1.1,2.9-0.2c5.6,2.5,9.5,2.2,12.7-1.6
				c3.5-4.3,4.1-12.7,0.5-15.8c-2.4-2.1-4.2-2.6-6.1-2c-0.5,0.2-0.9,0.3-1.8,0.8c-2.1,1-3.3,0.5-3.3-2.1H8.2c0,3.7,2.4,4.9,5.4,3.4
				c0.9-0.4,1.2-0.6,1.6-0.7c1.4-0.4,2.6-0.1,4.7,1.7c2.9,2.5,2.4,10-0.7,13.7c-2.6,3.2-5.8,3.4-10.9,1.1c-2.8-1.2-4.5-0.6-5,1.3
				c-0.1,0.5-0.1,1-0.1,1.4c0,0.1,0,0.2,0,0.2L4.8,23z"/>
		</g>
	</g>
</g>
</svg>
