<?xml version="1.0" encoding="utf-8"?>
<!-- Generator: Adobe Illustrator 19.2.1, SVG Export Plug-In . SVG Version: 6.00 Build 0)  -->
<svg version="1.1" id="Слой_1" xmlns="http://www.w3.org/2000/svg" xmlns:xlink="http://www.w3.org/1999/xlink" x="0px" y="0px"
	 viewBox="0 0 16 16" style="enable-background:new 0 0 16 16;" xml:space="preserve">
<title>9F147232-F503-4E22-A1AD-EF6788669A38</title>
<desc>Created with sketchtool.</desc>
<g id="Final-Design">
	<g id="_x30_.-Style" transform="translate(-916.000000, -1335.000000)">
		<g id="Icon_x2F_General_x2F_i_x5F_map" transform="translate(916.000000, 1335.000000)">
			<path id="Fill-1" d="M8,6.7c0.7,0,1.3-0.6,1.3-1.3c0-0.7-0.6-1.3-1.3-1.3S6.7,4.8,6.7,5.5C6.7,6.2,7.3,6.7,8,6.7"/>
			<path id="Fill-3" d="M8,1.7c2.1,0,3.9,1.7,3.9,3.8c0,1.5-0.8,3.2-2.1,4.8c-0.5,0.6-1,1.1-1.5,1.6c-0.1,0.1-0.2,0.2-0.3,0.3
				c-0.1-0.1-0.2-0.2-0.3-0.3c-0.5-0.5-1-1-1.5-1.6C4.9,8.7,4.1,7,4.1,5.5C4.1,3.4,5.8,1.7,8,1.7 M5.4,11c0.5,0.6,1,1.2,1.6,1.7
				c0.2,0.2,0.4,0.3,0.5,0.5c0.1,0.1,0.2,0.1,0.2,0.2c0.2,0.2,0.5,0.2,0.6,0c0,0,0.1-0.1,0.2-0.2C8.6,13,8.8,12.9,9,12.7
				c0.5-0.5,1.1-1.1,1.6-1.7c1.4-1.8,2.3-3.7,2.3-5.5c0-2.7-2.2-4.8-4.9-4.8c-2.7,0-4.9,2.2-4.9,4.8C3.1,7.3,3.9,9.1,5.4,11"/>
			<path id="Fill-5" d="M13.9,1.1c-0.3-0.1-0.5,0-0.6,0.3c-0.1,0.3,0,0.5,0.3,0.6L15,2.6v12.3l-3.6-1.1l0-0.8c0-0.3-0.2-0.5-0.5-0.5
				s-0.5,0.2-0.5,0.5l0,0.8l-4.9,1.1l0-1.5c0-0.3-0.2-0.5-0.5-0.5c-0.3,0-0.5,0.2-0.5,0.5l0,1.4L1,13.5L1,1.2l1.6,0.5
				c0.3,0.1,0.5-0.1,0.6-0.3S3.2,0.8,2.9,0.8L0.7,0C0.3-0.1,0,0.2,0,0.5l0,13.4c0,0.2,0.1,0.4,0.3,0.5l4.2,1.4h1l5.5-1.1l4.3,1.3
				c0.3,0.1,0.6-0.1,0.6-0.5V2.2c0-0.2-0.1-0.4-0.3-0.5L13.9,1.1z"/>
		</g>
	</g>
</g>
</svg>
