<?xml version="1.0" encoding="utf-8"?>
<!-- Generator: Adobe Illustrator 19.2.1, SVG Export Plug-In . SVG Version: 6.00 Build 0)  -->
<svg version="1.1" id="Слой_1" xmlns="http://www.w3.org/2000/svg" xmlns:xlink="http://www.w3.org/1999/xlink" x="0px" y="0px"
	 viewBox="0 0 16 18" style="enable-background:new 0 0 16 18;" xml:space="preserve">
<title>F0F54EB1-7952-4056-8CDC-A06D759465F8</title>
<desc>Created with sketchtool.</desc>
<g id="Final-Design">
	<g id="_x30_.-Style" transform="translate(-981.000000, -1335.000000)">
		
			<g id="Icon" transform="translate(989.000000, 1344.000000) scale(1, -1) translate(-989.000000, -1344.000000) translate(981.000000, 1335.000000)">
			<path id="Combined-Shape" d="M7.2,14.3c-3-0.4-5.3-3-5.3-6.2c0-3.4,2.7-6.2,6.1-6.2c3.4,0,6.1,2.8,6.1,6.2c0,2.1-1.1,4.2-2.7,5.3
				c-0.4,0.3-0.5,0.9-0.2,1.3c0.3,0.4,0.9,0.5,1.3,0.2c2.2-1.5,3.5-4.2,3.5-6.9C16,3.6,12.4,0,8,0C3.6,0,0,3.6,0,8.1
				c0,3.6,2.3,6.7,5.5,7.7l-0.1,0.1c-0.5,0.3-0.6,0.8-0.4,1.3c0.3,0.5,0.8,0.6,1.3,0.4l2.8-1.6c0.4-0.3,0.6-0.8,0.4-1.3L8,12
				c-0.3-0.5-0.8-0.6-1.3-0.4s-0.6,0.8-0.4,1.3L7.2,14.3z"/>
		</g>
	</g>
</g>
</svg>
