<?xml version="1.0" encoding="utf-8"?>
<!-- Generator: Adobe Illustrator 19.2.1, SVG Export Plug-In . SVG Version: 6.00 Build 0)  -->
<svg version="1.1" id="Слой_1" xmlns="http://www.w3.org/2000/svg" xmlns:xlink="http://www.w3.org/1999/xlink" x="0px" y="0px"
	 viewBox="0 0 16 16" style="enable-background:new 0 0 16 16;" xml:space="preserve">
<title>F1558089-E2C1-4376-B728-A6DEF9E3148E</title>
<desc>Created with sketchtool.</desc>
<g id="Final-Design">
	<g id="_x30_.-Style" transform="translate(-708.000000, -1335.000000)">
		<g id="Icon_x2F_General_x2F_i_x5F_search" transform="translate(708.000000, 1335.000000)">
			<path id="Fill-1" d="M1.5,6c0-2.5,2-4.5,4.5-4.5s4.5,2,4.5,4.5c0,2.5-2,4.5-4.5,4.5S1.5,8.5,1.5,6 M10.7,9.7
				C11.5,8.7,12,7.4,12,6c0-3.3-2.7-6-6-6S0,2.7,0,6s2.7,6,6,6c1.4,0,2.7-0.5,3.7-1.3l5,5c0.3,0.3,0.8,0.3,1.1,0
				c0.3-0.3,0.3-0.8,0-1.1L10.7,9.7z"/>
		</g>
	</g>
</g>
</svg>
