<?xml version="1.0" encoding="utf-8"?>
<!-- Generator: Adobe Illustrator 19.2.1, SVG Export Plug-In . SVG Version: 6.00 Build 0)  -->
<svg version="1.1" id="Слой_1" xmlns="http://www.w3.org/2000/svg" xmlns:xlink="http://www.w3.org/1999/xlink" x="0px" y="0px"
	 viewBox="0 0 22 22" style="enable-background:new 0 0 22 22;" xml:space="preserve">
<title>8C206A30-E716-435A-A46E-9FF7B93DC5B0</title>
<desc>Created with sketchtool.</desc>
<g id="Final-Design">
	<g id="_x30_.-Style" transform="translate(-942.000000, -1663.000000)">
		<g id="Icon_x2F_Medicine_x2F_i_x5F_transplantation" transform="translate(941.000000, 1662.000000)">
			<path fill="#00b9cd" id="Oval-12" d="M12,22.8c5.9,0,10.8-4.8,10.8-10.8S17.9,1.3,12,1.3S1.3,6.1,1.3,12S6.1,22.8,12,22.8z M12,21.3
				c-5.1,0-9.3-4.1-9.3-9.3S6.9,2.8,12,2.8s9.3,4.1,9.3,9.3S17.1,21.3,12,21.3z"/>
			<polygon fill="#00b9cd" id="Path-9-Copy-4" points="12.5,14.6 21,7.6 20.1,6.5 11.5,13.4 			"/>
			<polygon fill="#00b9cd" id="Path-9-Copy-5" points="12.5,9.6 18.5,4.6 17.5,3.4 11.5,8.4 			"/>
			<polygon fill="#00b9cd" id="Path-9-Copy-6" points="12.5,19.5 22.1,11.1 21.1,9.9 11.5,18.4 			"/>
			<polygon fill="#00b9cd" id="Path-9" points="11,2 11,22.3 12.5,22.3 12.5,2 			"/>
		</g>
	</g>
</g>
</svg>
