<?xml version="1.0" encoding="utf-8"?>
<!-- Generator: Adobe Illustrator 19.2.1, SVG Export Plug-In . SVG Version: 6.00 Build 0)  -->
<svg version="1.1" id="Слой_1" xmlns="http://www.w3.org/2000/svg" xmlns:xlink="http://www.w3.org/1999/xlink" x="0px" y="0px"
	 viewBox="0 0 24 24" style="enable-background:new 0 0 24 24;" xml:space="preserve">
<title>A5219550-99C0-4C91-A99C-5E5E70155ABD</title>
<desc>Created with sketchtool.</desc>
<g id="Final-Design">
	<g id="_x30_.-Style" transform="translate(-662.000000, -1619.000000)">
		<g id="Icon_x2F_Medicine_x2F_i_x5F_asia_x5F_medicine" transform="translate(662.000000, 1619.000000)">
			<path fill="#00b9cd" id="Combined-Shape" d="M12,22.5c5.8,0,10.5-4.7,10.5-10.5S17.8,1.5,12,1.5S1.5,6.2,1.5,12S6.2,22.5,12,22.5z M12,24
				C5.4,24,0,18.6,0,12S5.4,0,12,0s12,5.4,12,12S18.6,24,12,24z M11.5,1.6c0.1,0.1,0.3,0.3,0.6,0.5C12.6,2.5,13,3,13.4,3.4
				c0.9,1,1.5,2,1.7,2.8c0.1,0.3,0.1,0.5,0.1,0.7c0,0.9-0.6,1.9-1.8,3c-0.4,0.4-0.9,0.7-1.3,1c-0.3,0.2-0.5,0.3-0.6,0.4
				c-0.1,0.1-0.4,0.2-0.7,0.4c-0.5,0.3-1,0.7-1.5,1.1c-1.4,1.3-2.2,2.6-2.2,4.1c0,0.4,0.1,0.8,0.2,1.1c0.3,1.1,1,2.3,2,3.4
				c0.5,0.5,0.9,1,1.4,1.5c0.3,0.3,0.5,0.5,0.7,0.6l0.9-1.2c-0.1-0.1-0.3-0.3-0.6-0.5c-0.4-0.4-0.9-0.9-1.3-1.3
				c-0.9-1-1.5-2-1.7-2.8c-0.1-0.3-0.1-0.5-0.1-0.7c0-0.9,0.6-1.9,1.8-3c0.4-0.4,0.9-0.7,1.3-1c0.3-0.2,0.5-0.3,0.6-0.4
				c0.1-0.1,0.4-0.2,0.7-0.4c0.5-0.3,1-0.7,1.5-1.1c1.4-1.3,2.2-2.6,2.2-4.1c0-0.4-0.1-0.8-0.2-1.1c-0.3-1.1-1-2.3-2-3.4
				c-0.5-0.5-0.9-1-1.4-1.5c-0.3-0.3-0.5-0.5-0.7-0.6L11.5,1.6z M7.5,8.5c0.6,0,1-0.4,1-1s-0.4-1-1-1s-1,0.4-1,1S6.9,8.5,7.5,8.5z
				 M7.5,10C6.1,10,5,8.9,5,7.5S6.1,5,7.5,5S10,6.1,10,7.5S8.9,10,7.5,10z M16.5,17.5c0.6,0,1-0.4,1-1s-0.4-1-1-1s-1,0.4-1,1
				S15.9,17.5,16.5,17.5z M16.5,19c-1.4,0-2.5-1.1-2.5-2.5s1.1-2.5,2.5-2.5s2.5,1.1,2.5,2.5S17.9,19,16.5,19z"/>
		</g>
	</g>
</g>
</svg>
