<?xml version="1.0" encoding="utf-8"?>
<!-- Generator: Adobe Illustrator 19.2.1, SVG Export Plug-In . SVG Version: 6.00 Build 0)  -->
<svg version="1.1" id="Слой_1" xmlns="http://www.w3.org/2000/svg" xmlns:xlink="http://www.w3.org/1999/xlink" x="0px" y="0px"
	 viewBox="0 0 24 24" style="enable-background:new 0 0 24 24;" xml:space="preserve">
<title>309907FD-4869-477D-9B1D-4114C49AA1F3</title>
<desc>Created with sketchtool.</desc>
<g id="Final-Design">
	<g id="_x30_.-Style" transform="translate(-622.000000, -1619.000000)">
		<g id="Icon_x2F_Medicine_x2F_i_x5F_infertility" transform="translate(622.000000, 1619.000000)">
			<path fill="#00b9cd" id="Stroke-1" d="M15.6,11.2c-1,1-2.4,1.1-3.1,0.5c-0.7-0.7-0.5-2,0.5-3c1-1,2.4-1.1,3.1-0.5C16.8,8.9,16.6,10.2,15.6,11.2z
				 M11.9,7.6c-1.5,1.5-1.8,3.8-0.5,5.2c1.3,1.3,3.7,1.1,5.2-0.5c1.5-1.5,1.8-3.8,0.5-5.2C15.8,5.8,13.5,6,11.9,7.6z"/>
			<path fill="#00b9cd" id="Stroke-3" d="M1.7,23.1c0-0.2,0.1-0.5,0.2-1c0.2-0.8,0.4-1.5,0.7-2.2c0.4-1.1,1-1.9,1.6-2.4c0.2-0.2,0.4-0.3,0.6-0.3
				c0.5-0.1,1,0.1,2,0.6c2,1.1,2.8,1.2,3.8,0.1c0,0,0.1-0.1,0.1-0.1c0.6-0.7,0.6-1.3,0.5-2.4c-0.1-1.2,0-1.7,1.1-2.5
				c0.3-0.2,0.4-0.7,0.2-1c-0.2-0.3-0.7-0.4-1-0.2c-1.6,1.2-1.9,2.2-1.7,3.9c0.1,0.8,0.1,1-0.2,1.4c0,0,0,0-0.1,0.1
				c-0.3,0.4-0.6,0.3-2-0.4c-1.3-0.7-2.1-0.9-3-0.8c-0.5,0.1-0.9,0.3-1.3,0.6c-0.9,0.7-1.6,1.7-2.1,3c-0.3,0.8-0.6,1.6-0.7,2.4
				c-0.1,0.3-0.1,0.6-0.2,0.8c0,0.1,0,0.3,0,0.3c0,0.4,0.2,0.8,0.7,0.8C1.3,23.8,1.7,23.5,1.7,23.1z"/>
			<path fill="#00b9cd" id="Oval-7" d="M20.3,12.7c2.3-1.4,3.6-4.1,3.2-6.9c-0.6-3.7-4-6.2-7.7-5.6c-3,0.5-5.2,2.8-5.6,5.8l1.5,0.2
				C12,3.9,13.7,2,16,1.7c2.9-0.5,5.6,1.5,6,4.4c0.3,2.1-0.7,4.2-2.5,5.3L20.3,12.7z"/>
		</g>
	</g>
</g>
</svg>
