<?xml version="1.0" encoding="utf-8"?>
<!-- Generator: Adobe Illustrator 19.2.1, SVG Export Plug-In . SVG Version: 6.00 Build 0)  -->
<svg version="1.1" id="Слой_1" xmlns="http://www.w3.org/2000/svg" xmlns:xlink="http://www.w3.org/1999/xlink" x="0px" y="0px"
	 viewBox="0 0 24 24" style="enable-background:new 0 0 24 24;" xml:space="preserve">
<title>798AACA5-15BE-42AD-87EE-046CFEE85D11</title>
<desc>Created with sketchtool.</desc>
<g id="Final-Design">
	<g id="_x30_.-Style" transform="translate(-661.000000, -1367.000000)">
		<g id="Icon_x2F_General_x2F_Stars_x5F_big_x5F_hulf" transform="translate(661.000000, 1367.000000)">
			<path id="Page-1-Copy-6" d="M16.3,8.8c-0.8-0.1-1.7-0.7-2-1.4L12,2.1L9.7,7.4c-0.3,0.8-1.2,1.4-2,1.4L1.8,9.4L6.3,14
				c0.6,0.6,0.8,1.6,0.6,2.4L5.4,22l5.4-3.7c0.7-0.5,1.8-0.5,2.5,0l5.4,3.7l-1.6-5.6c-0.2-0.8,0-1.8,0.6-2.4l4.5-4.6L16.3,8.8z
				 M12.7,19.1c-0.4-0.3-1-0.3-1.4,0l-7,4.8c-0.4,0.3-0.6,0.1-0.5-0.3L6,16.1c0.1-0.4,0-1.1-0.4-1.4L0.2,9.2C-0.1,8.8,0,8.5,0.4,8.5
				l7.2-0.7c0.5,0,1-0.4,1.2-0.8l2.9-6.7c0.2-0.4,0.5-0.4,0.7,0L15.2,7c0.2,0.4,0.7,0.8,1.2,0.8l7.2,0.7c0.5,0,0.6,0.3,0.2,0.7
				l-5.4,5.5c-0.3,0.3-0.5,0.9-0.4,1.4l2.1,7.5c0.1,0.4-0.1,0.6-0.5,0.3L12.7,19.1z"/>
			<path id="Page-1-Copy-6_1_" d="M12,19c0,0-0.5,0-0.7,0.1l-7,4.8c-0.4,0.3-0.6,0.1-0.5-0.3L6,16.1c0.1-0.4,0-1.1-0.4-1.4L0.2,9.2
				C-0.1,8.8,0,8.5,0.4,8.5l7.2-0.7c0.5,0,1-0.4,1.2-0.8l2.9-6.7C11.8,0.1,12,0,12,0V19z"/>
		</g>
	</g>
</g>
</svg>
