<?xml version="1.0" encoding="utf-8"?>
<!-- Generator: Adobe Illustrator 19.2.1, SVG Export Plug-In . SVG Version: 6.00 Build 0)  -->
<svg version="1.1" id="Слой_1" xmlns="http://www.w3.org/2000/svg" xmlns:xlink="http://www.w3.org/1999/xlink" x="0px" y="0px"
	 viewBox="0 0 24 24" style="enable-background:new 0 0 24 24;" xml:space="preserve">
<title>09213D22-BA45-488C-BE14-ED6737C75FE7</title>
<desc>Created with sketchtool.</desc>
<g id="Final-Design">
	<g id="_x30_.-Style" transform="translate(-621.000000, -1367.000000)">
		<g id="Icon_x2F_General_x2F_Star_x5F_big_x5F_full" transform="translate(621.000000, 1367.000000)">
			<path id="star" d="M12.7,19.1c-0.4-0.3-1-0.3-1.4,0l-7,4.8c-0.4,0.3-0.6,0.1-0.5-0.3L6,16.1c0.1-0.4,0-1.1-0.4-1.4L0.2,9.2
				C-0.1,8.8,0,8.5,0.4,8.5l7.2-0.7c0.5,0,1-0.4,1.2-0.8l2.9-6.7c0.2-0.4,0.5-0.4,0.7,0L15.2,7c0.2,0.4,0.7,0.8,1.2,0.8l7.2,0.7
				c0.5,0,0.6,0.3,0.2,0.7l-5.4,5.5c-0.3,0.3-0.5,0.9-0.4,1.4l2.1,7.5c0.1,0.4-0.1,0.6-0.5,0.3L12.7,19.1z"/>
		</g>
	</g>
</g>
</svg>
