<?xml version="1.0" encoding="utf-8"?>
<!-- Generator: Adobe Illustrator 19.2.1, SVG Export Plug-In . SVG Version: 6.00 Build 0)  -->
<svg version="1.1" id="Слой_1" xmlns="http://www.w3.org/2000/svg" xmlns:xlink="http://www.w3.org/1999/xlink" x="0px" y="0px"
	 viewBox="0 0 20 26" style="enable-background:new 0 0 20 26;" xml:space="preserve">
<title>0F0EF583-93FC-44EE-8551-636326761226</title>
<desc>Created with sketchtool.</desc>
<g id="Final-Design">
	<g id="_x30_.-Style" transform="translate(-903.000000, -1618.000000)">
		<g id="Icon_x2F_Medicine_x2F_i_x5F_mammalogy" transform="translate(901.000000, 1619.000000)">
			<polygon fill="#00b9cd" id="Path-20" points="16,16.3 15.5,23.9 17,24.1 17.5,16.4 			"/>
			<path fill="#00b9cd" id="Path-19" d="M13.9,15.8c-0.1,0-0.1,0-0.1,0l-0.1,1.5c0,0,0.1,0,0.2,0c0.1,0,0.3,0,0.4,0c0.2,0,0.3,0,0.5,0
				c0.1,0,0.2,0,0.2-0.1c3,0.1,5.4-1.3,6.5-3.6c1.1-2.3,0.3-4.7-2.1-5.3c-1.4-0.4-2.5-1.8-3.3-4c-0.4-1-0.6-2-0.8-3.1
				c-0.1-0.4-0.1-0.7-0.2-1c0-0.2,0-0.3,0-0.4l-1.5,0.2c0,0.1,0,0.2,0.1,0.4c0,0.3,0.1,0.7,0.2,1.1c0.2,1.1,0.5,2.2,0.9,3.3
				c1,2.6,2.4,4.4,4.3,4.9c1.4,0.4,1.9,1.7,1.2,3.2c-0.8,1.7-2.8,2.9-5.3,2.7l-0.8-0.1v0.1C14,15.8,14,15.8,13.9,15.8z"/>
			<path fill="#00b9cd" id="Path-22" d="M2.3,2.2c0,0.2,0.1,0.5,0.2,1c0.1,0.8,0.3,1.7,0.4,2.7c0.5,3.9,0.8,7.8,0.5,11.5c-0.2,2.4-0.5,4.6-1.1,6.5
				l1.4,0.4c0.6-2,1-4.3,1.2-6.8c0.3-3.8,0-7.9-0.5-11.8c-0.1-1-0.3-1.9-0.4-2.7C3.9,2.6,3.8,2.3,3.8,2.1c0-0.1,0-0.2-0.1-0.3
				L2.3,2.2z"/>
			<path fill="#00b9cd" id="Path-21" d="M17.6,9c0,0,0,0.1,0,0.2c0,0.6,0,1.3,0.2,2c0.5,1.4,1.6,2.3,3.5,2.3V12c-1.2,0-1.8-0.5-2.1-1.3
				C19,10.2,19,9.7,19,9.3c0,0,0-0.1,0-0.1L17.6,9z"/>
		</g>
	</g>
</g>
</svg>
