<?xml version="1.0" encoding="utf-8"?>
<!-- Generator: Adobe Illustrator 19.2.1, SVG Export Plug-In . SVG Version: 6.00 Build 0)  -->
<svg version="1.1" id="Слой_1" xmlns="http://www.w3.org/2000/svg" xmlns:xlink="http://www.w3.org/1999/xlink" x="0px" y="0px"
	 viewBox="0 0 22 24" style="enable-background:new 0 0 22 24;" xml:space="preserve">
<title>13404478-3C0D-4E2C-9AB2-1C675AFA96AD</title>
<desc>Created with sketchtool.</desc>
<g id="Final-Design">
	<g id="_x30_.-Style" transform="translate(-702.000000, -1659.000000)">
		<g id="Icon_x2F_Medicine_x2F_i_x5F_stomatology" transform="translate(701.000000, 1659.000000)">
			<path fill="#00b9cd" id="Stroke-1" d="M12,13.3c-1.9,0-2.4,1.4-2.7,5.2c0,0.1,0,0.1,0,0.3c-0.3,2.6-0.5,3.5-0.9,3.5c-0.7,0-1.3-1.5-1.9-4.3
				c-0.1-0.6-0.5-2.6-0.6-3c-0.2-1-0.4-1.5-0.6-1.9c0,0,0,0,0-0.1c-0.2-0.3-1-1.5-1.1-1.5c-0.9-1.4-1.4-2.7-1.4-4.6
				c0-3.2,3-5.1,5.6-5.1c2,0,3.1,0.6,5,3.7c0.2,0.3,0.7,0.4,1,0.2c0.3-0.2,0.4-0.7,0.2-1c-2.2-3.4-3.8-4.3-6.3-4.3
				C5,0.3,1.3,2.6,1.3,6.9c0,2.3,0.6,3.8,1.7,5.4c0.1,0.1,0.9,1.2,1,1.5c0,0,0,0,0,0.1c0.1,0.2,0.2,0.7,0.4,1.4
				c0.1,0.4,0.4,2.4,0.6,3c0.7,3.6,1.6,5.5,3.4,5.5c1.7,0,2-1.2,2.4-4.9c0-0.1,0-0.1,0-0.3c0.3-2.8,0.6-3.8,1.2-3.8
				c0.4,0,0.8-0.3,0.8-0.8C12.7,13.6,12.4,13.3,12,13.3z"/>
			<path fill="#00b9cd" id="Stroke-3" d="M12,14.8c0.6,0,1,1,1.2,3.8c0,0.1,0,0.1,0,0.3c0.4,3.7,0.7,4.9,2.4,4.9c1.8,0,2.6-1.8,3.4-5.5
				c0.1-0.6,0.5-2.6,0.6-3c0.2-0.8,0.3-1.3,0.4-1.4c0,0,0,0,0-0.1c0.2-0.3,1-1.4,1-1.5c1.1-1.6,1.7-3.2,1.7-5.4
				c0-4.3-3.6-6.6-7.1-6.6c-0.4,0-0.9,0-1.4,0.2c-0.9,0.2-1.8,0.6-2.7,1.3c-0.3,0.2-0.4,0.7-0.2,1s0.7,0.4,1,0.2
				c1.2-0.9,2.4-1.2,3.2-1.1c2.8,0,5.6,1.8,5.6,5.1c0,1.9-0.5,3.2-1.4,4.6c0,0.1-0.9,1.2-1.1,1.5c0,0,0,0,0,0.1
				c-0.2,0.4-0.4,1-0.6,1.9c-0.1,0.4-0.4,2.4-0.6,3c-0.6,2.8-1.2,4.3-1.9,4.3c-0.4,0-0.7-0.9-0.9-3.5c0-0.1,0-0.1,0-0.3
				c-0.4-3.8-0.8-5.2-2.7-5.2c-0.4,0-0.8,0.3-0.8,0.8C11.2,14.4,11.6,14.8,12,14.8z"/>
		</g>
	</g>
</g>
</svg>
