<?xml version="1.0" encoding="UTF-8"?>
<svg width="32px" height="32px" viewBox="0 0 32 32" version="1.1" xmlns="http://www.w3.org/2000/svg" xmlns:xlink="http://www.w3.org/1999/xlink">
    <!-- Generator: sketchtool 41.2 (35397) - http://www.bohemiancoding.com/sketch -->
    <title>87D832DE-9C64-41EF-B929-A8FD9CBD6842</title>
    <desc>Created with sketchtool.</desc>
    <defs>
        <circle id="path-1" cx="16" cy="16" r="16"></circle>
        <mask id="mask-2" maskContentUnits="userSpaceOnUse" maskUnits="objectBoundingBox" x="0" y="0" width="32" height="32" fill="white">
            <use xlink:href="#path-1"></use>
        </mask>
    </defs>
    <g id="Final-Design" stroke="none" stroke-width="1" fill="none" fill-rule="evenodd">
        <g id="2.-Clinic" transform="translate(-1414.000000, -5335.000000)">
            <g id="Icon/Social/i_twitter" transform="translate(1414.000000, 5335.000000)">
                <g>
                    <use id="Oval-4-Copy-2" stroke="#FFFFFF" mask="url(#mask-2)" stroke-width="3" xlink:href="#path-1"></use>
                    <path d="M23.5598501,12.3109375 C23.3418901,12.4076097 23.1177986,12.4891992 22.8888287,12.5554376 C23.1599137,12.2488614 23.3665952,11.888131 23.4927614,11.4933862 C23.5210469,11.4049043 23.491732,11.3080531 23.4190041,11.250184 C23.3463657,11.1922702 23.2454417,11.1853331 23.1654634,11.2327293 C22.6791933,11.5211347 22.1545677,11.7283981 21.6044761,11.8495963 C21.0503565,11.3081426 20.2977456,11 19.5197135,11 C17.8774053,11 16.5412703,12.3360902 16.5412703,13.9783537 C16.5412703,14.1076975 16.5494606,14.2363252 16.5656622,14.3631627 C14.527714,14.1842297 12.6330734,13.1825536 11.3320269,11.5866122 C11.2856601,11.5297278 11.2142301,11.4990702 11.1410993,11.5049332 C11.0679239,11.5106619 11.0021778,11.5519266 10.9652097,11.6153453 C10.7013304,12.0681381 10.5618271,12.5860057 10.5618271,13.1129139 C10.5618271,13.8305706 10.8180531,14.5114829 11.2706669,15.043538 C11.1330433,14.9958732 10.9994925,14.9363035 10.8720284,14.8655448 C10.803597,14.8274577 10.720083,14.8280396 10.6520992,14.8670217 C10.5840706,14.9060039 10.5414185,14.9777024 10.5396283,15.0560696 C10.539315,15.0692725 10.539315,15.0824754 10.539315,15.0958573 C10.539315,16.1670836 11.1158572,17.1315229 11.9973195,17.6571779 C11.921593,17.6496142 11.8459112,17.6386491 11.7707217,17.6242826 C11.6932049,17.6094684 11.6134951,17.6366351 11.5612205,17.6957573 C11.5088564,17.7548348 11.491536,17.8371851 11.5156593,17.9123746 C11.8419279,18.931013 12.6819466,19.6802672 13.6974521,19.9087 C12.8551957,20.4362348 11.8920095,20.7125561 10.88089,20.7125561 C10.6699119,20.7125561 10.4577254,20.7001588 10.2500593,20.6755879 C10.1468975,20.6633249 10.0482561,20.7242373 10.0131229,20.8223417 C9.97798972,20.9204908 10.0152264,21.0299184 10.1029922,21.0861762 C11.4019352,21.9190339 12.9038898,22.3592504 14.446393,22.3592504 C17.4787668,22.3592504 19.3757346,20.9293077 20.4330867,19.7297222 C21.7515879,18.2339439 22.5077792,16.2540886 22.5077792,14.2978642 C22.5077792,14.2161404 22.5065261,14.133611 22.5040197,14.0513502 C23.0242146,13.659425 23.4720843,13.1851047 23.8365295,12.6399362 C23.8918922,12.5571383 23.8858949,12.4477107 23.8217601,12.3714919 C23.7577148,12.2952283 23.6509726,12.2705679 23.5598501,12.3109375 Z" id="XMLID_827_" fill="#FFFFFF"></path>
                </g>
            </g>
        </g>
    </g>
</svg>