<?xml version="1.0" encoding="UTF-8"?>
<svg width="32px" height="32px" viewBox="0 0 32 32" version="1.1" xmlns="http://www.w3.org/2000/svg" xmlns:xlink="http://www.w3.org/1999/xlink">
    <!-- Generator: sketchtool 41.2 (35397) - http://www.bohemiancoding.com/sketch -->
    <title>7CEC6B60-D1EF-48C8-8A78-0489A9DCF3DD</title>
    <desc>Created with sketchtool.</desc>
    <defs>
        <circle id="path-1" cx="16" cy="16" r="16"></circle>
        <mask id="mask-2" maskContentUnits="userSpaceOnUse" maskUnits="objectBoundingBox" x="0" y="0" width="32" height="32" fill="white">
            <use xlink:href="#path-1"></use>
        </mask>
    </defs>
    <g id="Final-Design" stroke="none" stroke-width="1" fill="none" fill-rule="evenodd">
        <g id="2.-Clinic" transform="translate(-1498.000000, -5335.000000)">
            <g id="Icon/Social/i_vk" transform="translate(1498.000000, 5335.000000)">
                <g>
                    <use id="Oval-4-Copy" stroke="#FFFFFF" mask="url(#mask-2)" stroke-width="3" xlink:href="#path-1"></use>
                    <path d="M21.3434057,17.694226 C21.857693,18.2067261 22.4005064,18.688914 22.8617654,19.2530957 C23.0655242,19.5038084 23.2584328,19.7625282 23.4060051,20.0534839 C23.6151126,20.4670923 23.4257188,20.9222436 23.0623659,20.9469405 L20.8036996,20.9459006 C20.2211532,20.9952425 19.7564303,20.7558643 19.3656719,20.349327 C19.0529531,20.0242115 18.7633609,19.6781947 18.4626639,19.3421086 C18.3393898,19.2047417 18.2103595,19.0754858 18.056216,18.9733186 C17.747878,18.769036 17.4802408,18.8315842 17.3040404,19.1598193 C17.1245798,19.4936697 17.083879,19.8633436 17.0662539,20.2354092 C17.0420575,20.7782735 16.8812918,20.9209957 16.3470363,20.9458486 C15.2052738,21.0008058 14.1216845,20.8244958 13.1150651,20.2366051 C12.2275937,19.7183337 11.5393984,18.9866809 10.9403984,18.1583722 C9.77413402,16.5454813 8.88100826,14.7731782 8.07830048,12.9512214 C7.89761737,12.5407326 8.02975495,12.3203841 8.47349067,12.312585 C9.21033342,12.2979748 9.9470743,12.2990147 10.684783,12.3115452 C10.9842575,12.3160166 11.1825148,12.4913387 11.2981479,12.7801107 C11.696802,13.780622 12.1846006,14.7325193 12.7968958,15.6148493 C12.9599538,15.849756 13.1262209,16.0846627 13.3629887,16.2500021 C13.6249206,16.4330713 13.8243495,16.3723948 13.9475727,16.074576 C14.0257651,15.8857355 14.0599966,15.6823369 14.0776217,15.4800821 C14.1359986,14.7842529 14.1436905,14.0896195 14.0413017,13.3962339 C13.9784421,12.9634919 13.7396368,12.6833508 13.3165826,12.601461 C13.1007002,12.5597102 13.1328431,12.4777164 13.2373714,12.3519441 C13.4189205,12.1350272 13.5896703,12 13.9300494,12 L16.4826887,12 C16.884552,12.0809539 16.9737983,12.2652189 17.0288132,12.6779435 L17.0310036,15.5720586 C17.0266228,15.7318347 17.109196,16.2059636 17.3911473,16.3117184 C17.6168102,16.387005 17.7655541,16.20274 17.9009518,16.0566902 C18.5121263,15.3946048 18.948323,14.6121543 19.3380117,13.8019393 C19.5109519,13.4456798 19.6596449,13.0756939 19.8037533,12.70602 C19.9105229,12.4317022 20.0780636,12.296727 20.3807982,12.3027063 L22.837569,12.304942 C22.9104128,12.304942 22.9841225,12.3060338 23.054674,12.3183563 C23.468661,12.3903673 23.5821037,12.5721367 23.454245,12.9847572 C23.2527785,13.6321285 22.8607975,14.1716132 22.4775272,14.7135937 C22.0678192,15.2922295 21.6296359,15.8510559 21.2233409,16.4331233 C20.8500548,16.964653 20.8797017,17.2325756 21.3434057,17.694226 L21.3434057,17.694226 Z" id="XMLID_807_" fill="#FFFFFF"></path>
                </g>
            </g>
        </g>
    </g>
</svg>