<?xml version="1.0" encoding="UTF-8"?>
<svg width="32px" height="26px" viewBox="0 0 32 26" version="1.1" xmlns="http://www.w3.org/2000/svg" xmlns:xlink="http://www.w3.org/1999/xlink">
    <!-- Generator: sketchtool 41.2 (35397) - http://www.bohemiancoding.com/sketch -->
    <title>FE5DA0F5-4626-492A-B8C4-6FE9BDCD518E</title>
    <desc>Created with sketchtool.</desc>
    <defs></defs>
    <g id="Final-Design" stroke="none" stroke-width="1" fill="none" fill-rule="evenodd">
        <g id="0.-Style" transform="translate(-737.000000, -1555.000000)" fill="#00B9CD">
            <g id="Icon/Service/i_wi_fi" transform="translate(733.000000, 1548.000000)">
                <path d="M22.4458,29 C22.4458,30.3806001 21.3269155,31.5 19.9458,31.5 C18.5659424,31.5 17.4458,30.3798576 17.4458,29 C17.4458,27.6201424 18.5659424,26.5 19.9458,26.5 C21.3269155,26.5 22.4458,27.6193999 22.4458,29 Z M23.4458,29 C23.4458,27.0672182 21.8793033,25.5 19.9458,25.5 C18.0136576,25.5 16.4458,27.0678576 16.4458,29 C16.4458,30.9321424 18.0136576,32.5 19.9458,32.5 C21.8793033,32.5 23.4458,30.9327818 23.4458,29 Z" id="Stroke-1"></path>
                <path d="M13.3713381,24.262521 C14.8090798,21.9319881 17.2653443,20.5 19.9458,20.5 C22.6278652,20.5 25.0832691,21.9316358 26.520183,24.2623932 C26.6650988,24.497455 26.9731315,24.5705327 27.2081932,24.425617 C27.443255,24.2807012 27.5163327,23.9726685 27.371417,23.7376068 C25.7560003,21.1173076 22.98215,19.5 19.9458,19.5 C16.9111247,19.5 14.1365181,21.1175797 12.5202619,23.737479 C12.3752755,23.9724972 12.4482607,24.2805518 12.683279,24.4255381 C12.9182972,24.5705245 13.2263518,24.4975393 13.3713381,24.262521 Z" id="Stroke-3"></path>
                <path d="M9.32165503,19.3297469 C11.997659,16.2795601 15.8290378,14.5 19.9458,14.5 C24.0674003,14.5 27.896909,16.2739372 30.5699983,19.3198077 C30.7521461,19.5273572 31.0680581,19.5479494 31.2756077,19.3658017 C31.4831572,19.1836539 31.5037494,18.8677419 31.3216017,18.6601923 C28.4606604,15.4002726 24.3584235,13.5 19.9458,13.5 C15.5376018,13.5 11.4335867,15.4061915 8.56994497,18.6702531 C8.38783081,18.8778321 8.40847413,19.1937409 8.61605313,19.375855 C8.82363213,19.5579692 9.13954086,19.5373259 9.32165503,19.3297469 Z" id="Stroke-5"></path>
                <path d="M5.34455848,14.2588251 C9.19767012,10.5946506 14.397827,8.5005 19.945,8.5005 C25.5559704,8.5005 30.8016149,10.6347359 34.6523565,14.3598661 C34.8508289,14.5518643 35.1673678,14.5466159 35.3593661,14.3481435 C35.5513643,14.1496711 35.5461159,13.8331322 35.3476435,13.6411339 C31.3109198,9.73608826 25.8161657,7.5005 19.945,7.5005 C14.1403324,7.5005 8.69374331,9.69389107 4.65544152,13.5341749 C4.45533491,13.7244693 4.44738054,14.0409519 4.63767493,14.2410585 C4.82796932,14.4411651 5.14445187,14.4491195 5.34455848,14.2588251 Z" id="Stroke-7"></path>
            </g>
        </g>
    </g>
</svg>