<svg xmlns="http://www.w3.org/2000/svg" viewBox="0 0 18 18"><defs><style>.a{fill:#585858;}</style></defs><g transform="translate(-6.4 -6.4)"><g transform="translate(6.4 6.4)"><path class="a" d="M15.4,24.4a9,9,0,1,0-9-9A9.007,9.007,0,0,0,15.4,24.4Zm0-16.73A7.73,7.73,0,1,1,7.67,15.4,7.742,7.742,0,0,1,15.4,7.67Z" transform="translate(-6.4 -6.4)"/><path class="a" d="M41.686,47.84a.636.636,0,0,0,.9,0l2.478-2.478,2.478,2.478a.636.636,0,0,0,.9,0,.636.636,0,0,0,0-.9l-2.478-2.478,2.478-2.478a.635.635,0,0,0-.9-.9l-2.478,2.478-2.478-2.478a.635.635,0,1,0-.9.9l2.478,2.478-2.478,2.478A.636.636,0,0,0,41.686,47.84Z" transform="translate(-36.063 -35.556)"/></g></g></svg>