<svg xmlns="http://www.w3.org/2000/svg" viewBox="0 0 21 29"><defs><style>.a{fill:#585858;fill-rule:evenodd;}</style></defs><path class="a" d="M19.25,21.75H1.75V7.25A1.783,1.783,0,0,1,3.5,5.437H5.25v5.438H7V5.437h7v5.438h1.75V5.437H17.5A1.783,1.783,0,0,1,19.25,7.25v14.5Zm0,3.625a1.783,1.783,0,0,1-1.75,1.813H3.5a1.783,1.783,0,0,1-1.75-1.812V23.563h17.5v1.813ZM10.5,1.813c1.933,0,3.5.561,3.5,1.813H7c0-1.252,1.567-1.812,3.5-1.812Zm7,1.813H15.75C15.75,1.623,13.4,0,10.5,0S5.25,1.623,5.25,3.625H3.5A3.564,3.564,0,0,0,0,7.25V25.375A3.564,3.564,0,0,0,3.5,29h14A3.564,3.564,0,0,0,21,25.375V7.25a3.564,3.564,0,0,0-3.5-3.625Z"/></svg>