<svg xmlns="http://www.w3.org/2000/svg" viewBox="0 0 15.431 15.43"><defs><style>.a{opacity:0.5;}</style></defs><path class="a" d="M10.286,8.571A2.571,2.571,0,1,1,7.714,6,2.576,2.576,0,0,1,10.286,8.571Zm1.386,0a3.958,3.958,0,1,0-3.958,3.958A3.952,3.952,0,0,0,11.672,8.571Zm1.085-4.118a.924.924,0,1,0-.924.924A.922.922,0,0,0,12.757,4.453ZM7.714,2.243a17.052,17.052,0,0,1,4.55.311,2.63,2.63,0,0,1,1.467,1.467,17.051,17.051,0,0,1,.311,4.55,17.052,17.052,0,0,1-.311,4.55,2.63,2.63,0,0,1-1.467,1.466,17.051,17.051,0,0,1-4.55.311,17.051,17.051,0,0,1-4.55-.311,2.468,2.468,0,0,1-.884-.583,2.467,2.467,0,0,1-.583-.884,17.053,17.053,0,0,1-.311-4.55A17.052,17.052,0,0,1,1.7,4.021a2.466,2.466,0,0,1,.583-.884,2.466,2.466,0,0,1,.884-.583A17.052,17.052,0,0,1,7.714,2.243Zm7.714,6.328c0-1.065.01-2.119-.05-3.184a4.587,4.587,0,0,0-1.245-3.234A4.587,4.587,0,0,0,10.9.907C9.834.847,8.779.857,7.714.857S5.595.847,4.53.907A4.587,4.587,0,0,0,1.3,2.153,4.587,4.587,0,0,0,.05,5.387C-.01,6.452,0,7.507,0,8.571s-.01,2.119.05,3.184A4.587,4.587,0,0,0,1.3,14.99,4.587,4.587,0,0,0,4.53,16.236c1.065.06,2.119.05,3.184.05s2.119.01,3.184-.05a4.587,4.587,0,0,0,3.234-1.246,4.587,4.587,0,0,0,1.245-3.234C15.439,10.691,15.429,9.636,15.429,8.571Z" transform="translate(0.001 -0.856)"/></svg>