<svg xmlns="http://www.w3.org/2000/svg" viewBox="0 0 58 46">
  <defs>
    <style>
      .cls-1 {
        fill: #d4d4d4;
      }
    </style>
  </defs>
  <g id="picture" transform="translate(0 -6)">
    <path id="Path_106" data-name="Path 106" class="cls-1" d="M57,6H1A1,1,0,0,0,0,7V51a1,1,0,0,0,1,1H57a1,1,0,0,0,1-1V7A1,1,0,0,0,57,6ZM56,50H2V8H56Z"/>
    <path id="Path_107" data-name="Path 107" class="cls-1" d="M16,28.138a5.569,5.569,0,1,0-5.569-5.569A5.575,5.575,0,0,0,16,28.138ZM16,19a3.569,3.569,0,1,1-3.569,3.57A3.574,3.574,0,0,1,16,19Z"/>
    <path id="Path_108" data-name="Path 108" class="cls-1" d="M7,46a1,1,0,0,0,.66-.249L23.973,31.389l10.3,10.3a1,1,0,0,0,1.414-1.414l-4.807-4.807,9.181-10.054L51.324,35.738a1,1,0,1,0,1.351-1.475l-12-11a1.031,1.031,0,0,0-.72-.262,1,1,0,0,0-.694.325L29.467,34.053,24.724,29.31a1,1,0,0,0-1.368-.044L6.339,44.249A1,1,0,0,0,7,46Z"/>
  </g>
</svg>
