<?xml version="1.0" encoding="utf-8"?>
<!-- Generator: Adobe Illustrator 12.0.0, SVG Export Plug-In  -->
<!DOCTYPE svg PUBLIC "-//W3C//DTD SVG 1.1//EN" "http://www.w3.org/Graphics/SVG/1.1/DTD/svg11.dtd" [
	<!ENTITY ns_flows "http://ns.adobe.com/Flows/1.0/">
	<!ENTITY ns_svg "http://www.w3.org/2000/svg">
	<!ENTITY ns_xlink "http://www.w3.org/1999/xlink">
]>
<svg  version="1.1" xmlns="&ns_svg;" xmlns:xlink="&ns_xlink;" xmlns:a="http://ns.adobe.com/AdobeSVGViewerExtensions/3.0/"
	 width="41" height="39" viewBox="-0.436 -0.89 41 39" enable-background="new -0.436 -0.89 41 39" xml:space="preserve">
<defs>
</defs>
<path fill="#010101" d="M33.328,2.182L3.001,32.221c-0.957,0.944-0.968,2.485-0.024,3.442c0.008,0.008,0.016,0.016,0.024,0.023
	c0.468,0.458,1.096,0.714,1.75,0.714c0.653-0.002,1.28-0.258,1.75-0.714l30.32-30.06c0.957-0.943,0.968-2.484,0.023-3.441
	c-0.008-0.008-0.016-0.016-0.023-0.023C35.844,1.219,34.294,1.229,33.328,2.182z"/>
<path fill="#010101" d="M25.387,22.412c-3.418,3.393-3.438,8.914-0.045,12.332c0.016,0.016,0.03,0.029,0.045,0.045
	c3.465,3.42,9.035,3.42,12.5,0c3.418-3.394,3.438-8.914,0.045-12.332c-0.015-0.016-0.029-0.03-0.045-0.045
	C34.422,18.992,28.852,18.992,25.387,22.412z M34.398,31.344c-0.732,0.727-1.725,1.131-2.757,1.123c-1.03,0-2.02-0.403-2.757-1.123
	c-1.506-1.512-1.502-3.958,0.01-5.465c0.729-0.727,1.718-1.132,2.747-1.127c1.03,0,2.021,0.403,2.757,1.123
	c1.511,1.49,1.527,3.922,0.039,5.432c-0.012,0.013-0.024,0.025-0.037,0.037H34.398z"/>
<path fill="#010101" d="M8.846,0C6.503-0.006,4.253,0.918,2.592,2.57c-3.424,3.379-3.46,8.893-0.082,12.316
	c0.027,0.027,0.055,0.055,0.082,0.082c3.465,3.42,9.035,3.42,12.5,0c3.424-3.379,3.46-8.893,0.082-12.316
	c-0.027-0.027-0.055-0.055-0.082-0.082C13.431,0.924,11.186-0.001,8.846,0z M11.604,11.502c-0.732,0.729-1.725,1.133-2.758,1.123
	c-1.029,0-2.02-0.402-2.756-1.123c-0.732-0.717-1.143-1.701-1.137-2.727C4.944,6.65,6.66,4.92,8.785,4.912
	c0.019-0.001,0.037,0,0.057,0c1.029-0.001,2.02,0.4,2.757,1.12c1.503,1.508,1.503,3.946,0,5.454L11.604,11.502z"/>
</svg>
