<?xml version="1.0" encoding="utf-8"?>
<!-- Generator: Adobe Illustrator 12.0.0, SVG Export Plug-In  -->
<!DOCTYPE svg PUBLIC "-//W3C//DTD SVG 1.1//EN" "http://www.w3.org/Graphics/SVG/1.1/DTD/svg11.dtd" [
	<!ENTITY ns_flows "http://ns.adobe.com/Flows/1.0/">
	<!ENTITY ns_svg "http://www.w3.org/2000/svg">
	<!ENTITY ns_xlink "http://www.w3.org/1999/xlink">
]>
<svg  version="1.1" xmlns="&ns_svg;" xmlns:xlink="&ns_xlink;" xmlns:a="http://ns.adobe.com/AdobeSVGViewerExtensions/3.0/"
	 width="15" height="15" viewBox="-0.565 -0.982 15 15" enable-background="new -0.565 -0.982 15 15" xml:space="preserve">
<defs>
</defs>
<path fill="#010101" d="M6.84,0C3.06,0,0,3.06,0,6.84c0,3.721,3.06,6.78,6.84,6.78c3.72,0,6.779-3.06,6.779-6.78
	C13.619,3.06,10.56,0,6.84,0L6.84,0z M6.84,0.9c3.24,0,5.88,2.64,5.88,5.94c0,3.24-2.64,5.88-5.88,5.88c-3.3,0-5.94-2.64-5.94-5.88
	C0.9,3.54,3.54,0.9,6.84,0.9L6.84,0.9z M6.3,2.82v3.66H2.64v0.781H6.3v3.779h0.779V7.261h3.78V6.48h-3.78V2.82H6.3z"/>
</svg>
