<svg xmlns="http://www.w3.org/2000/svg" viewBox="0 0 48 48"><defs><style>.a{opacity:0.2;}.b{fill:#fff;}</style></defs><g class="a" transform="translate(0 -0.001)"><g transform="translate(0 0.001)"><g transform="translate(0 0)"><path d="M24,0A24,24,0,1,0,38.219,43.335a.839.839,0,0,1-.571-.278l-3.931-4.393L31.6,41.914l-1.748-8.831,8.99,2.8-3.87,1.662L38.9,41.935a.836.836,0,0,1,.2.72A24,24,0,0,0,24,0Z" transform="translate(0 -0.001)"/><g transform="translate(5.963 20.058)"><path class="b" d="M64.108,211.181l.22,1.223.024.008.269-1.231L66.4,205.54h1.223l1.777,5.641.285,1.337h.024l.277-1.337,1.427-5.641h1.5l-2.56,8.821H69.13l-1.745-5.437L67,207.35h-.024l-.367,1.573L64.9,214.361H63.668l-2.56-8.821h1.508Z" transform="translate(-61.108 -205.54)"/><path class="b" d="M193.586,211.181l.22,1.223.024.008.269-1.231,1.777-5.641H197.1l1.777,5.641.285,1.337h.025l.277-1.337,1.427-5.641h1.5l-2.56,8.821h-1.223l-1.745-5.437-.383-1.573h-.024l-.367,1.573-1.712,5.437h-1.231l-2.56-8.821h1.508Z" transform="translate(-177.95 -205.54)"/><path class="b" d="M323.069,211.181l.22,1.223.025.008.269-1.231,1.777-5.641h1.223l1.777,5.641.285,1.337h.025l.277-1.337,1.427-5.641h1.5l-2.56,8.821h-1.223l-1.745-5.437-.383-1.573h-.024l-.367,1.573-1.712,5.437h-1.231l-2.56-8.821h1.508Z" transform="translate(-294.797 -205.54)"/></g></g></g></g></svg>