<svg xmlns="http://www.w3.org/2000/svg" viewBox="0 0 22 22"><defs><style>.a{fill:#ffd600;fill-rule:evenodd;}</style></defs><path class="a" d="M22,8.526q0-.513-.741-.638L14.622,6.876,11.648.568Q11.4,0,11,0t-.648.568L7.377,6.876.74,7.888Q0,8.012,0,8.526a1.075,1.075,0,0,0,.33.665L5.143,14.1,4.006,21.029a2.384,2.384,0,0,0-.026.278.844.844,0,0,0,.139.492.469.469,0,0,0,.416.2,1.084,1.084,0,0,0,.529-.166L11,18.562l5.936,3.272a1.041,1.041,0,0,0,.529.166.458.458,0,0,0,.4-.2.85.85,0,0,0,.139-.492,2.217,2.217,0,0,0-.013-.278L16.857,14.1l4.8-4.908A1.019,1.019,0,0,0,22,8.526Z"/></svg>