<svg xmlns="http://www.w3.org/2000/svg" viewBox="0 0 15.83 12.857"><defs><style>.a{opacity:0.5;}</style></defs><path class="a" d="M16.272,3.67a6.5,6.5,0,0,1-1.868.5A3.236,3.236,0,0,0,15.83,2.384a6.387,6.387,0,0,1-2.059.783,3.248,3.248,0,0,0-5.615,2.22,3.661,3.661,0,0,0,.08.743,9.222,9.222,0,0,1-6.69-3.4,3.249,3.249,0,0,0,1,4.339,3.268,3.268,0,0,1-1.467-.412V6.7a3.245,3.245,0,0,0,2.6,3.184,3.43,3.43,0,0,1-.854.11,4.088,4.088,0,0,1-.613-.05A3.25,3.25,0,0,0,5.253,12.2a6.5,6.5,0,0,1-4.028,1.386,6.693,6.693,0,0,1-.783-.04A9.168,9.168,0,0,0,5.424,15a9.168,9.168,0,0,0,9.231-9.231c0-.141,0-.281-.01-.422A6.974,6.974,0,0,0,16.272,3.67Z" transform="translate(-0.443 -2.143)"/></svg>