<svg xmlns="http://www.w3.org/2000/svg" width="81" height="142" viewBox="0 0 81 142">
    <g fill="none" fill-rule="evenodd">
        <path fill="#0AA7B8" d="M47.197 71L.668 82.082 48 106.496z"/>
        <path fill="#00B9CD" d="M.229 18.51L81 .887V75.16L.229 89.794"/>
        <path fill="#FFF" d="M14.905 53.081l-7.406 1.04-.42-2.991 7.405-1.041.421 2.992zm17.28 3.591l-12.28 1.726-.476-3.385 4.02-.565-1.698-12.09-4.004 1.474-.487-3.466 8.156-2.872 2.299 16.355 3.994-.562.475 3.385zm9.294-.961c-4.621.65-7.388-2.27-8.3-8.76-.473-3.367-.209-6.02.793-7.96 1.002-1.94 2.69-3.078 5.064-3.411 4.513-.635 7.233 2.347 8.16 8.945.462 3.286.2 5.89-.786 7.815-.986 1.924-2.63 3.048-4.931 3.371zm-2.174-16.842c-1.85.26-2.449 2.714-1.795 7.363.615 4.377 1.83 6.439 3.644 6.184 1.769-.249 2.336-2.63 1.702-7.143-.634-4.513-1.818-6.647-3.55-6.404zm14.672 4.98c-1.381.193-2.555-.088-3.522-.845-.967-.757-1.555-1.875-1.763-3.356-.227-1.615.042-2.96.807-4.034.765-1.074 1.897-1.716 3.395-1.927 1.435-.201 2.617.07 3.545.814.928.744 1.502 1.892 1.72 3.444.224 1.598-.044 2.929-.806 3.993-.761 1.064-1.887 1.701-3.376 1.91zm-.83-7.767c-1.317.185-1.847 1.193-1.59 3.026.244 1.733.993 2.511 2.247 2.335 1.282-.18 1.796-1.173 1.542-2.978-.247-1.76-.98-2.555-2.198-2.383zm13.622-4.069l-9.917 21.192-3.304.465 9.89-21.188 3.33-.469zm.681 19.979c-1.38.194-2.555-.087-3.522-.844-.967-.757-1.554-1.876-1.762-3.356-.227-1.616.042-2.96.807-4.034.765-1.074 1.896-1.717 3.394-1.927 1.445-.203 2.628.063 3.55.799.923.735 1.493 1.88 1.712 3.432.224 1.597-.044 2.933-.804 4.006-.76 1.073-1.885 1.715-3.375 1.924zm-.87-7.761c-1.308.184-1.834 1.192-1.576 3.024.243 1.733 1.001 2.51 2.274 2.331 1.282-.18 1.796-1.172 1.542-2.978-.118-.84-.38-1.465-.789-1.877-.407-.412-.89-.579-1.45-.5z"/>
        <ellipse cx="46.5" cy="138.34" fill="#EEE" rx="29.5" ry="3.34"/>
    </g>
</svg>
