<svg xmlns="http://www.w3.org/2000/svg" width="115" height="177" viewBox="0 0 115 177">
    <g fill="none" fill-rule="evenodd">
        <path fill="#649600" d="M38 115.003h40l-20 19.091z"/>
        <ellipse cx="58" cy="171.868" fill="#EEE" rx="43" ry="4.868"/>
        <path fill="#78B400" d="M0 0h115v115H0V19.316z"/>
        <path fill="#FFF" d="M23.803 62.91h-10.15v-4.1h10.15v4.1zM46.347 71h-16.83v-4.639h5.511V49.792l-5.659 1.225v-4.75l11.504-2.32v22.414h5.474V71zm4.917-.687v-5.01c1.818 1.114 3.754 1.67 5.807 1.67 1.547 0 2.756-.367 3.628-1.103.872-.736 1.308-1.735 1.308-2.997 0-2.635-1.862-3.952-5.585-3.952-1.212 0-2.678.111-4.398.334V44.393h14.733v4.787h-9.723v5.325c.78-.074 1.515-.111 2.208-.111 2.734 0 4.874.717 6.42 2.152 1.546 1.435 2.32 3.364 2.32 5.789 0 2.684-.922 4.877-2.765 6.578-1.843 1.7-4.342 2.55-7.496 2.55-2.56 0-4.713-.383-6.457-1.15zm26.793-12.431c-1.893 0-3.418-.6-4.574-1.8-1.157-1.2-1.735-2.814-1.735-4.843 0-2.214.615-3.97 1.846-5.27 1.231-1.298 2.873-1.948 4.927-1.948 1.966 0 3.503.588 4.61 1.763 1.107 1.175 1.661 2.827 1.661 4.954 0 2.19-.612 3.928-1.837 5.214-1.225 1.287-2.857 1.93-4.898 1.93zm.352-10.595c-1.806 0-2.709 1.256-2.709 3.767 0 2.375.86 3.562 2.58 3.562 1.756 0 2.634-1.237 2.634-3.71 0-2.413-.835-3.619-2.505-3.619zm19.074-2.894L80.153 71h-4.527l17.293-26.607h4.564zM94.626 71.37c-1.893 0-3.417-.6-4.574-1.8-1.156-1.2-1.735-2.814-1.735-4.842 0-2.215.616-3.971 1.847-5.27 1.23-1.299 2.872-1.948 4.926-1.948 1.979 0 3.519.581 4.62 1.744 1.1 1.163 1.651 2.808 1.651 4.935 0 2.19-.612 3.934-1.837 5.233-1.224 1.299-2.857 1.948-4.898 1.948zm.297-10.595c-1.794 0-2.69 1.256-2.69 3.767 0 2.375.871 3.562 2.616 3.562 1.756 0 2.634-1.236 2.634-3.71 0-1.15-.235-2.041-.705-2.672-.47-.631-1.088-.947-1.855-.947z"/>
    </g>
</svg>
