<svg xmlns="http://www.w3.org/2000/svg" width="81" height="142" viewBox="0 0 81 142">
    <g fill="none" fill-rule="evenodd">
        <path fill="#0AA7B8" d="M33.803 71l46.529 11.082L33 106.496z"/>
        <path fill="#00B9CD" d="M80.771 18.51L0 .662V75.16l80.771 14.634"/>
        <path fill="#FFF" d="M22.88 47.9l-7.406-1.041.42-2.992 7.406 1.04-.42 2.993zm18.3-9.191l-9.3 16.475-4.523-.635L36.5 39.597l-9.044-1.27.49-3.494 13.513 1.9-.278 1.976zm5.854 8.844c-1.38-.194-2.432-.788-3.153-1.782-.72-.994-.977-2.232-.769-3.712.227-1.615.856-2.834 1.888-3.656 1.03-.821 2.296-1.126 3.794-.916 1.435.202 2.496.788 3.184 1.76.687.97.922 2.232.703 3.784-.224 1.598-.85 2.803-1.875 3.616-1.025.813-2.283 1.115-3.772.906zm1.344-7.694c-1.318-.186-2.106.638-2.363 2.47-.244 1.733.262 2.688 1.517 2.864 1.281.18 2.049-.632 2.303-2.438.247-1.76-.239-2.725-1.457-2.896zm14.215-.157L47.219 57.34l-3.304-.464 15.347-17.642 3.33.468zM57.74 59.095c-1.38-.194-2.432-.788-3.153-1.782-.72-.995-.977-2.232-.769-3.712.227-1.616.856-2.834 1.888-3.656 1.03-.821 2.296-1.127 3.794-.916 1.444.203 2.508.785 3.192 1.746.684.962.917 2.219.699 3.771-.225 1.598-.85 2.808-1.877 3.63-1.027.822-2.285 1.128-3.774.919zm1.303-7.7c-1.309-.184-2.092.64-2.35 2.472-.243 1.733.272 2.69 1.544 2.868 1.282.18 2.05-.632 2.303-2.438.118-.84.038-1.513-.24-2.022-.278-.508-.697-.802-1.257-.88z"/>
        <ellipse cx="31.5" cy="138.34" fill="#EEE" rx="29.5" ry="3.34"/>
    </g>
</svg>
