<svg xmlns="http://www.w3.org/2000/svg" width="428" height="219" viewBox="0 0 428 219">
    <g fill="none" fill-rule="evenodd">
        <ellipse cx="85.5" cy="206.321" fill="#EEE" rx="20.5" ry="2.321"/>
        <ellipse cx="327.5" cy="208.321" fill="#EEE" rx="20.5" ry="2.321"/>
        <ellipse cx="215" cy="214.377" fill="#EEE" rx="33" ry="3.736"/>
        <path fill="#0AA7B8" d="M50 95h25.142l-12.571 12z"/>
        <rect width="125" height="40" y="58" fill="#00B9CD" rx="4"/>
        <path fill="#FFF" d="M23.75 82h-2.477v-6.258h-2.765V82h-2.469v-8h7.711v8zm9.266-3.297h-5.22c.084 1.162.816 1.742 2.196 1.742.88 0 1.654-.208 2.32-.625v1.782c-.74.395-1.7.593-2.882.593-1.292 0-2.295-.358-3.008-1.074-.714-.716-1.07-1.715-1.07-2.996 0-1.328.385-2.38 1.156-3.156.77-.776 1.719-1.164 2.844-1.164 1.166 0 2.069.346 2.707 1.039.638.692.957 1.633.957 2.82v1.04zm-2.29-1.516c0-1.145-.463-1.718-1.39-1.718-.396 0-.738.164-1.027.492-.29.328-.465.737-.528 1.227h2.946zm6.258 3.883h-.03v4.61h-2.47V74h2.47v1.203h.03c.61-.932 1.467-1.398 2.57-1.398 1.037 0 1.838.355 2.403 1.066.565.711.848 1.678.848 2.902 0 1.334-.33 2.404-.989 3.211-.658.808-1.535 1.211-2.629 1.211-.963 0-1.697-.375-2.203-1.125zm-.07-3.28v.64c0 .552.146 1.002.438 1.351.291.35.674.524 1.148.524.563 0 .999-.218 1.309-.653.31-.435.464-1.05.464-1.847 0-1.407-.546-2.11-1.64-2.11a1.54 1.54 0 0 0-1.238.575c-.32.382-.48.889-.48 1.52zm14.68.913h-5.219c.083 1.162.815 1.742 2.195 1.742.88 0 1.654-.208 2.32-.625v1.782c-.739.395-1.7.593-2.882.593-1.292 0-2.294-.358-3.008-1.074-.714-.716-1.07-1.715-1.07-2.996 0-1.328.385-2.38 1.156-3.156.77-.776 1.719-1.164 2.844-1.164 1.166 0 2.069.346 2.707 1.039.638.692.957 1.633.957 2.82v1.04zm-2.29-1.516c0-1.145-.463-1.718-1.39-1.718-.396 0-.738.164-1.027.492-.29.328-.465.737-.528 1.227h2.946zM53.063 82v-8h4.47c1.906 0 2.859.651 2.859 1.953 0 .464-.15.856-.45 1.176-.3.32-.688.53-1.168.629.589.073 1.051.277 1.387.613.336.336.504.746.504 1.23 0 .725-.258 1.305-.773 1.743-.516.437-1.224.656-2.125.656h-4.703zm2.47-6.492v1.68h1.21c.75 0 1.125-.295 1.125-.883 0-.532-.354-.797-1.062-.797H55.53zm0 3.133v1.82h1.421c.787 0 1.18-.318 1.18-.953 0-.578-.404-.867-1.211-.867h-1.39zm10.616 3.554c-1.333 0-2.381-.373-3.144-1.12-.763-.748-1.145-1.762-1.145-3.044 0-1.323.396-2.358 1.188-3.105.792-.748 1.862-1.121 3.21-1.121 1.329 0 2.37.373 3.126 1.12.755.748 1.133 1.736 1.133 2.966 0 1.328-.39 2.377-1.168 3.148-.779.77-1.845 1.156-3.2 1.156zm.063-6.5c-.583 0-1.037.2-1.36.602-.322.4-.484.969-.484 1.703 0 1.536.62 2.305 1.86 2.305 1.182 0 1.773-.79 1.773-2.368 0-1.494-.596-2.242-1.79-2.242zm14.25 9.22h-2.016V82h-5.382v2.914h-1.985v-4.656h.711c1.13-1.771 1.727-3.857 1.79-6.258h5.616v6.258h1.266v4.656zm-3.734-4.657v-4.531H75.5c-.12 1.687-.557 3.197-1.313 4.53h2.54zM89.187 82H86.72v-2.766c-.839.47-1.649.704-2.43.704-1.812 0-2.719-.917-2.719-2.75V74h2.368v2.797c0 .823.367 1.234 1.101 1.234.52 0 1.08-.159 1.68-.476V74h2.469v8zm10.04 0h-2.243v-5.234a9.915 9.915 0 0 1-.656 1.14L93.61 82h-2.336v-8h2.258v5.07a8.33 8.33 0 0 1 .547-.976L96.797 74h2.43v8zm10.07 0h-2.961l-2.523-3.906h-.032V82h-2.469v-8h2.47v3.758h.03L106.273 74h2.93l-2.945 3.805L109.297 82z"/>
        <path fill="#649600" d="M75 154h25.142l-12.571 12z"/>
        <rect width="89" height="40" x="44" y="117" fill="#78B400" rx="4"/>
        <path fill="#FFF" d="M67.125 128.969v1.953c-.25.193-.583.32-1 .383-1.172.182-1.872.3-2.102.351-.474.11-.819.258-1.035.446-.216.187-.393.46-.531.82-.138.36-.233.797-.285 1.312h.031c.594-.682 1.388-1.023 2.383-1.023 1.135 0 2.02.337 2.652 1.012.633.674.95 1.605.95 2.793 0 1.27-.389 2.285-1.165 3.043-.776.757-1.828 1.136-3.156 1.136-1.39 0-2.448-.442-3.172-1.328-.724-.885-1.086-2.166-1.086-3.844 0-.802.06-1.527.18-2.175.12-.649.3-1.222.54-1.72.239-.496.534-.912.886-1.245a3.61 3.61 0 0 1 1.078-.73 6.103 6.103 0 0 1 1.082-.344c.354-.076 1.242-.223 2.664-.442.469-.12.83-.252 1.086-.398zm-4.992 6.992c-.01.125-.016.37-.016.734 0 .797.16 1.431.48 1.903.321.471.765.707 1.333.707.515 0 .935-.198 1.258-.594.322-.396.484-.925.484-1.586 0-.672-.163-1.197-.488-1.574-.326-.378-.765-.567-1.317-.567-.36 0-.699.094-1.02.282-.32.187-.558.419-.714.695zM77.734 141h-2.242v-5.234a9.915 9.915 0 0 1-.656 1.14L72.117 141h-2.336v-8h2.258v5.07a8.33 8.33 0 0 1 .547-.976L75.305 133h2.43v8zm9.657 0h-2.485v-6.258h-1.36c-.286 2.422-.714 4.086-1.284 4.992-.57.907-1.369 1.36-2.395 1.36-.354 0-.674-.052-.96-.156v-1.68c.182.083.374.125.577.125.49 0 .896-.456 1.22-1.367.322-.912.614-2.584.874-5.016h5.813v8zm9.265-3.297h-5.219c.084 1.162.816 1.742 2.196 1.742.88 0 1.653-.208 2.32-.625v1.782c-.74.395-1.7.593-2.883.593-1.291 0-2.294-.358-3.007-1.074-.714-.716-1.07-1.715-1.07-2.996 0-1.328.385-2.38 1.155-3.156.771-.776 1.72-1.164 2.844-1.164 1.167 0 2.07.346 2.707 1.039.638.692.957 1.633.957 2.82v1.04zm-2.289-1.516c0-1.145-.463-1.718-1.39-1.718-.396 0-.739.164-1.028.492-.289.328-.465.737-.527 1.226h2.945zm9.742-1.312h-2.14V141h-2.485v-6.125h-2.156V133h6.781v1.875zM116.36 141h-2.476v-8h2.476v8zm-10.96 0v-8h2.468v2.797h2.11c.906 0 1.612.22 2.117.66.505.44.758 1.059.758 1.856 0 .817-.25 1.47-.75 1.957-.5.487-1.193.73-2.079.73h-4.625zm2.468-3.648v2.078h1.195c.834 0 1.25-.357 1.25-1.07 0-.673-.406-1.008-1.218-1.008h-1.227z"/>
        <path fill="#0AA7B8" d="M342 100h25.142l-12.571 12z"/>
        <rect width="147" height="40" x="281" y="64" fill="#00B9CD" rx="4"/>
        <path fill="#FFF" d="M296.625 87.79V86c.77.354 1.54.531 2.305.531 1.11 0 1.664-.304 1.664-.914 0-.63-.604-.945-1.813-.945h-1.117v-1.524h1.133c1.036 0 1.555-.302 1.555-.906 0-.536-.464-.805-1.391-.805-.698 0-1.396.157-2.094.47V80.21c.938-.27 1.784-.406 2.54-.406 2.327 0 3.491.721 3.491 2.164 0 1-.62 1.617-1.859 1.851v.04c.656.057 1.17.255 1.54.593.369.339.554.768.554 1.29 0 1.609-1.305 2.413-3.914 2.413-.995 0-1.86-.122-2.594-.367zm14.758.21h-2.336v-1.148h-.031c-.537.895-1.331 1.343-2.383 1.343-.776 0-1.387-.22-1.832-.66-.446-.44-.668-1.027-.668-1.762 0-1.552.92-2.447 2.758-2.687l2.171-.29c0-.874-.473-1.312-1.421-1.312-.954 0-1.86.284-2.72.852v-1.86c.345-.177.815-.333 1.411-.468a7.413 7.413 0 0 1 1.629-.203c2.281 0 3.422 1.138 3.422 3.414V88zm-2.32-3.25v-.54l-1.454.188c-.802.105-1.203.467-1.203 1.086 0 .282.098.512.293.692.196.18.46.27.793.27.464 0 .841-.16 1.133-.481.292-.32.438-.725.438-1.215zM321.046 88h-2.477v-6.258h-2.765V88h-2.47v-8h7.712v8zm10.031 0h-2.242v-5.234a9.915 9.915 0 0 1-.656 1.14L325.46 88h-2.335v-8h2.258v5.07a8.33 8.33 0 0 1 .547-.976L328.648 80h2.43v8zm8.149-.29c-.558.324-1.362.485-2.414.485-1.23 0-2.224-.372-2.985-1.117-.76-.745-1.14-1.706-1.14-2.883 0-1.36.407-2.43 1.222-3.215.815-.783 1.905-1.175 3.27-1.175.942 0 1.625.125 2.047.375v2.093a2.814 2.814 0 0 0-1.727-.578c-.708 0-1.27.207-1.684.621-.414.414-.62.986-.62 1.715 0 .709.197 1.265.593 1.668.396.404.94.606 1.633.606.614 0 1.216-.193 1.805-.578v1.984zm1.617.29v-8h2.469v2.797h2.109c.906 0 1.612.22 2.117.66.505.44.758 1.059.758 1.856 0 .817-.25 1.47-.75 1.957-.5.487-1.193.73-2.078.73h-4.625zm2.469-3.648v2.078h1.195c.833 0 1.25-.357 1.25-1.07 0-.673-.406-1.008-1.219-1.008h-1.226zM362.188 88h-2.961l-2.524-3.906h-.031V88h-2.469v-8h2.469v3.758h.031L359.164 80h2.93l-2.946 3.805 3.04 4.195zm5.375 0v-8h4.468c1.907 0 2.86.651 2.86 1.953 0 .464-.15.856-.45 1.176-.3.32-.688.53-1.168.629.589.073 1.051.277 1.387.613.336.336.504.746.504 1.23 0 .725-.258 1.305-.773 1.743-.516.437-1.224.656-2.125.656h-4.704zm2.468-6.492v1.68h1.211c.75 0 1.125-.295 1.125-.883 0-.532-.354-.797-1.062-.797h-1.274zm0 3.133v1.82h1.422c.787 0 1.18-.318 1.18-.953 0-.578-.404-.867-1.211-.867h-1.39zm9.305 2.43h-.031v4.609h-2.47V80h2.47v1.203h.03c.61-.932 1.467-1.398 2.571-1.398 1.037 0 1.837.355 2.403 1.066.565.711.847 1.678.847 2.902 0 1.334-.33 2.404-.988 3.211-.659.808-1.535 1.211-2.629 1.211-.963 0-1.698-.375-2.203-1.125zm-.07-3.282v.64c0 .553.145 1.003.437 1.352.292.35.675.524 1.149.524.562 0 .998-.218 1.308-.653.31-.435.465-1.05.465-1.847 0-1.407-.547-2.11-1.64-2.11a1.54 1.54 0 0 0-1.239.575c-.32.382-.48.889-.48 1.52zM393.258 88h-2.336v-1.148h-.031c-.537.895-1.331 1.343-2.383 1.343-.776 0-1.387-.22-1.832-.66-.446-.44-.668-1.027-.668-1.762 0-1.552.92-2.447 2.758-2.687l2.171-.29c0-.874-.473-1.312-1.421-1.312-.954 0-1.86.284-2.72.852v-1.86c.345-.177.815-.333 1.411-.468a7.413 7.413 0 0 1 1.629-.203c2.281 0 3.422 1.138 3.422 3.414V88zm-2.32-3.25v-.54l-1.454.188c-.802.105-1.203.467-1.203 1.086 0 .282.098.512.293.692.196.18.46.27.793.27.464 0 .841-.16 1.133-.481.292-.32.438-.725.438-1.215zM402.594 88h-2.469v-2.766c-.839.47-1.648.704-2.43.704-1.812 0-2.718-.917-2.718-2.75V80h2.367v2.797c0 .823.367 1.234 1.101 1.234.521 0 1.081-.159 1.68-.476V80h2.469v8zm9.703-8l-3.25 8.64c-.781 2.079-1.958 3.118-3.531 3.118-.6 0-1.092-.068-1.477-.203v-1.97c.328.194.685.29 1.07.29.636 0 1.078-.3 1.329-.898l.421-.993L403.61 80h2.735l1.492 4.867c.094.302.167.659.219 1.07h.03c.048-.302.134-.653.259-1.054L409.852 80h2.445z"/>
        <path fill="#649600" d="M191 101h25.142l-12.571 12z"/>
        <rect width="134" height="40" x="136" y="64" fill="#78B400" rx="4"/>
        <path fill="#FFF" d="M162.39 88h-2.304v-6.227c-.052.292-.19.784-.414 1.477L158.117 88h-2.172l-1.554-4.75c-.256-.781-.394-1.268-.414-1.46V88h-1.938v-8h3.25l1.516 4.563c.234.703.364 1.177.39 1.421.037-.234.17-.703.399-1.406l1.5-4.578h3.297v8zm9.266-3.297h-5.219c.084 1.162.816 1.742 2.196 1.742.88 0 1.653-.208 2.32-.625v1.782c-.74.395-1.7.593-2.883.593-1.291 0-2.294-.358-3.007-1.074-.714-.716-1.07-1.715-1.07-2.996 0-1.328.385-2.38 1.155-3.156.771-.776 1.72-1.164 2.844-1.164 1.167 0 2.07.346 2.707 1.039.638.692.957 1.633.957 2.82v1.04zm-2.289-1.516c0-1.145-.463-1.718-1.39-1.718-.396 0-.739.164-1.028.492-.289.328-.465.737-.527 1.227h2.945zm12.242 7.727h-2.015V88h-5.383v2.914h-1.984v-4.656h.71c1.13-1.771 1.727-3.857 1.79-6.258h5.617v6.258h1.265v4.656zm-3.734-4.656v-4.531h-1.227c-.12 1.687-.557 3.197-1.312 4.53h2.539zm6.266 1.937c-.407 0-.745-.125-1.016-.375a1.206 1.206 0 0 1-.406-.922c0-.375.14-.682.418-.921.278-.24.626-.36 1.043-.36.422 0 .767.121 1.035.363.268.243.402.549.402.918 0 .38-.137.692-.41.934-.273.242-.629.363-1.066.363zm3.234-.195v-8h4.469c1.906 0 2.86.651 2.86 1.953 0 .464-.15.856-.45 1.176-.3.32-.689.53-1.168.629.588.073 1.05.277 1.387.613.336.336.504.746.504 1.23 0 .725-.258 1.305-.774 1.743-.516.437-1.224.656-2.125.656h-4.703zm2.469-6.492v1.68h1.21c.75 0 1.126-.295 1.126-.883 0-.532-.354-.797-1.063-.797h-1.273zm0 3.133v1.82h1.422c.786 0 1.18-.318 1.18-.953 0-.578-.404-.867-1.212-.867h-1.39zM207.609 88h-2.476v-8h2.476v8zm-10.96 0v-8h2.468v2.797h2.11c.906 0 1.612.22 2.117.66.505.44.758 1.059.758 1.856 0 .817-.25 1.47-.75 1.957-.5.487-1.193.73-2.079.73h-4.625zm2.468-3.648v2.078h1.196c.833 0 1.25-.357 1.25-1.07 0-.673-.407-1.008-1.22-1.008h-1.226zM217.398 88h-2.476v-6.258h-2.766V88h-2.469v-8h7.711v8zm10.032 0h-2.243v-5.234a9.915 9.915 0 0 1-.656 1.14L221.812 88h-2.335v-8h2.257v5.07a8.33 8.33 0 0 1 .547-.976L225 80h2.43v8zm8.148-.29c-.557.324-1.362.485-2.414.485-1.23 0-2.224-.372-2.984-1.117-.76-.745-1.14-1.706-1.14-2.883 0-1.36.407-2.43 1.222-3.215.815-.783 1.905-1.175 3.27-1.175.942 0 1.624.125 2.046.375v2.093a2.814 2.814 0 0 0-1.726-.578c-.709 0-1.27.207-1.684.621-.414.414-.621.986-.621 1.715 0 .709.198 1.265.594 1.668.395.404.94.606 1.632.606.615 0 1.217-.193 1.805-.578v1.984zm9.602.29h-2.961l-2.524-3.906h-.03V88h-2.47v-8h2.47v3.758h.03L242.156 80h2.93l-2.945 3.805L245.18 88zm8.914 0h-2.242v-5.234a9.915 9.915 0 0 1-.657 1.14L248.477 88h-2.336v-8h2.257v5.07a8.33 8.33 0 0 1 .547-.976l2.72-4.094h2.429v8z"/>
        <path fill="#0AA7B8" d="M275 46h25.142l-12.571 12z"/>
        <rect width="105" height="40" x="236" y="10" fill="#00B9CD" rx="4"/>
        <path fill="#FFF" d="M258.023 27.875h-2.14V34h-2.485v-6.125h-2.156V26h6.781v1.875zm3.79 5.195h-.032v4.61h-2.469V26h2.47v1.203h.03c.61-.932 1.467-1.398 2.57-1.398 1.037 0 1.838.355 2.403 1.066.565.711.848 1.678.848 2.902 0 1.334-.33 2.404-.988 3.211-.66.808-1.536 1.211-2.63 1.211-.963 0-1.697-.375-2.202-1.125zm-.07-3.28v.64c0 .552.145 1.002.437 1.351.291.35.674.524 1.148.524.563 0 .999-.218 1.309-.653.31-.435.465-1.05.465-1.847 0-1.407-.547-2.11-1.641-2.11a1.54 1.54 0 0 0-1.238.575c-.32.382-.48.889-.48 1.52zM275.733 34h-2.336v-1.148h-.03c-.537.895-1.332 1.343-2.384 1.343-.776 0-1.386-.22-1.832-.66-.445-.44-.668-1.027-.668-1.762 0-1.552.92-2.447 2.758-2.687l2.172-.29c0-.874-.474-1.312-1.422-1.312-.953 0-1.86.284-2.719.852v-1.86c.344-.177.814-.333 1.41-.468a7.413 7.413 0 0 1 1.63-.203c2.28 0 3.421 1.138 3.421 3.414V34zm-2.32-3.25v-.54l-1.453.188c-.802.105-1.203.467-1.203 1.086 0 .282.097.512.293.692.195.18.46.27.793.27.463 0 .84-.16 1.133-.481.291-.32.437-.725.437-1.215zM285.398 34h-2.476v-3.344h-2.766V34h-2.469v-8h2.47v2.96h2.765V26h2.476v8zm8.141-.29c-.557.324-1.362.485-2.414.485-1.23 0-2.224-.372-2.984-1.117-.76-.745-1.141-1.706-1.141-2.883 0-1.36.408-2.43 1.223-3.215.815-.783 1.905-1.175 3.27-1.175.942 0 1.624.125 2.046.375v2.093a2.814 2.814 0 0 0-1.726-.578c-.709 0-1.27.207-1.684.621-.414.414-.621.986-.621 1.715 0 .709.198 1.265.594 1.668.395.404.94.606 1.632.606.615 0 1.217-.193 1.805-.578v1.984zm8 .384v3.617h-2.305v-3.617h-.382c-1.303 0-2.329-.37-3.079-1.11-.75-.74-1.125-1.724-1.125-2.953 0-1.265.374-2.27 1.122-3.011.747-.743 1.78-1.114 3.097-1.114h.367v-3.36h2.305v3.36h.352c1.328 0 2.367.37 3.117 1.11.75.74 1.125 1.744 1.125 3.015 0 1.235-.375 2.22-1.125 2.957-.75.737-1.779 1.106-3.086 1.106h-.383zm0-6.446v4.704h.102c.62 0 1.105-.21 1.457-.63.351-.419.527-.982.527-1.69 0-.746-.173-1.329-.52-1.75-.346-.423-.824-.634-1.433-.634h-.133zm-2.305 4.704v-4.704h-.125c-.609 0-1.087.211-1.433.633-.347.422-.52 1.005-.52 1.75 0 .709.176 1.272.528 1.692.351.419.837.629 1.457.629h.093zm15.657-1.649h-5.22c.084 1.162.816 1.742 2.196 1.742.88 0 1.654-.208 2.32-.625v1.782c-.74.395-1.7.593-2.882.593-1.292 0-2.295-.358-3.008-1.074-.714-.716-1.07-1.715-1.07-2.996 0-1.328.385-2.38 1.156-3.156.77-.776 1.719-1.164 2.844-1.164 1.166 0 2.069.346 2.707 1.039.638.692.957 1.633.957 2.82v1.04zm-2.29-1.515c0-1.146-.463-1.72-1.39-1.72-.396 0-.738.165-1.027.493-.29.328-.465.737-.528 1.227h2.946zm6.258 3.882h-.03v4.61h-2.47V26h2.47v1.203h.03c.61-.932 1.467-1.398 2.57-1.398 1.037 0 1.838.355 2.403 1.066.565.711.848 1.678.848 2.902 0 1.334-.33 2.404-.989 3.211-.658.808-1.535 1.211-2.628 1.211-.964 0-1.698-.375-2.204-1.125zm-.07-3.28v.64c0 .552.146 1.002.438 1.351.291.35.674.524 1.148.524.563 0 .999-.218 1.309-.653.31-.435.464-1.05.464-1.847 0-1.407-.546-2.11-1.64-2.11a1.54 1.54 0 0 0-1.238.575c-.32.382-.48.889-.48 1.52z"/>
        <path fill="#0AA7B8" d="M203 166h25.142l-12.571 12z"/>
        <rect width="130" height="40" x="151" y="130" fill="#00B9CD" rx="4"/>
        <path fill="#FFF" d="M174.75 154h-2.477v-6.258h-2.765V154h-2.469v-8h7.711v8zm4.578-.93h-.031v4.61h-2.469V146h2.469v1.203h.031c.61-.932 1.466-1.398 2.57-1.398 1.037 0 1.838.355 2.403 1.066.565.711.847 1.678.847 2.902 0 1.334-.329 2.404-.988 3.211-.659.808-1.535 1.211-2.629 1.211-.963 0-1.698-.375-2.203-1.125zm-.07-3.28v.64c0 .552.146 1.002.437 1.351.292.35.675.524 1.149.524.562 0 .998-.218 1.308-.653.31-.435.465-1.05.465-1.847 0-1.407-.547-2.11-1.64-2.11a1.54 1.54 0 0 0-1.239.575c-.32.382-.48.889-.48 1.52zm11.304 4.405c-1.333 0-2.381-.373-3.144-1.12-.763-.748-1.145-1.762-1.145-3.044 0-1.323.396-2.358 1.188-3.105.792-.748 1.862-1.121 3.21-1.121 1.329 0 2.37.373 3.126 1.12.755.748 1.133 1.736 1.133 2.966 0 1.328-.39 2.377-1.168 3.148-.779.77-1.845 1.156-3.2 1.156zm.063-6.5c-.583 0-1.036.2-1.36.602-.322.4-.484.969-.484 1.703 0 1.536.62 2.305 1.86 2.305 1.182 0 1.773-.79 1.773-2.368 0-1.494-.596-2.242-1.789-2.242zM208.758 154h-2.914l-2.578-4h-.032v4h-2.43v-4h-.03l-2.563 4h-2.914l3.039-4.195-2.961-3.805h2.898l2.5 3.79h.032V146h2.43v3.79h.03l2.5-3.79h2.891l-2.96 3.805 3.062 4.195zm9.031 0h-2.242v-5.234a9.915 9.915 0 0 1-.656 1.14L212.17 154h-2.335v-8h2.258v5.07a8.33 8.33 0 0 1 .547-.976l2.718-4.094h2.43v8zm2.086 0v-8h4.469c1.906 0 2.86.651 2.86 1.953 0 .464-.15.856-.45 1.176-.3.32-.689.53-1.168.629.588.073 1.05.277 1.387.613.336.336.504.746.504 1.23 0 .725-.258 1.305-.774 1.743-.516.437-1.224.656-2.125.656h-4.703zm2.469-6.492v1.68h1.21c.75 0 1.126-.295 1.126-.883 0-.532-.354-.797-1.063-.797h-1.273zm0 3.133v1.82h1.422c.786 0 1.18-.318 1.18-.953 0-.578-.404-.867-1.212-.867h-1.39zm13.46 3.359h-2.335v-1.148h-.031c-.537.895-1.331 1.343-2.383 1.343-.776 0-1.387-.22-1.832-.66-.446-.44-.668-1.027-.668-1.762 0-1.552.919-2.447 2.757-2.687l2.172-.29c0-.874-.474-1.312-1.422-1.312-.953 0-1.859.284-2.718.852v-1.86c.344-.177.814-.333 1.41-.468a7.413 7.413 0 0 1 1.629-.203c2.281 0 3.422 1.138 3.422 3.414V154zm-2.32-3.25v-.54l-1.453.188c-.802.105-1.203.467-1.203 1.086 0 .282.098.512.293.692.195.18.46.27.793.27.464 0 .841-.16 1.133-.481.292-.32.437-.725.437-1.215zM245.47 154h-2.477v-3.344h-2.765V154h-2.47v-8h2.47v2.96h2.765V146h2.477v8zm10.031 0h-2.242v-5.234a9.915 9.915 0 0 1-.656 1.14l-2.72 4.094h-2.335v-8h2.258v5.07a8.33 8.33 0 0 1 .547-.976L253.07 146h2.43v8zm9.273-3.297h-5.218c.083 1.162.815 1.742 2.195 1.742.88 0 1.654-.208 2.32-.625v1.782c-.74.395-1.7.593-2.882.593-1.292 0-2.295-.358-3.008-1.074-.714-.716-1.07-1.715-1.07-2.996 0-1.328.385-2.38 1.156-3.156.77-.776 1.718-1.164 2.843-1.164 1.167 0 2.07.346 2.707 1.039.638.692.957 1.633.957 2.82v1.04zm-2.289-1.516c0-1.145-.463-1.718-1.39-1.718-.396 0-.739.164-1.028.492-.289.328-.464.737-.527 1.226h2.945z"/>
        <path fill="#649600" d="M133 36h25.142l-12.571 12z"/>
        <rect width="146" height="40" x="73" fill="#78B400" rx="4"/>
        <path fill="#FFF" d="M96.125 11.969v1.953c-.25.193-.583.32-1 .383-1.172.182-1.872.3-2.102.351-.474.11-.819.258-1.035.446-.216.187-.393.46-.531.82-.138.36-.233.797-.285 1.312h.031c.594-.682 1.388-1.023 2.383-1.023 1.135 0 2.02.337 2.652 1.012.633.674.95 1.605.95 2.793 0 1.27-.389 2.285-1.165 3.043-.776.757-1.828 1.136-3.156 1.136-1.39 0-2.448-.442-3.172-1.328-.724-.885-1.086-2.166-1.086-3.844 0-.802.06-1.527.18-2.175.12-.649.3-1.222.54-1.72.239-.496.534-.912.886-1.245a3.61 3.61 0 0 1 1.078-.73 6.103 6.103 0 0 1 1.082-.344c.354-.076 1.242-.223 2.664-.442.469-.12.83-.252 1.086-.398zm-4.992 6.992c-.01.125-.016.37-.016.734 0 .797.16 1.431.48 1.903.321.471.765.707 1.333.707.515 0 .935-.198 1.257-.594.323-.396.485-.925.485-1.586 0-.672-.163-1.197-.488-1.574-.326-.378-.765-.567-1.317-.567-.36 0-.699.094-1.02.282-.32.187-.558.419-.714.695zm10.148 4.11h-.031v4.609h-2.469V16h2.469v1.203h.031c.61-.932 1.466-1.398 2.57-1.398 1.037 0 1.838.355 2.403 1.066.565.711.848 1.678.848 2.902 0 1.334-.33 2.404-.989 3.211-.659.808-1.535 1.211-2.629 1.211-.963 0-1.698-.375-2.203-1.125zm-.07-3.282v.64c0 .553.146 1.003.437 1.352.292.35.675.524 1.149.524.562 0 .999-.218 1.308-.653.31-.435.465-1.05.465-1.847 0-1.407-.547-2.11-1.64-2.11a1.54 1.54 0 0 0-1.239.575c-.32.382-.48.889-.48 1.52zm11.305 4.406c-1.334 0-2.382-.373-3.145-1.12-.763-.748-1.144-1.762-1.144-3.044 0-1.323.395-2.358 1.187-3.105.792-.748 1.862-1.121 3.211-1.121 1.328 0 2.37.373 3.125 1.12.755.748 1.133 1.736 1.133 2.966 0 1.328-.39 2.377-1.168 3.148-.779.77-1.845 1.156-3.2 1.156zm.062-6.5c-.583 0-1.036.2-1.36.602-.322.4-.484.969-.484 1.703 0 1.536.62 2.305 1.86 2.305 1.182 0 1.773-.79 1.773-2.367 0-1.495-.596-2.243-1.789-2.243zM126.195 24h-2.476v-3.344h-2.766V24h-2.469v-8h2.47v2.96h2.765V16h2.476v8zm10.032 0h-2.243v-5.234a9.915 9.915 0 0 1-.656 1.14L130.61 24h-2.336v-8h2.258v5.07a8.33 8.33 0 0 1 .547-.976L133.797 16h2.43v8zm4.585-.93h-.03v4.61h-2.47V16h2.47v1.203h.03c.61-.932 1.467-1.398 2.57-1.398 1.037 0 1.838.355 2.403 1.066.565.711.848 1.678.848 2.902 0 1.334-.33 2.404-.988 3.211-.66.808-1.536 1.211-2.63 1.211-.963 0-1.697-.375-2.202-1.125zm-.07-3.28v.64c0 .552.146 1.002.438 1.351.291.35.674.524 1.148.524.563 0 .999-.218 1.309-.653.31-.435.465-1.05.465-1.847 0-1.407-.547-2.11-1.641-2.11a1.54 1.54 0 0 0-1.238.575c-.32.382-.48.889-.48 1.52zm11.305 4.405c-1.333 0-2.382-.373-3.145-1.12-.763-.748-1.144-1.762-1.144-3.044 0-1.323.396-2.358 1.187-3.105.792-.748 1.862-1.121 3.211-1.121 1.328 0 2.37.373 3.125 1.12.755.748 1.133 1.736 1.133 2.966 0 1.328-.39 2.377-1.168 3.148-.779.77-1.845 1.156-3.2 1.156zm.062-6.5c-.583 0-1.036.2-1.359.602-.323.4-.484.969-.484 1.703 0 1.536.62 2.305 1.859 2.305 1.182 0 1.773-.79 1.773-2.367 0-1.495-.596-2.243-1.789-2.243zM158.016 24v-8h4.468c1.907 0 2.86.651 2.86 1.953 0 .464-.15.856-.45 1.176-.299.32-.688.53-1.167.629.588.073 1.05.277 1.386.613.336.336.504.746.504 1.23 0 .725-.258 1.305-.773 1.743-.516.437-1.224.656-2.125.656h-4.703zm2.468-6.492v1.68h1.211c.75 0 1.125-.295 1.125-.883 0-.532-.354-.797-1.062-.797h-1.274zm0 3.133v1.82h1.422c.787 0 1.18-.318 1.18-.953 0-.578-.404-.867-1.211-.867h-1.39zM173.945 24h-2.336v-1.148h-.03c-.537.895-1.332 1.343-2.384 1.343-.776 0-1.386-.22-1.832-.66-.445-.44-.668-1.027-.668-1.762 0-1.552.92-2.447 2.758-2.687l2.172-.29c0-.874-.474-1.312-1.422-1.312-.953 0-1.86.284-2.719.852v-1.86c.344-.177.814-.333 1.41-.468a7.413 7.413 0 0 1 1.63-.203c2.28 0 3.421 1.138 3.421 3.414V24zm-2.32-3.25v-.54l-1.453.188c-.802.105-1.203.467-1.203 1.086 0 .282.097.512.293.692.195.18.46.27.793.27.463 0 .84-.16 1.132-.481.292-.32.438-.725.438-1.215zM183.609 24h-2.476v-3.344h-2.766V24h-2.469v-8h2.47v2.96h2.765V16h2.476v8zm10.032 0h-2.243v-5.234a9.915 9.915 0 0 1-.656 1.14L188.023 24h-2.335v-8h2.257v5.07a8.33 8.33 0 0 1 .547-.976L191.211 16h2.43v8zm9.273-3.297h-5.219c.084 1.162.815 1.742 2.196 1.742.88 0 1.653-.208 2.32-.625v1.782c-.74.395-1.7.593-2.883.593-1.292 0-2.294-.358-3.008-1.074-.713-.716-1.07-1.715-1.07-2.996 0-1.328.385-2.38 1.156-3.156.771-.776 1.719-1.164 2.844-1.164 1.167 0 2.069.346 2.707 1.039.638.692.957 1.633.957 2.82v1.04zm-2.289-1.515c0-1.146-.464-1.72-1.39-1.72-.396 0-.739.165-1.028.493-.289.328-.465.737-.527 1.227h2.945z"/>
    </g>
</svg>
