<?xml version="1.0" encoding="UTF-8"?>
<svg width="179px" height="28px" viewBox="0 0 179 28" version="1.1" xmlns="http://www.w3.org/2000/svg" xmlns:xlink="http://www.w3.org/1999/xlink">
    <!-- Generator: sketchtool 41.2 (35397) - http://www.bohemiancoding.com/sketch -->
    <title>5A0E684B-157D-443D-A2DB-695C43390D7F</title>
    <desc>Created with sketchtool.</desc>
    <defs></defs>
    <g id="Final-Design" stroke="none" stroke-width="1" fill="none" fill-rule="evenodd">
        <g id="0.-Style" transform="translate(-622.000000, -1283.000000)">
            <g id="Logo" transform="translate(622.000000, 1283.000000)">
                <path d="M12.5840975,21.2413793 L8.70711349,21.2413793 L10.4717208,12.6214978 C10.6091118,12.0230753 10.6778063,11.4994635 10.6778063,11.0506466 C10.6778063,9.96820579 10.2141185,9.42699353 9.28672903,9.42699353 C8.49673056,9.42699353 7.77973184,9.9286049 7.13571135,10.9318427 C6.49169086,11.9350804 5.98506901,13.3343121 5.61583059,15.1295797 L4.35355674,21.2413793 L0.47657278,21.2413793 L4.72708676,0.701508621 L8.60407072,0.701508621 C8.26918007,2.2943686 8.01157574,3.51759631 7.83125,4.37122845 C7.65092426,5.22486059 7.28169139,6.58449139 6.7235403,8.45016164 L6.82658306,8.45016164 C7.35897333,7.77253612 7.95146329,7.22912381 8.60407072,6.81990841 C9.25667815,6.410693 10.0123175,6.20608836 10.8710115,6.20608836 C12.0560092,6.20608836 12.9726513,6.57349669 13.6209653,7.30832435 C14.2692792,8.04315202 14.5934313,9.09257579 14.5934313,10.4566272 C14.5934313,11.0990513 14.494683,11.8910693 14.2971834,12.8327047 L12.5840975,21.2413793 Z M25.5739702,12.0538793 C25.5739702,10.320214 24.9600132,9.4533944 23.7320808,9.4533944 C23.0880603,9.4533944 22.5105973,9.72180048 21.9996744,10.2586207 C21.4887514,10.7954409 21.0722911,11.5830587 20.7502808,12.6214978 C20.4282706,13.6599369 20.2672679,14.7291612 20.2672679,15.8292026 C20.2672679,17.4572639 20.9112787,18.2712823 22.1993197,18.2712823 C22.8433402,18.2712823 23.4229499,18.0006762 23.9381663,17.4594558 C24.4533827,16.9182354 24.8548161,16.1658184 25.1424786,15.2021821 C25.4301411,14.2385458 25.5739702,13.1891221 25.5739702,12.0538793 Z M29.4767149,12.0538793 C29.4767149,13.9107492 29.1740298,15.5563865 28.5686505,16.9908405 C27.9632712,18.4252945 27.0895632,19.5363197 25.9475002,20.3239494 C24.8054372,21.111579 23.4487211,21.5053879 21.8773111,21.5053879 C20.2028578,21.5053879 18.865462,20.9883762 17.8650835,19.9543373 C16.864705,18.9202983 16.3645232,17.5452672 16.3645232,15.8292026 C16.3645232,13.954732 16.6715017,12.2848942 17.2854679,10.819639 C17.8994341,9.35438384 18.7860224,8.21915812 19.9452593,7.4139278 C21.1044961,6.60869748 22.4612123,6.20608836 24.0154484,6.20608836 C25.6984886,6.20608836 27.0294443,6.72530012 28.0083555,7.76373922 C28.9872666,8.80217832 29.4767149,10.2322107 29.4767149,12.0538793 Z M40.5860572,16.3704203 C40.5860572,18.0248826 40.0515282,19.2943113 38.9824542,20.1787446 C37.9133802,21.0631779 36.4257151,21.5053879 34.5194145,21.5053879 C33.6006119,21.5053879 32.7998918,21.4393864 32.1172301,21.3073815 C31.4345684,21.1753765 30.7969976,20.9553715 30.2044988,20.6473599 L30.2044988,17.373653 C31.5526483,18.1656828 32.9222447,18.5616918 34.313329,18.5616918 C35.0002842,18.5616918 35.5627203,18.4186886 36.0006542,18.1326778 C36.4385881,17.846667 36.6575518,17.4572582 36.6575518,16.9644397 C36.6575518,16.5860254 36.4986958,16.2472177 36.180979,15.9480065 C35.8632623,15.6487952 35.3008261,15.2703866 34.4936538,14.8127694 C33.4546341,14.2143469 32.7290485,13.6181334 32.3168754,13.024111 C31.9047023,12.4300886 31.6986189,11.7282727 31.6986189,10.9186422 C31.6986189,9.42258591 32.1730402,8.26315965 33.121897,7.44032866 C34.0707539,6.61749768 35.4253233,6.20608836 37.185646,6.20608836 C38.9116209,6.20608836 40.4701271,6.62409783 41.8612114,7.46012931 L40.5860572,10.298222 C39.3838856,9.55899415 38.276187,9.18938578 37.2629281,9.18938578 C36.7734725,9.18938578 36.3784792,9.30158832 36.0779363,9.52599677 C35.7773934,9.75040522 35.6271242,10.051812 35.6271242,10.4302263 C35.6271242,10.7734392 35.7645132,11.074846 36.0392952,11.3344558 C36.3140773,11.5940656 36.829286,11.921873 37.5849367,12.3178879 C38.6411303,12.8723088 39.4053565,13.4751225 39.8776382,14.126347 C40.3499199,14.7775715 40.5860572,15.5255884 40.5860572,16.3704203 Z M52.1333312,6.20608836 C53.3870245,6.20608836 54.3766544,6.67909908 55.1022509,7.6251347 C55.8278473,8.57117032 56.19064,9.89340027 56.19064,11.5918642 C56.19064,13.2727275 55.8965418,14.8897641 55.3083364,16.4430226 C54.720131,17.9962811 53.9151175,19.228309 52.8932716,20.1391433 C51.8714258,21.0499776 50.7465535,21.5053879 49.5186211,21.5053879 C48.8059051,21.5053879 48.1919481,21.3425842 47.6767317,21.016972 C47.1615153,20.6913597 46.6849473,20.1369472 46.2470134,19.3537177 L46.1439706,19.3537177 C46.0409274,20.7529704 45.8563109,22.0509998 45.5901158,23.2478448 L44.6627309,27.7359914 L40.7857469,27.7359914 L45.1908251,6.48329741 L48.1533045,6.48329741 L47.9343386,8.72737069 L48.0502617,8.72737069 C49.2352594,7.0465074 50.596269,6.20608836 52.1333312,6.20608836 Z M50.5748094,9.42699353 C49.9908975,9.42699353 49.4263147,9.72400026 48.881044,10.3180226 C48.3357733,10.912045 47.897846,11.7040629 47.5672488,12.6941002 C47.2366516,13.6841375 47.0713555,14.7775623 47.0713555,15.9744073 C47.0713555,16.6784338 47.2302115,17.2416466 47.5479283,17.6640625 C47.8656451,18.0864784 48.3035724,18.2976832 48.8617235,18.2976832 C49.4370485,18.2976832 49.9866044,17.9940763 50.5104077,17.3868534 C51.0342111,16.7796306 51.4571115,15.9458117 51.7791217,14.8853718 C52.101132,13.8249318 52.2621347,12.7799082 52.2621347,11.7502694 C52.2621347,10.2014111 51.6996986,9.42699353 50.5748094,9.42699353 Z M60.7825276,3.02478448 C60.7825276,2.25915565 60.9864644,1.68054255 61.394344,1.2889278 C61.8022236,0.897313056 62.3796867,0.701508621 63.1267505,0.701508621 C63.7535971,0.701508621 64.2301651,0.837911711 64.5564688,1.11072198 C64.8827725,1.38353225 65.0459219,1.77514113 65.0459219,2.28556034 C65.0459219,2.98958685 64.8570121,3.55939976 64.4791867,3.99501616 C64.1013614,4.43063257 63.5174582,4.6484375 62.7274597,4.6484375 C61.4308318,4.6484375 60.7825276,4.10722524 60.7825276,3.02478448 Z M60.9886131,21.2413793 L57.1116292,21.2413793 L60.164271,6.48329741 L64.041255,6.48329741 L60.9886131,21.2413793 Z M70.3591088,18.2976832 C70.9172599,18.2976832 71.6127916,18.1436797 72.4457248,17.8356681 L72.4457248,20.8057651 C71.4925744,21.2721826 70.3505286,21.5053879 69.0195529,21.5053879 C67.7315119,21.5053879 66.784816,21.2281817 66.1794367,20.6737608 C65.5740575,20.1193399 65.2713724,19.2613205 65.2713724,18.0996767 C65.2713724,17.6596602 65.3228932,17.166849 65.4259365,16.6212284 L66.9071762,9.50619612 L64.9493637,9.50619612 L65.3228938,7.56573276 L67.8474415,6.45689655 L69.547647,3.34159483 L72.0464341,3.34159483 L71.4152971,6.48329741 L75.0604349,6.48329741 L74.4164176,9.50619612 L70.7841602,9.50619612 L69.3029205,16.6212284 C69.2513988,16.8852384 69.2256384,17.1184437 69.2256384,17.3208513 C69.2256384,17.9720758 69.6034581,18.2976832 70.3591088,18.2976832 Z M79.0598265,21.5053879 C77.7975464,21.5053879 76.803623,21.0367773 76.0780266,20.099542 C75.3524302,19.1623067 74.9896374,17.848877 74.9896374,16.1592134 C74.9896374,14.4167478 75.2987626,12.7557101 75.9170223,11.1760506 C76.5352819,9.59639117 77.3467356,8.37316346 78.3514075,7.50633082 C79.3560795,6.63949818 80.4594847,6.20608836 81.6616563,6.20608836 C82.4945895,6.20608836 83.2137349,6.39089255 83.8191142,6.76050647 C84.4244934,7.13012038 84.8946213,7.66693254 85.229512,8.37095905 L85.3325547,8.37095905 L86.0667344,6.48329741 L89.0549746,6.48329741 L85.9894524,21.2413793 L83.0398533,21.2413793 L83.2201781,19.3273168 L83.1686567,19.3273168 C82.0180068,20.7793715 80.6484104,21.5053879 79.0598265,21.5053879 Z M80.5797073,18.2976832 C81.1722061,18.2976832 81.7432291,18.0028765 82.2927932,17.4132543 C82.8423574,16.8236321 83.2845782,16.025014 83.6194688,15.0173761 C83.9543595,14.0097381 84.1218023,12.8679123 84.1218023,11.5918642 C84.1218023,10.9670407 83.9565062,10.450029 83.625909,10.0408136 C83.2953118,9.63159817 82.8595311,9.42699353 82.3185539,9.42699353 C81.734642,9.42699353 81.178646,9.74380071 80.6505492,10.3774246 C80.1224524,11.0110484 79.7016987,11.8470674 79.3882753,12.8855065 C79.074852,13.9239456 78.9181427,14.9535689 78.9181427,15.9744073 C78.9181427,16.7488365 79.0619718,17.3296496 79.3496343,17.7168642 C79.6372968,18.1040788 80.047317,18.2976832 80.5797073,18.2976832 Z M93.1316483,21.2413793 L89.2546643,21.2413793 L93.5051783,0.701508621 L97.3821623,0.701508621 L93.1316483,21.2413793 Z M106.559453,16.3704203 C106.559453,18.0248826 106.024924,19.2943113 104.95585,20.1787446 C103.886776,21.0631779 102.399111,21.5053879 100.49281,21.5053879 C99.5740075,21.5053879 98.7732874,21.4393864 98.0906257,21.3073815 C97.407964,21.1753765 96.7703933,20.9553715 96.1778944,20.6473599 L96.1778944,17.373653 C97.526044,18.1656828 98.8956403,18.5616918 100.286725,18.5616918 C100.97368,18.5616918 101.536116,18.4186886 101.97405,18.1326778 C102.411984,17.846667 102.630947,17.4572582 102.630947,16.9644397 C102.630947,16.5860254 102.472091,16.2472177 102.154375,15.9480065 C101.836658,15.6487952 101.274222,15.2703866 100.467049,14.8127694 C99.4280297,14.2143469 98.7024442,13.6181334 98.290271,13.024111 C97.8780979,12.4300886 97.6720145,11.7282727 97.6720145,10.9186422 C97.6720145,9.42258591 98.1464358,8.26315965 99.0952926,7.44032866 C100.044149,6.61749768 101.398719,6.20608836 103.159042,6.20608836 C104.885017,6.20608836 106.443523,6.62409783 107.834607,7.46012931 L106.559453,10.298222 C105.357281,9.55899415 104.249583,9.18938578 103.236324,9.18938578 C102.746868,9.18938578 102.351875,9.30158832 102.051332,9.52599677 C101.750789,9.75040522 101.60052,10.051812 101.60052,10.4302263 C101.60052,10.7734392 101.737909,11.074846 102.012691,11.3344558 C102.287473,11.5940656 102.802682,11.921873 103.558332,12.3178879 C104.614526,12.8723088 105.378752,13.4751225 105.851034,14.126347 C106.323315,14.7775715 106.559453,15.5255884 106.559453,16.3704203 Z" id="hospitals" fill="#00B9CD"></path>
                <path d="M114.962603,18.2976832 C115.520754,18.2976832 116.216286,18.1436797 117.049219,17.8356681 L117.049219,20.8057651 C116.096068,21.2721826 114.954023,21.5053879 113.623047,21.5053879 C112.335006,21.5053879 111.38831,21.2281817 110.782931,20.6737608 C110.177551,20.1193399 109.874866,19.2613205 109.874866,18.0996767 C109.874866,17.6596602 109.926387,17.166849 110.029431,16.6212284 L111.51067,9.50619612 L109.552858,9.50619612 L109.926388,7.56573276 L112.450935,6.45689655 L114.151141,3.34159483 L116.649928,3.34159483 L116.018791,6.48329741 L119.663929,6.48329741 L119.019912,9.50619612 L115.387654,9.50619612 L113.906414,16.6212284 C113.854893,16.8852384 113.829132,17.1184437 113.829132,17.3208513 C113.829132,17.9720758 114.206952,18.2976832 114.962603,18.2976832 Z M129.279151,6.20608836 C129.785781,6.20608836 130.197948,6.25448946 130.515664,6.3512931 L129.665561,10.1794181 C129.279149,10.0386128 128.849809,9.96821121 128.377527,9.96821121 C127.381442,9.96821121 126.507734,10.3708203 125.756377,11.1760506 C125.005019,11.981281 124.47049,13.1363071 124.152774,14.6411638 L122.787457,21.2413793 L118.910473,21.2413793 L121.963115,6.48329741 L124.925594,6.48329741 L124.655107,9.21578664 L124.732389,9.21578664 C125.994669,7.20931109 127.510242,6.20608836 129.279151,6.20608836 Z M133.510389,21.5053879 C132.248109,21.5053879 131.254185,21.0367773 130.528589,20.099542 C129.802993,19.1623067 129.4402,17.848877 129.4402,16.1592134 C129.4402,14.4167478 129.749325,12.7557101 130.367585,11.1760506 C130.985844,9.59639117 131.797298,8.37316346 132.80197,7.50633082 C133.806642,6.63949818 134.910047,6.20608836 136.112219,6.20608836 C136.945152,6.20608836 137.664297,6.39089255 138.269677,6.76050647 C138.875056,7.13012038 139.345184,7.66693254 139.680074,8.37095905 L139.783117,8.37095905 L140.517297,6.48329741 L143.505537,6.48329741 L140.440015,21.2413793 L137.490416,21.2413793 L137.670741,19.3273168 L137.619219,19.3273168 C136.468569,20.7793715 135.098973,21.5053879 133.510389,21.5053879 Z M135.03027,18.2976832 C135.622769,18.2976832 136.193792,18.0028765 136.743356,17.4132543 C137.29292,16.8236321 137.735141,16.025014 138.070031,15.0173761 C138.404922,14.0097381 138.572365,12.8679123 138.572365,11.5918642 C138.572365,10.9670407 138.407069,10.450029 138.076471,10.0408136 C137.745874,9.63159817 137.310094,9.42699353 136.769116,9.42699353 C136.185204,9.42699353 135.629208,9.74380071 135.101112,10.3774246 C134.573015,11.0110484 134.152261,11.8470674 133.838838,12.8855065 C133.525415,13.9239456 133.368705,14.9535689 133.368705,15.9744073 C133.368705,16.7488365 133.512534,17.3296496 133.800197,17.7168642 C134.087859,18.1040788 134.497879,18.2976832 135.03027,18.2976832 Z M149.089211,17.2680496 C149.561493,15.9215989 149.956486,14.9403766 150.274203,14.3243534 L154.099666,6.48329741 L158.260017,6.48329741 L150.480288,21.2413793 L146.319937,21.2413793 L144.542449,6.48329741 L148.342151,6.48329741 L148.921767,14.21875 C148.981875,15.3891941 149.011929,16.4056171 149.011929,17.2680496 L149.089211,17.2680496 Z M164.977162,9.0705819 C164.221511,9.0705819 163.508806,9.42258987 162.839024,10.1266164 C162.169243,10.8306429 161.731316,11.6886623 161.525229,12.7007004 L162.104845,12.7007004 C163.43582,12.7007004 164.472678,12.4872956 165.215448,12.0604795 C165.958218,11.6336635 166.329598,11.0550503 166.329598,10.3246228 C166.329598,9.48859137 165.87879,9.0705819 164.977162,9.0705819 Z M162.864785,21.5053879 C161.061528,21.5053879 159.661877,21.0081767 158.665792,20.0137392 C157.669707,19.0193018 157.171672,17.61567 157.171672,15.8028017 C157.171672,13.9811331 157.525878,12.3200955 158.234301,10.819639 C158.942723,9.31918251 159.902299,8.1751566 161.113058,7.38752694 C162.323817,6.59989728 163.693413,6.20608836 165.221888,6.20608836 C166.741777,6.20608836 167.926756,6.56469649 168.776864,7.28192349 C169.626971,7.9991505 170.052018,8.98257277 170.052018,10.2322198 C170.052018,11.8778818 169.335019,13.1473105 167.901,14.0405442 C166.466981,14.9337778 164.419027,15.3803879 161.757075,15.3803879 L161.100178,15.3803879 L161.074417,15.657597 L161.074417,15.9216056 C161.074417,16.7224358 161.295527,17.3538501 161.737755,17.8158675 C162.179982,18.2778849 162.813259,18.5088901 163.637606,18.5088901 C164.384669,18.5088901 165.063028,18.4252882 165.6727,18.2580819 C166.282373,18.0908756 167.020839,17.7960689 167.88812,17.373653 L167.88812,20.3701509 C166.411166,21.1269794 164.736738,21.5053879 162.864785,21.5053879 Z M174.334777,21.2413793 L170.457793,21.2413793 L174.708307,0.701508621 L178.585291,0.701508621 L174.334777,21.2413793 Z" id="travel" fill="#7CB606"></path>
            </g>
        </g>
    </g>
</svg>